<svg width="516" height="320" viewBox="0 0 516 320" fill="none" xmlns="http://www.w3.org/2000/svg">
<g filter="url(#filter0_dii_75_17)">
<rect x="14" width="500" height="300" rx="6" fill="#0C7D74"/>
<rect x="14.5" y="0.5" width="499" height="299" rx="5.5" stroke="#053834"/>
</g>
<g filter="url(#filter1_dii_75_17)">
<rect x="34" y="110" width="170" height="80" rx="6" fill="#FFAE00"/>
<rect x="34.25" y="110.25" width="169.5" height="79.5" rx="5.75" stroke="#704D00" stroke-width="0.5"/>
</g>
<g filter="url(#filter2_dii_75_17)">
<rect x="34" y="20" width="170" height="80" rx="6" fill="#FFAE00"/>
<rect x="34.25" y="20.25" width="169.5" height="79.5" rx="5.75" stroke="#704D00" stroke-width="0.5"/>
</g>
<g filter="url(#filter3_d_75_17)">
<path d="M264 287L272.66 272L255.34 272L264 287ZM262.5 12C262.5 12.8284 263.172 13.5 264 13.5C264.828 13.5 265.5 12.8284 265.5 12L262.5 12ZM265.5 22C265.5 21.1716 264.828 20.5 264 20.5C263.172 20.5 262.5 21.1716 262.5 22L265.5 22ZM262.5 32C262.5 32.8284 263.172 33.5 264 33.5C264.828 33.5 265.5 32.8284 265.5 32L262.5 32ZM265.5 42C265.5 41.1716 264.828 40.5 264 40.5C263.172 40.5 262.5 41.1716 262.5 42L265.5 42ZM262.5 52C262.5 52.8284 263.172 53.5 264 53.5C264.828 53.5 265.5 52.8284 265.5 52L262.5 52ZM265.5 62C265.5 61.1716 264.828 60.5 264 60.5C263.172 60.5 262.5 61.1716 262.5 62L265.5 62ZM262.5 72C262.5 72.8284 263.172 73.5 264 73.5C264.828 73.5 265.5 72.8284 265.5 72L262.5 72ZM265.5 82C265.5 81.1716 264.828 80.5 264 80.5C263.172 80.5 262.5 81.1716 262.5 82L265.5 82ZM262.5 92C262.5 92.8284 263.172 93.5 264 93.5C264.828 93.5 265.5 92.8284 265.5 92L262.5 92ZM265.5 102C265.5 101.172 264.828 100.5 264 100.5C263.172 100.5 262.5 101.172 262.5 102L265.5 102ZM262.5 112C262.5 112.828 263.172 113.5 264 113.5C264.828 113.5 265.5 112.828 265.5 112L262.5 112ZM265.5 122C265.5 121.172 264.828 120.5 264 120.5C263.172 120.5 262.5 121.172 262.5 122L265.5 122ZM262.5 132C262.5 132.828 263.172 133.5 264 133.5C264.828 133.5 265.5 132.828 265.5 132L262.5 132ZM265.5 142C265.5 141.172 264.828 140.5 264 140.5C263.172 140.5 262.5 141.172 262.5 142L265.5 142ZM262.5 152C262.5 152.828 263.172 153.5 264 153.5C264.828 153.5 265.5 152.828 265.5 152L262.5 152ZM265.5 162C265.5 161.172 264.828 160.5 264 160.5C263.172 160.5 262.5 161.172 262.5 162L265.5 162ZM262.5 172C262.5 172.828 263.172 173.5 264 173.5C264.828 173.5 265.5 172.828 265.5 172L262.5 172ZM265.5 182C265.5 181.172 264.828 180.5 264 180.5C263.172 180.5 262.5 181.172 262.5 182L265.5 182ZM262.5 192C262.5 192.828 263.172 193.5 264 193.5C264.828 193.5 265.5 192.828 265.5 192L262.5 192ZM265.5 202C265.5 201.172 264.828 200.5 264 200.5C263.172 200.5 262.5 201.172 262.5 202L265.5 202ZM262.5 212C262.5 212.828 263.172 213.5 264 213.5C264.828 213.5 265.5 212.828 265.5 212L262.5 212ZM265.5 222C265.5 221.172 264.828 220.5 264 220.5C263.172 220.5 262.5 221.172 262.5 222L265.5 222ZM262.5 232C262.5 232.828 263.172 233.5 264 233.5C264.828 233.5 265.5 232.828 265.5 232L262.5 232ZM265.5 242C265.5 241.172 264.828 240.5 264 240.5C263.172 240.5 262.5 241.172 262.5 242L265.5 242ZM262.5 252C262.5 252.828 263.172 253.5 264 253.5C264.828 253.5 265.5 252.828 265.5 252L262.5 252ZM265.5 262C265.5 261.172 264.828 260.5 264 260.5C263.172 260.5 262.5 261.172 262.5 262L265.5 262ZM262.5 272C262.5 272.828 263.172 273.5 264 273.5C264.828 273.5 265.5 272.828 265.5 272L262.5 272ZM265.5 282C265.5 281.172 264.828 280.5 264 280.5C263.172 280.5 262.5 281.172 262.5 282L265.5 282ZM262.5 7L262.5 12L265.5 12L265.5 7L262.5 7ZM262.5 22L262.5 32L265.5 32L265.5 22L262.5 22ZM262.5 42L262.5 52L265.5 52L265.5 42L262.5 42ZM262.5 62L262.5 72L265.5 72L265.5 62L262.5 62ZM262.5 82L262.5 92L265.5 92L265.5 82L262.5 82ZM262.5 102L262.5 112L265.5 112L265.5 102L262.5 102ZM262.5 122L262.5 132L265.5 132L265.5 122L262.5 122ZM262.5 142L262.5 152L265.5 152L265.5 142L262.5 142ZM262.5 162L262.5 172L265.5 172L265.5 162L262.5 162ZM262.5 182L262.5 192L265.5 192L265.5 182L262.5 182ZM262.5 202L262.5 212L265.5 212L265.5 202L262.5 202ZM262.5 222L262.5 232L265.5 232L265.5 222L262.5 222ZM262.5 242L262.5 252L265.5 252L265.5 242L262.5 242ZM262.5 262L262.5 272L265.5 272L265.5 262L262.5 262Z" fill="white"/>
</g>
<g filter="url(#filter4_d_75_17)">
<path d="M501 150L486 141.34L486 158.66L501 150ZM26 151.5C26.8284 151.5 27.5 150.828 27.5 150C27.5 149.172 26.8284 148.5 26 148.5L26 151.5ZM36 148.5C35.1716 148.5 34.5 149.172 34.5 150C34.5 150.828 35.1716 151.5 36 151.5L36 148.5ZM46 151.5C46.8284 151.5 47.5 150.828 47.5 150C47.5 149.172 46.8284 148.5 46 148.5L46 151.5ZM56 148.5C55.1716 148.5 54.5 149.172 54.5 150C54.5 150.828 55.1716 151.5 56 151.5L56 148.5ZM66 151.5C66.8284 151.5 67.5 150.828 67.5 150C67.5 149.172 66.8284 148.5 66 148.5L66 151.5ZM76 148.5C75.1716 148.5 74.5 149.172 74.5 150C74.5 150.828 75.1716 151.5 76 151.5L76 148.5ZM86 151.5C86.8284 151.5 87.5 150.828 87.5 150C87.5 149.172 86.8284 148.5 86 148.5L86 151.5ZM96 148.5C95.1716 148.5 94.5 149.172 94.5 150C94.5 150.828 95.1716 151.5 96 151.5L96 148.5ZM106 151.5C106.828 151.5 107.5 150.828 107.5 150C107.5 149.172 106.828 148.5 106 148.5L106 151.5ZM116 148.5C115.172 148.5 114.5 149.172 114.5 150C114.5 150.828 115.172 151.5 116 151.5L116 148.5ZM126 151.5C126.828 151.5 127.5 150.828 127.5 150C127.5 149.172 126.828 148.5 126 148.5L126 151.5ZM136 148.5C135.172 148.5 134.5 149.172 134.5 150C134.5 150.828 135.172 151.5 136 151.5L136 148.5ZM146 151.5C146.828 151.5 147.5 150.828 147.5 150C147.5 149.172 146.828 148.5 146 148.5L146 151.5ZM156 148.5C155.172 148.5 154.5 149.172 154.5 150C154.5 150.828 155.172 151.5 156 151.5L156 148.5ZM166 151.5C166.828 151.5 167.5 150.828 167.5 150C167.5 149.172 166.828 148.5 166 148.5L166 151.5ZM176 148.5C175.172 148.5 174.5 149.172 174.5 150C174.5 150.828 175.172 151.5 176 151.5L176 148.5ZM186 151.5C186.828 151.5 187.5 150.828 187.5 150C187.5 149.172 186.828 148.5 186 148.5L186 151.5ZM196 148.5C195.172 148.5 194.5 149.172 194.5 150C194.5 150.828 195.172 151.5 196 151.5L196 148.5ZM206 151.5C206.828 151.5 207.5 150.828 207.5 150C207.5 149.172 206.828 148.5 206 148.5L206 151.5ZM216 148.5C215.172 148.5 214.5 149.172 214.5 150C214.5 150.828 215.172 151.5 216 151.5L216 148.5ZM226 151.5C226.828 151.5 227.5 150.828 227.5 150C227.5 149.172 226.828 148.5 226 148.5L226 151.5ZM236 148.5C235.172 148.5 234.5 149.172 234.5 150C234.5 150.828 235.172 151.5 236 151.5L236 148.5ZM246 151.5C246.828 151.5 247.5 150.828 247.5 150C247.5 149.172 246.828 148.5 246 148.5L246 151.5ZM256 148.5C255.172 148.5 254.5 149.172 254.5 150C254.5 150.828 255.172 151.5 256 151.5L256 148.5ZM266 151.5C266.828 151.5 267.5 150.828 267.5 150C267.5 149.172 266.828 148.5 266 148.5L266 151.5ZM276 148.5C275.172 148.5 274.5 149.172 274.5 150C274.5 150.828 275.172 151.5 276 151.5L276 148.5ZM286 151.5C286.828 151.5 287.5 150.828 287.5 150C287.5 149.172 286.828 148.5 286 148.5L286 151.5ZM296 148.5C295.172 148.5 294.5 149.172 294.5 150C294.5 150.828 295.172 151.5 296 151.5L296 148.5ZM306 151.5C306.828 151.5 307.5 150.828 307.5 150C307.5 149.172 306.828 148.5 306 148.5L306 151.5ZM316 148.5C315.172 148.5 314.5 149.172 314.5 150C314.5 150.828 315.172 151.5 316 151.5L316 148.5ZM326 151.5C326.828 151.5 327.5 150.828 327.5 150C327.5 149.172 326.828 148.5 326 148.5L326 151.5ZM336 148.5C335.172 148.5 334.5 149.172 334.5 150C334.5 150.828 335.172 151.5 336 151.5L336 148.5ZM346 151.5C346.828 151.5 347.5 150.828 347.5 150C347.5 149.172 346.828 148.5 346 148.5L346 151.5ZM356 148.5C355.172 148.5 354.5 149.172 354.5 150C354.5 150.828 355.172 151.5 356 151.5L356 148.5ZM366 151.5C366.828 151.5 367.5 150.828 367.5 150C367.5 149.172 366.828 148.5 366 148.5L366 151.5ZM376 148.5C375.172 148.5 374.5 149.172 374.5 150C374.5 150.828 375.172 151.5 376 151.5L376 148.5ZM386 151.5C386.828 151.5 387.5 150.828 387.5 150C387.5 149.172 386.828 148.5 386 148.5L386 151.5ZM396 148.5C395.172 148.5 394.5 149.172 394.5 150C394.5 150.828 395.172 151.5 396 151.5L396 148.5ZM406 151.5C406.828 151.5 407.5 150.828 407.5 150C407.5 149.172 406.828 148.5 406 148.5L406 151.5ZM416 148.5C415.172 148.5 414.5 149.172 414.5 150C414.5 150.828 415.172 151.5 416 151.5L416 148.5ZM426 151.5C426.828 151.5 427.5 150.828 427.5 150C427.5 149.172 426.828 148.5 426 148.5L426 151.5ZM436 148.5C435.172 148.5 434.5 149.172 434.5 150C434.5 150.828 435.172 151.5 436 151.5L436 148.5ZM446 151.5C446.828 151.5 447.5 150.828 447.5 150C447.5 149.172 446.828 148.5 446 148.5L446 151.5ZM456 148.5C455.172 148.5 454.5 149.172 454.5 150C454.5 150.828 455.172 151.5 456 151.5L456 148.5ZM466 151.5C466.828 151.5 467.5 150.828 467.5 150C467.5 149.172 466.828 148.5 466 148.5L466 151.5ZM476 148.5C475.172 148.5 474.5 149.172 474.5 150C474.5 150.828 475.172 151.5 476 151.5L476 148.5ZM486 151.5C486.828 151.5 487.5 150.828 487.5 150C487.5 149.172 486.828 148.5 486 148.5L486 151.5ZM496 148.5C495.172 148.5 494.5 149.172 494.5 150C494.5 150.828 495.172 151.5 496 151.5L496 148.5ZM21 151.5L26 151.5L26 148.5L21 148.5L21 151.5ZM36 151.5L46 151.5L46 148.5L36 148.5L36 151.5ZM56 151.5L66 151.5L66 148.5L56 148.5L56 151.5ZM76 151.5L86 151.5L86 148.5L76 148.5L76 151.5ZM96 151.5L106 151.5L106 148.5L96 148.5L96 151.5ZM116 151.5L126 151.5L126 148.5L116 148.5L116 151.5ZM136 151.5L146 151.5L146 148.5L136 148.5L136 151.5ZM156 151.5L166 151.5L166 148.5L156 148.5L156 151.5ZM176 151.5L186 151.5L186 148.5L176 148.5L176 151.5ZM196 151.5L206 151.5L206 148.5L196 148.5L196 151.5ZM216 151.5L226 151.5L226 148.5L216 148.5L216 151.5ZM236 151.5L246 151.5L246 148.5L236 148.5L236 151.5ZM256 151.5L266 151.5L266 148.5L256 148.5L256 151.5ZM276 151.5L286 151.5L286 148.5L276 148.5L276 151.5ZM296 151.5L306 151.5L306 148.5L296 148.5L296 151.5ZM316 151.5L326 151.5L326 148.5L316 148.5L316 151.5ZM336 151.5L346 151.5L346 148.5L336 148.5L336 151.5ZM356 151.5L366 151.5L366 148.5L356 148.5L356 151.5ZM376 151.5L386 151.5L386 148.5L376 148.5L376 151.5ZM396 151.5L406 151.5L406 148.5L396 148.5L396 151.5ZM416 151.5L426 151.5L426 148.5L416 148.5L416 151.5ZM436 151.5L446 151.5L446 148.5L436 148.5L436 151.5ZM456 151.5L466 151.5L466 148.5L456 148.5L456 151.5ZM476 151.5L486 151.5L486 148.5L476 148.5L476 151.5Z" fill="white"/>
</g>
<g filter="url(#filter5_d_75_17)">
<path d="M271.635 210.101C271.635 209.817 271.69 209.58 271.801 209.388C271.915 209.199 272.063 209.048 272.245 208.934C272.424 208.816 272.626 208.732 272.851 208.68C273.078 208.631 273.308 208.606 273.539 208.606L273.744 208.606C273.972 208.606 274.198 208.631 274.423 208.68C274.647 208.732 274.851 208.816 275.033 208.934C275.212 209.051 275.357 209.204 275.468 209.393C275.582 209.585 275.639 209.821 275.639 210.101C275.639 210.283 275.608 210.452 275.546 210.608C275.484 210.768 275.399 210.905 275.292 211.019C275.185 211.132 275.059 211.222 274.916 211.287C274.776 211.355 274.626 211.391 274.467 211.395L274.467 212.249C274.734 212.249 274.984 212.195 275.219 212.088C275.453 211.98 275.657 211.832 275.829 211.644C275.998 211.451 276.132 211.224 276.229 210.96C276.33 210.7 276.381 210.413 276.381 210.101C276.381 209.7 276.309 209.35 276.166 209.051C276.023 208.751 275.831 208.502 275.59 208.304C275.346 208.102 275.064 207.951 274.745 207.85C274.426 207.749 274.092 207.698 273.744 207.698L273.539 207.698C273.187 207.698 272.852 207.749 272.533 207.85C272.217 207.951 271.939 208.102 271.698 208.304C271.454 208.502 271.26 208.751 271.117 209.051C270.974 209.35 270.902 209.7 270.902 210.101C270.902 210.381 270.95 210.649 271.044 210.906C271.142 211.163 271.272 211.391 271.435 211.59C271.594 211.788 271.78 211.946 271.991 212.063C272.206 212.184 272.431 212.246 272.665 212.249L272.665 211.395C272.519 211.391 272.382 211.352 272.255 211.277C272.131 211.206 272.024 211.11 271.933 210.989C271.838 210.869 271.765 210.73 271.713 210.574C271.661 210.421 271.635 210.263 271.635 210.101ZM276.381 217.317C276.381 216.933 276.296 216.59 276.127 216.287C275.961 215.988 275.733 215.73 275.443 215.516L275.575 215.511L276.283 215.472L276.283 214.612L271 214.612L271 215.521L274.389 215.521C274.551 215.579 274.698 215.652 274.828 215.74C274.962 215.831 275.074 215.937 275.165 216.058C275.269 216.191 275.347 216.347 275.399 216.526C275.455 216.705 275.482 216.906 275.482 217.127C275.482 217.299 275.473 217.464 275.453 217.62C275.437 217.78 275.409 217.947 275.37 218.123L276.254 218.245C276.293 218.154 276.324 218.017 276.347 217.835C276.369 217.656 276.381 217.483 276.381 217.317ZM273.69 219.607L273.583 219.607C273.202 219.607 272.849 219.663 272.523 219.773C272.198 219.884 271.915 220.044 271.674 220.252C271.433 220.457 271.244 220.708 271.107 221.004C270.971 221.303 270.902 221.64 270.902 222.015C270.902 222.386 270.971 222.719 271.107 223.016C271.244 223.312 271.433 223.564 271.674 223.772C271.915 223.978 272.198 224.135 272.523 224.246C272.849 224.357 273.202 224.412 273.583 224.412L273.69 224.412C274.071 224.412 274.424 224.357 274.75 224.246C275.079 224.135 275.364 223.978 275.604 223.772C275.845 223.564 276.034 223.31 276.171 223.011C276.311 222.715 276.381 222.379 276.381 222.005C276.381 221.634 276.311 221.3 276.171 221.004C276.034 220.708 275.845 220.457 275.604 220.252C275.364 220.044 275.079 219.884 274.75 219.773C274.424 219.663 274.071 219.607 273.69 219.607ZM273.583 220.511L273.69 220.511C273.948 220.511 274.193 220.542 274.428 220.604C274.665 220.665 274.874 220.76 275.053 220.887C275.232 221.01 275.373 221.165 275.478 221.351C275.585 221.536 275.639 221.754 275.639 222.005C275.639 222.256 275.585 222.474 275.478 222.659C275.373 222.848 275.232 223.006 275.053 223.133C274.874 223.257 274.665 223.349 274.428 223.411C274.193 223.476 273.948 223.509 273.69 223.509L273.583 223.509C273.323 223.509 273.074 223.478 272.836 223.416C272.602 223.354 272.395 223.261 272.216 223.138C272.037 223.011 271.895 222.853 271.791 222.664C271.687 222.479 271.635 222.262 271.635 222.015C271.635 221.764 271.687 221.544 271.791 221.355C271.895 221.167 272.037 221.01 272.216 220.887C272.395 220.76 272.602 220.665 272.836 220.604C273.074 220.542 273.323 220.511 273.583 220.511ZM272.401 229.378C272.317 229.378 272.237 229.362 272.162 229.329C272.087 229.297 272.019 229.249 271.957 229.187C271.856 229.087 271.776 228.947 271.718 228.768C271.662 228.589 271.635 228.379 271.635 228.138C271.635 227.985 271.651 227.83 271.684 227.674C271.716 227.518 271.771 227.376 271.85 227.249C271.928 227.119 272.03 227.01 272.157 226.922C272.284 226.837 272.44 226.788 272.626 226.775L272.626 225.872C272.401 225.872 272.185 225.923 271.977 226.023C271.768 226.128 271.586 226.277 271.43 226.473C271.27 226.665 271.142 226.901 271.044 227.181C270.95 227.461 270.902 227.78 270.902 228.138C270.902 228.45 270.94 228.738 271.015 229.002C271.09 229.266 271.195 229.492 271.332 229.681C271.469 229.869 271.633 230.016 271.825 230.12C272.017 230.228 272.23 230.281 272.465 230.281C272.683 230.281 272.875 230.234 273.041 230.14C273.207 230.049 273.354 229.915 273.48 229.739C273.604 229.563 273.71 229.347 273.798 229.09C273.889 228.833 273.969 228.541 274.037 228.216C274.086 227.968 274.136 227.763 274.188 227.601C274.241 227.441 274.299 227.314 274.364 227.22C274.429 227.122 274.503 227.054 274.584 227.015C274.665 226.976 274.758 226.956 274.862 226.956C274.963 226.956 275.061 226.98 275.155 227.029C275.25 227.078 275.333 227.151 275.404 227.249C275.476 227.343 275.533 227.462 275.575 227.605C275.618 227.752 275.639 227.921 275.639 228.113C275.639 228.299 275.613 228.465 275.561 228.611C275.508 228.761 275.44 228.888 275.355 228.992C275.271 229.096 275.173 229.178 275.062 229.236C274.955 229.295 274.844 229.324 274.73 229.324L274.73 230.228C274.962 230.228 275.176 230.177 275.375 230.076C275.577 229.979 275.753 229.839 275.902 229.656C276.052 229.474 276.169 229.253 276.254 228.992C276.339 228.732 276.381 228.439 276.381 228.113C276.381 227.811 276.34 227.532 276.259 227.278C276.177 227.028 276.067 226.811 275.927 226.629C275.787 226.447 275.622 226.305 275.434 226.204C275.248 226.103 275.048 226.053 274.833 226.053C274.615 226.053 274.423 226.102 274.257 226.199C274.094 226.297 273.952 226.435 273.832 226.614C273.708 226.79 273.603 227.002 273.515 227.249C273.427 227.5 273.352 227.776 273.29 228.079C273.241 228.326 273.186 228.533 273.124 228.699C273.065 228.865 273 228.999 272.929 229.1C272.857 229.201 272.777 229.272 272.689 229.314C272.605 229.357 272.509 229.378 272.401 229.378ZM272.401 235.384C272.317 235.384 272.237 235.368 272.162 235.335C272.087 235.302 272.019 235.255 271.957 235.193C271.856 235.092 271.776 234.952 271.718 234.773C271.662 234.594 271.635 234.384 271.635 234.144C271.635 233.991 271.651 233.836 271.684 233.68C271.716 233.523 271.771 233.382 271.85 233.255C271.928 233.125 272.03 233.016 272.157 232.928C272.284 232.843 272.44 232.794 272.626 232.781L272.626 231.878C272.401 231.878 272.185 231.928 271.977 232.029C271.768 232.133 271.586 232.283 271.43 232.479C271.27 232.671 271.142 232.907 271.044 233.187C270.95 233.466 270.902 233.785 270.902 234.144C270.902 234.456 270.94 234.744 271.015 235.008C271.09 235.271 271.195 235.498 271.332 235.687C271.469 235.875 271.633 236.022 271.825 236.126C272.017 236.233 272.23 236.287 272.465 236.287C272.683 236.287 272.875 236.24 273.041 236.146C273.207 236.054 273.354 235.921 273.48 235.745C273.604 235.569 273.71 235.353 273.798 235.096C273.889 234.839 273.969 234.547 274.037 234.222C274.086 233.974 274.136 233.769 274.188 233.606C274.241 233.447 274.299 233.32 274.364 233.226C274.429 233.128 274.503 233.06 274.584 233.021C274.665 232.981 274.758 232.962 274.862 232.962C274.963 232.962 275.061 232.986 275.155 233.035C275.25 233.084 275.333 233.157 275.404 233.255C275.476 233.349 275.533 233.468 275.575 233.611C275.618 233.758 275.639 233.927 275.639 234.119C275.639 234.305 275.613 234.471 275.561 234.617C275.508 234.767 275.44 234.894 275.355 234.998C275.271 235.102 275.173 235.184 275.062 235.242C274.955 235.301 274.844 235.33 274.73 235.33L274.73 236.233C274.962 236.233 275.176 236.183 275.375 236.082C275.577 235.984 275.753 235.844 275.902 235.662C276.052 235.48 276.169 235.258 276.254 234.998C276.339 234.738 276.381 234.445 276.381 234.119C276.381 233.816 276.34 233.538 276.259 233.284C276.177 233.034 276.067 232.817 275.927 232.635C275.787 232.452 275.622 232.311 275.434 232.21C275.248 232.109 275.048 232.059 274.833 232.059C274.615 232.059 274.423 232.107 274.257 232.205C274.094 232.303 273.952 232.441 273.832 232.62C273.708 232.796 273.603 233.007 273.515 233.255C273.427 233.506 273.352 233.782 273.29 234.085C273.241 234.332 273.186 234.539 273.124 234.705C273.065 234.871 273 235.005 272.929 235.105C272.857 235.206 272.777 235.278 272.689 235.32C272.605 235.363 272.509 235.384 272.401 235.384ZM271 247.356L271 248.299L271.078 248.299C271.225 248.24 271.396 248.195 271.591 248.162C271.789 248.13 271.977 248.113 272.152 248.113L274.608 248.113C274.905 248.113 275.163 248.06 275.385 247.952C275.606 247.845 275.792 247.698 275.941 247.513C276.088 247.324 276.197 247.101 276.269 246.844C276.343 246.587 276.381 246.308 276.381 246.009C276.381 245.68 276.335 245.385 276.244 245.125C276.153 244.868 276.034 244.65 275.888 244.471C275.738 244.288 275.57 244.148 275.385 244.051C275.199 243.956 275.01 243.908 274.818 243.904L274.818 244.812C274.929 244.812 275.035 244.839 275.136 244.891C275.24 244.946 275.329 245.022 275.404 245.12C275.479 245.218 275.539 245.337 275.585 245.477C275.631 245.62 275.653 245.781 275.653 245.96C275.653 246.152 275.629 246.325 275.58 246.478C275.531 246.634 275.463 246.766 275.375 246.873C275.284 246.98 275.175 247.063 275.048 247.122C274.921 247.181 274.778 247.21 274.618 247.21L274.203 247.21L274.203 246.224C274.203 245.856 274.167 245.522 274.096 245.223C274.024 244.926 273.917 244.673 273.773 244.461C273.627 244.249 273.445 244.085 273.227 243.968C273.008 243.854 272.755 243.797 272.465 243.797C272.243 243.797 272.037 243.839 271.845 243.924C271.656 244.012 271.493 244.135 271.356 244.295C271.216 244.451 271.106 244.642 271.024 244.866C270.943 245.094 270.902 245.348 270.902 245.628C270.902 245.8 270.92 245.963 270.956 246.116C270.992 246.269 271.041 246.414 271.103 246.551C271.164 246.684 271.236 246.806 271.317 246.917C271.399 247.031 271.485 247.133 271.576 247.225C271.465 247.234 271.358 247.249 271.254 247.269C271.153 247.291 271.068 247.321 271 247.356ZM271.688 245.76C271.688 245.584 271.711 245.429 271.757 245.296C271.802 245.162 271.866 245.052 271.947 244.964C272.025 244.876 272.12 244.809 272.23 244.764C272.341 244.721 272.462 244.7 272.592 244.7C272.729 244.7 272.851 244.725 272.958 244.773C273.065 244.826 273.158 244.9 273.236 244.998C273.347 245.135 273.428 245.319 273.48 245.55C273.536 245.784 273.563 246.058 273.563 246.37L273.563 247.21L272.494 247.21C272.39 247.158 272.289 247.086 272.191 246.995C272.097 246.904 272.012 246.797 271.937 246.673C271.863 246.546 271.802 246.406 271.757 246.253C271.711 246.1 271.688 245.936 271.688 245.76ZM274.325 252.073L276.283 250.677L276.283 249.632L273.671 251.6L271 249.578L271 250.633L273.012 252.093L271 253.553L271 254.598L273.671 252.576L276.283 254.544L276.283 253.484L274.325 252.073ZM276.283 256.038L275.497 256.038L275.497 257.835L271.781 257.835L271.781 256.038L271 256.038L271 260.462L271.781 260.462L271.781 258.738L276.283 258.738L276.283 256.038ZM277.67 257.718C277.523 257.718 277.401 257.762 277.304 257.85C277.206 257.941 277.157 258.077 277.157 258.26C277.157 258.439 277.206 258.574 277.304 258.665C277.401 258.756 277.523 258.802 277.67 258.802C277.751 258.802 277.826 258.789 277.895 258.763C277.963 258.737 278.02 258.698 278.065 258.646C278.108 258.603 278.14 258.549 278.163 258.484C278.189 258.419 278.202 258.344 278.202 258.26C278.202 258.175 278.189 258.099 278.163 258.03C278.14 257.965 278.108 257.911 278.065 257.869C278.017 257.817 277.958 257.778 277.89 257.752C277.821 257.729 277.748 257.718 277.67 257.718ZM272.401 265.413C272.317 265.413 272.237 265.397 272.162 265.364C272.087 265.332 272.019 265.285 271.957 265.223C271.856 265.122 271.776 264.982 271.718 264.803C271.662 264.624 271.635 264.414 271.635 264.173C271.635 264.02 271.651 263.865 271.684 263.709C271.716 263.553 271.771 263.411 271.85 263.284C271.928 263.154 272.03 263.045 272.157 262.957C272.284 262.872 272.44 262.824 272.626 262.811L272.626 261.907C272.401 261.907 272.185 261.958 271.977 262.059C271.768 262.163 271.586 262.312 271.43 262.508C271.27 262.7 271.142 262.936 271.044 263.216C270.95 263.496 270.902 263.815 270.902 264.173C270.902 264.485 270.94 264.773 271.015 265.037C271.09 265.301 271.195 265.527 271.332 265.716C271.469 265.905 271.633 266.051 271.825 266.155C272.017 266.263 272.23 266.316 272.465 266.316C272.683 266.316 272.875 266.269 273.041 266.175C273.207 266.084 273.354 265.95 273.48 265.774C273.604 265.599 273.71 265.382 273.798 265.125C273.889 264.868 273.969 264.576 274.037 264.251C274.086 264.004 274.136 263.799 274.188 263.636C274.241 263.476 274.299 263.349 274.364 263.255C274.429 263.157 274.503 263.089 274.584 263.05C274.665 263.011 274.758 262.991 274.862 262.991C274.963 262.991 275.061 263.016 275.155 263.064C275.25 263.113 275.333 263.187 275.404 263.284C275.476 263.379 275.533 263.497 275.575 263.641C275.618 263.787 275.639 263.956 275.639 264.148C275.639 264.334 275.613 264.5 275.561 264.646C275.508 264.796 275.44 264.923 275.355 265.027C275.271 265.132 275.173 265.213 275.062 265.271C274.955 265.33 274.844 265.359 274.73 265.359L274.73 266.263C274.962 266.263 275.176 266.212 275.375 266.111C275.577 266.014 275.753 265.874 275.902 265.691C276.052 265.509 276.169 265.288 276.254 265.027C276.339 264.767 276.381 264.474 276.381 264.148C276.381 263.846 276.34 263.567 276.259 263.313C276.177 263.063 276.067 262.846 275.927 262.664C275.787 262.482 275.622 262.34 275.434 262.239C275.248 262.138 275.048 262.088 274.833 262.088C274.615 262.088 274.423 262.137 274.257 262.234C274.094 262.332 273.952 262.47 273.832 262.649C273.708 262.825 273.603 263.037 273.515 263.284C273.427 263.535 273.352 263.812 273.29 264.114C273.241 264.362 273.186 264.568 273.124 264.734C273.065 264.9 273 265.034 272.929 265.135C272.857 265.236 272.777 265.307 272.689 265.35C272.605 265.392 272.509 265.413 272.401 265.413Z" fill="white"/>
</g>
<g filter="url(#filter6_d_75_17)">
<path d="M428.265 137.717H427.454V143H428.313V138.796C428.333 138.744 428.357 138.695 428.387 138.649C428.419 138.604 428.457 138.563 428.499 138.527C428.554 138.482 428.621 138.448 428.699 138.425C428.781 138.399 428.875 138.386 428.982 138.386C429.08 138.386 429.165 138.399 429.236 138.425C429.311 138.448 429.373 138.485 429.422 138.537C429.474 138.592 429.511 138.662 429.534 138.747C429.56 138.832 429.573 138.929 429.573 139.04V143H430.433V139.045C430.433 139.025 430.433 139.009 430.433 138.996C430.433 138.98 430.433 138.964 430.433 138.947C430.442 138.866 430.462 138.793 430.491 138.728C430.521 138.659 430.561 138.599 430.613 138.547C430.665 138.498 430.73 138.459 430.809 138.43C430.887 138.4 430.979 138.386 431.087 138.386C431.188 138.386 431.276 138.399 431.351 138.425C431.429 138.451 431.494 138.49 431.546 138.542C431.595 138.597 431.632 138.667 431.658 138.752C431.684 138.837 431.697 138.934 431.697 139.045V143H432.557V139.055C432.557 138.801 432.527 138.581 432.469 138.396C432.41 138.207 432.326 138.054 432.215 137.937C432.114 137.832 431.99 137.754 431.844 137.702C431.697 137.647 431.533 137.619 431.351 137.619C431.217 137.622 431.093 137.64 430.979 137.673C430.869 137.705 430.768 137.749 430.677 137.805C430.605 137.854 430.538 137.91 430.477 137.976C430.415 138.041 430.361 138.111 430.315 138.186C430.28 138.104 430.236 138.031 430.184 137.966C430.135 137.901 430.079 137.845 430.018 137.8C429.933 137.741 429.834 137.697 429.72 137.668C429.609 137.635 429.484 137.619 429.344 137.619C429.096 137.622 428.885 137.676 428.709 137.78C428.536 137.884 428.396 138.029 428.289 138.215L428.265 137.717ZM437.327 143H438.27V142.922C438.211 142.775 438.165 142.604 438.133 142.409C438.1 142.211 438.084 142.023 438.084 141.848V139.392C438.084 139.095 438.03 138.837 437.923 138.615C437.815 138.394 437.669 138.208 437.483 138.059C437.295 137.912 437.072 137.803 436.814 137.731C436.557 137.657 436.279 137.619 435.979 137.619C435.651 137.619 435.356 137.665 435.096 137.756C434.839 137.847 434.62 137.966 434.441 138.112C434.259 138.262 434.119 138.43 434.021 138.615C433.927 138.801 433.878 138.99 433.875 139.182H434.783C434.783 139.071 434.809 138.965 434.861 138.864C434.917 138.76 434.993 138.671 435.091 138.596C435.188 138.521 435.307 138.461 435.447 138.415C435.59 138.369 435.752 138.347 435.931 138.347C436.123 138.347 436.295 138.371 436.448 138.42C436.604 138.469 436.736 138.537 436.844 138.625C436.951 138.716 437.034 138.825 437.093 138.952C437.151 139.079 437.181 139.222 437.181 139.382V139.797H436.194C435.826 139.797 435.493 139.833 435.193 139.904C434.897 139.976 434.643 140.083 434.432 140.227C434.22 140.373 434.056 140.555 433.938 140.773C433.825 140.992 433.768 141.245 433.768 141.535C433.768 141.757 433.81 141.963 433.895 142.155C433.982 142.344 434.106 142.507 434.266 142.644C434.422 142.784 434.612 142.894 434.837 142.976C435.065 143.057 435.319 143.098 435.599 143.098C435.771 143.098 435.934 143.08 436.087 143.044C436.24 143.008 436.385 142.959 436.521 142.897C436.655 142.836 436.777 142.764 436.888 142.683C437.002 142.601 437.104 142.515 437.195 142.424C437.205 142.535 437.22 142.642 437.239 142.746C437.262 142.847 437.291 142.932 437.327 143ZM435.73 142.312C435.555 142.312 435.4 142.289 435.267 142.243C435.133 142.198 435.022 142.134 434.935 142.053C434.847 141.975 434.78 141.88 434.734 141.77C434.692 141.659 434.671 141.538 434.671 141.408C434.671 141.271 434.695 141.149 434.744 141.042C434.796 140.935 434.871 140.842 434.969 140.764C435.105 140.653 435.289 140.572 435.521 140.52C435.755 140.464 436.028 140.437 436.341 140.437H437.181V141.506C437.129 141.61 437.057 141.711 436.966 141.809C436.875 141.903 436.767 141.988 436.644 142.062C436.517 142.137 436.377 142.198 436.224 142.243C436.071 142.289 435.906 142.312 435.73 142.312ZM440.003 137.717V138.503H441.8V142.219H440.003V143H444.427V142.219H442.703V137.717H440.003ZM441.683 136.33C441.683 136.477 441.727 136.599 441.814 136.696C441.906 136.794 442.042 136.843 442.225 136.843C442.404 136.843 442.539 136.794 442.63 136.696C442.721 136.599 442.767 136.477 442.767 136.33C442.767 136.249 442.754 136.174 442.728 136.105C442.701 136.037 442.662 135.98 442.61 135.935C442.568 135.892 442.514 135.86 442.449 135.837C442.384 135.811 442.309 135.798 442.225 135.798C442.14 135.798 442.063 135.811 441.995 135.837C441.93 135.86 441.876 135.892 441.834 135.935C441.782 135.983 441.743 136.042 441.717 136.11C441.694 136.179 441.683 136.252 441.683 136.33ZM445.867 143H446.771V139.211C446.832 139.097 446.904 138.993 446.985 138.898C447.07 138.804 447.161 138.721 447.259 138.649C447.379 138.568 447.511 138.505 447.654 138.459C447.798 138.41 447.952 138.386 448.118 138.386C448.31 138.386 448.479 138.409 448.626 138.454C448.776 138.5 448.903 138.573 449.007 138.674C449.108 138.775 449.184 138.907 449.236 139.069C449.288 139.232 449.314 139.431 449.314 139.665V143H450.218V139.646C450.218 139.294 450.174 138.991 450.086 138.737C450.001 138.48 449.879 138.269 449.72 138.103C449.56 137.937 449.367 137.814 449.139 137.736C448.914 137.658 448.663 137.619 448.387 137.619C448.182 137.622 447.986 137.653 447.801 137.712C447.618 137.767 447.449 137.847 447.293 137.951C447.189 138.02 447.09 138.101 446.995 138.195C446.904 138.286 446.819 138.387 446.741 138.498L446.678 137.717H445.867V143ZM461.351 143H462.293V142.922C462.234 142.775 462.189 142.604 462.156 142.409C462.124 142.211 462.107 142.023 462.107 141.848V139.392C462.107 139.095 462.054 138.837 461.946 138.615C461.839 138.394 461.692 138.208 461.507 138.059C461.318 137.912 461.095 137.803 460.838 137.731C460.581 137.657 460.302 137.619 460.003 137.619C459.674 137.619 459.38 137.665 459.119 137.756C458.862 137.847 458.644 137.966 458.465 138.112C458.283 138.262 458.143 138.43 458.045 138.615C457.951 138.801 457.902 138.99 457.898 139.182H458.807C458.807 139.071 458.833 138.965 458.885 138.864C458.94 138.76 459.017 138.671 459.114 138.596C459.212 138.521 459.331 138.461 459.471 138.415C459.614 138.369 459.775 138.347 459.954 138.347C460.146 138.347 460.319 138.371 460.472 138.42C460.628 138.469 460.76 138.537 460.867 138.625C460.975 138.716 461.058 138.825 461.116 138.952C461.175 139.079 461.204 139.222 461.204 139.382V139.797H460.218C459.85 139.797 459.516 139.833 459.217 139.904C458.921 139.976 458.667 140.083 458.455 140.227C458.243 140.373 458.079 140.555 457.962 140.773C457.848 140.992 457.791 141.245 457.791 141.535C457.791 141.757 457.833 141.963 457.918 142.155C458.006 142.344 458.13 142.507 458.289 142.644C458.445 142.784 458.636 142.894 458.86 142.976C459.088 143.057 459.342 143.098 459.622 143.098C459.795 143.098 459.957 143.08 460.11 143.044C460.263 143.008 460.408 142.959 460.545 142.897C460.678 142.836 460.8 142.764 460.911 142.683C461.025 142.601 461.128 142.515 461.219 142.424C461.229 142.535 461.243 142.642 461.263 142.746C461.285 142.847 461.315 142.932 461.351 143ZM459.754 142.312C459.578 142.312 459.424 142.289 459.29 142.243C459.157 142.198 459.046 142.134 458.958 142.053C458.87 141.975 458.803 141.88 458.758 141.77C458.715 141.659 458.694 141.538 458.694 141.408C458.694 141.271 458.719 141.149 458.768 141.042C458.82 140.935 458.895 140.842 458.992 140.764C459.129 140.653 459.313 140.572 459.544 140.52C459.778 140.464 460.052 140.437 460.364 140.437H461.204V141.506C461.152 141.61 461.08 141.711 460.989 141.809C460.898 141.903 460.791 141.988 460.667 142.062C460.54 142.137 460.4 142.198 460.247 142.243C460.094 142.289 459.93 142.312 459.754 142.312ZM466.067 139.675L464.671 137.717H463.626L465.594 140.329L463.572 143H464.627L466.087 140.988L467.547 143H468.592L466.57 140.329L468.538 137.717H467.479L466.067 139.675ZM470.032 137.717V138.503H471.829V142.219H470.032V143H474.456V142.219H472.732V137.717H470.032ZM471.712 136.33C471.712 136.477 471.756 136.599 471.844 136.696C471.935 136.794 472.072 136.843 472.254 136.843C472.433 136.843 472.568 136.794 472.659 136.696C472.75 136.599 472.796 136.477 472.796 136.33C472.796 136.249 472.783 136.174 472.757 136.105C472.731 136.037 472.692 135.98 472.64 135.935C472.597 135.892 472.544 135.86 472.479 135.837C472.413 135.811 472.339 135.798 472.254 135.798C472.169 135.798 472.093 135.811 472.024 135.837C471.959 135.86 471.906 135.892 471.863 135.935C471.811 135.983 471.772 136.042 471.746 136.11C471.723 136.179 471.712 136.252 471.712 136.33ZM479.407 141.599C479.407 141.683 479.391 141.763 479.358 141.838C479.326 141.913 479.279 141.981 479.217 142.043C479.116 142.144 478.976 142.224 478.797 142.282C478.618 142.338 478.408 142.365 478.167 142.365C478.014 142.365 477.859 142.349 477.703 142.316C477.547 142.284 477.405 142.229 477.278 142.15C477.148 142.072 477.039 141.97 476.951 141.843C476.867 141.716 476.818 141.56 476.805 141.374H475.901C475.901 141.599 475.952 141.815 476.053 142.023C476.157 142.232 476.307 142.414 476.502 142.57C476.694 142.73 476.93 142.858 477.21 142.956C477.49 143.05 477.809 143.098 478.167 143.098C478.479 143.098 478.768 143.06 479.031 142.985C479.295 142.91 479.521 142.805 479.71 142.668C479.899 142.531 480.045 142.367 480.149 142.175C480.257 141.983 480.311 141.77 480.311 141.535C480.311 141.317 480.263 141.125 480.169 140.959C480.078 140.793 479.944 140.646 479.769 140.52C479.593 140.396 479.376 140.29 479.119 140.202C478.862 140.111 478.571 140.031 478.245 139.963C477.998 139.914 477.793 139.864 477.63 139.812C477.47 139.759 477.343 139.701 477.249 139.636C477.151 139.571 477.083 139.497 477.044 139.416C477.005 139.335 476.985 139.242 476.985 139.138C476.985 139.037 477.01 138.939 477.059 138.845C477.107 138.75 477.181 138.667 477.278 138.596C477.373 138.524 477.492 138.467 477.635 138.425C477.781 138.382 477.951 138.361 478.143 138.361C478.328 138.361 478.494 138.387 478.641 138.439C478.79 138.492 478.917 138.56 479.021 138.645C479.126 138.729 479.207 138.827 479.266 138.938C479.324 139.045 479.354 139.156 479.354 139.27H480.257C480.257 139.038 480.206 138.824 480.105 138.625C480.008 138.423 479.868 138.247 479.686 138.098C479.503 137.948 479.282 137.831 479.021 137.746C478.761 137.661 478.468 137.619 478.143 137.619C477.84 137.619 477.562 137.66 477.308 137.741C477.057 137.823 476.84 137.933 476.658 138.073C476.476 138.213 476.334 138.378 476.233 138.566C476.132 138.752 476.082 138.952 476.082 139.167C476.082 139.385 476.131 139.577 476.229 139.743C476.326 139.906 476.465 140.048 476.644 140.168C476.819 140.292 477.031 140.397 477.278 140.485C477.529 140.573 477.806 140.648 478.108 140.71C478.356 140.759 478.562 140.814 478.729 140.876C478.895 140.935 479.028 141 479.129 141.071C479.23 141.143 479.301 141.223 479.344 141.311C479.386 141.395 479.407 141.491 479.407 141.599Z" fill="white"/>
</g>
<defs>
<filter id="filter0_dii_75_17" x="0" y="-5" width="522" height="325" filterUnits="userSpaceOnUse" color-interpolation-filters="sRGB">
<feFlood flood-opacity="0" result="BackgroundImageFix"/>
<feColorMatrix in="SourceAlpha" type="matrix" values="0 0 0 0 0 0 0 0 0 0 0 0 0 0 0 0 0 0 127 0" result="hardAlpha"/>
<feOffset dx="-6" dy="12"/>
<feGaussianBlur stdDeviation="4"/>
<feComposite in2="hardAlpha" operator="out"/>
<feColorMatrix type="matrix" values="0 0 0 0 0.00875913 0 0 0 0 0.0912409 0 0 0 0 0.0846715 0 0 0 1 0"/>
<feBlend mode="normal" in2="BackgroundImageFix" result="effect1_dropShadow_75_17"/>
<feBlend mode="normal" in="SourceGraphic" in2="effect1_dropShadow_75_17" result="shape"/>
<feColorMatrix in="SourceAlpha" type="matrix" values="0 0 0 0 0 0 0 0 0 0 0 0 0 0 0 0 0 0 127 0" result="hardAlpha"/>
<feOffset dx="10" dy="-5"/>
<feGaussianBlur stdDeviation="4"/>
<feComposite in2="hardAlpha" operator="arithmetic" k2="-1" k3="1"/>
<feColorMatrix type="matrix" values="0 0 0 0 0.0175183 0 0 0 0 0.182482 0 0 0 0 0.169343 0 0 0 0.04 0"/>
<feBlend mode="normal" in2="shape" result="effect2_innerShadow_75_17"/>
<feColorMatrix in="SourceAlpha" type="matrix" values="0 0 0 0 0 0 0 0 0 0 0 0 0 0 0 0 0 0 127 0" result="hardAlpha"/>
<feOffset dx="-5" dy="8"/>
<feGaussianBlur stdDeviation="1.5"/>
<feComposite in2="hardAlpha" operator="arithmetic" k2="-1" k3="1"/>
<feColorMatrix type="matrix" values="0 0 0 0 0.0175183 0 0 0 0 0.182482 0 0 0 0 0.169343 0 0 0 0.2 0"/>
<feBlend mode="normal" in2="effect2_innerShadow_75_17" result="effect3_innerShadow_75_17"/>
</filter>
<filter id="filter1_dii_75_17" x="29" y="108" width="177" height="90" filterUnits="userSpaceOnUse" color-interpolation-filters="sRGB">
<feFlood flood-opacity="0" result="BackgroundImageFix"/>
<feColorMatrix in="SourceAlpha" type="matrix" values="0 0 0 0 0 0 0 0 0 0 0 0 0 0 0 0 0 0 127 0" result="hardAlpha"/>
<feOffset dx="-3" dy="6"/>
<feGaussianBlur stdDeviation="1"/>
<feComposite in2="hardAlpha" operator="out"/>
<feColorMatrix type="matrix" values="0 0 0 0 0.0175183 0 0 0 0 0.182482 0 0 0 0 0.169343 0 0 0 0.22 0"/>
<feBlend mode="normal" in2="BackgroundImageFix" result="effect1_dropShadow_75_17"/>
<feBlend mode="normal" in="SourceGraphic" in2="effect1_dropShadow_75_17" result="shape"/>
<feColorMatrix in="SourceAlpha" type="matrix" values="0 0 0 0 0 0 0 0 0 0 0 0 0 0 0 0 0 0 127 0" result="hardAlpha"/>
<feOffset dx="-3" dy="3"/>
<feGaussianBlur stdDeviation="0.5"/>
<feComposite in2="hardAlpha" operator="arithmetic" k2="-1" k3="1"/>
<feColorMatrix type="matrix" values="0 0 0 0 1 0 0 0 0 0.784 0 0 0 0 0.32 0 0 0 1 0"/>
<feBlend mode="normal" in2="shape" result="effect2_innerShadow_75_17"/>
<feColorMatrix in="SourceAlpha" type="matrix" values="0 0 0 0 0 0 0 0 0 0 0 0 0 0 0 0 0 0 127 0" result="hardAlpha"/>
<feOffset dx="3" dy="-3"/>
<feGaussianBlur stdDeviation="1"/>
<feComposite in2="hardAlpha" operator="arithmetic" k2="-1" k3="1"/>
<feColorMatrix type="matrix" values="0 0 0 0 0.66 0 0 0 0 0.450353 0 0 0 0 0 0 0 0 0.33 0"/>
<feBlend mode="normal" in2="effect2_innerShadow_75_17" result="effect3_innerShadow_75_17"/>
</filter>
<filter id="filter2_dii_75_17" x="29" y="18" width="177" height="90" filterUnits="userSpaceOnUse" color-interpolation-filters="sRGB">
<feFlood flood-opacity="0" result="BackgroundImageFix"/>
<feColorMatrix in="SourceAlpha" type="matrix" values="0 0 0 0 0 0 0 0 0 0 0 0 0 0 0 0 0 0 127 0" result="hardAlpha"/>
<feOffset dx="-3" dy="6"/>
<feGaussianBlur stdDeviation="1"/>
<feComposite in2="hardAlpha" operator="out"/>
<feColorMatrix type="matrix" values="0 0 0 0 0.0175183 0 0 0 0 0.182482 0 0 0 0 0.169343 0 0 0 0.22 0"/>
<feBlend mode="normal" in2="BackgroundImageFix" result="effect1_dropShadow_75_17"/>
<feBlend mode="normal" in="SourceGraphic" in2="effect1_dropShadow_75_17" result="shape"/>
<feColorMatrix in="SourceAlpha" type="matrix" values="0 0 0 0 0 0 0 0 0 0 0 0 0 0 0 0 0 0 127 0" result="hardAlpha"/>
<feOffset dx="-3" dy="3"/>
<feGaussianBlur stdDeviation="0.5"/>
<feComposite in2="hardAlpha" operator="arithmetic" k2="-1" k3="1"/>
<feColorMatrix type="matrix" values="0 0 0 0 1 0 0 0 0 0.784 0 0 0 0 0.32 0 0 0 1 0"/>
<feBlend mode="normal" in2="shape" result="effect2_innerShadow_75_17"/>
<feColorMatrix in="SourceAlpha" type="matrix" values="0 0 0 0 0 0 0 0 0 0 0 0 0 0 0 0 0 0 127 0" result="hardAlpha"/>
<feOffset dx="3" dy="-3"/>
<feGaussianBlur stdDeviation="1"/>
<feComposite in2="hardAlpha" operator="arithmetic" k2="-1" k3="1"/>
<feColorMatrix type="matrix" values="0 0 0 0 0.66 0 0 0 0 0.450353 0 0 0 0 0 0 0 0 0.33 0"/>
<feBlend mode="normal" in2="effect2_innerShadow_75_17" result="effect3_innerShadow_75_17"/>
</filter>
<filter id="filter3_d_75_17" x="251.34" y="7" width="25.3206" height="288" filterUnits="userSpaceOnUse" color-interpolation-filters="sRGB">
<feFlood flood-opacity="0" result="BackgroundImageFix"/>
<feColorMatrix in="SourceAlpha" type="matrix" values="0 0 0 0 0 0 0 0 0 0 0 0 0 0 0 0 0 0 127 0" result="hardAlpha"/>
<feOffset dy="4"/>
<feGaussianBlur stdDeviation="2"/>
<feComposite in2="hardAlpha" operator="out"/>
<feColorMatrix type="matrix" values="0 0 0 0 0 0 0 0 0 0 0 0 0 0 0 0 0 0 0.25 0"/>
<feBlend mode="normal" in2="BackgroundImageFix" result="effect1_dropShadow_75_17"/>
<feBlend mode="normal" in="SourceGraphic" in2="effect1_dropShadow_75_17" result="shape"/>
</filter>
<filter id="filter4_d_75_17" x="17" y="141.34" width="488" height="25.3204" filterUnits="userSpaceOnUse" color-interpolation-filters="sRGB">
<feFlood flood-opacity="0" result="BackgroundImageFix"/>
<feColorMatrix in="SourceAlpha" type="matrix" values="0 0 0 0 0 0 0 0 0 0 0 0 0 0 0 0 0 0 127 0" result="hardAlpha"/>
<feOffset dy="4"/>
<feGaussianBlur stdDeviation="2"/>
<feComposite in2="hardAlpha" operator="out"/>
<feColorMatrix type="matrix" values="0 0 0 0 0 0 0 0 0 0 0 0 0 0 0 0 0 0 0.25 0"/>
<feBlend mode="normal" in2="BackgroundImageFix" result="effect1_dropShadow_75_17"/>
<feBlend mode="normal" in="SourceGraphic" in2="effect1_dropShadow_75_17" result="shape"/>
</filter>
<filter id="filter5_d_75_17" x="266.902" y="207.698" width="15.2998" height="66.6182" filterUnits="userSpaceOnUse" color-interpolation-filters="sRGB">
<feFlood flood-opacity="0" result="BackgroundImageFix"/>
<feColorMatrix in="SourceAlpha" type="matrix" values="0 0 0 0 0 0 0 0 0 0 0 0 0 0 0 0 0 0 127 0" result="hardAlpha"/>
<feOffset dy="4"/>
<feGaussianBlur stdDeviation="2"/>
<feComposite in2="hardAlpha" operator="out"/>
<feColorMatrix type="matrix" values="0 0 0 0 0 0 0 0 0 0 0 0 0 0 0 0 0 0 0.25 0"/>
<feBlend mode="normal" in2="BackgroundImageFix" result="effect1_dropShadow_75_17"/>
<feBlend mode="normal" in="SourceGraphic" in2="effect1_dropShadow_75_17" result="shape"/>
</filter>
<filter id="filter6_d_75_17" x="423.454" y="135.798" width="60.8564" height="15.2998" filterUnits="userSpaceOnUse" color-interpolation-filters="sRGB">
<feFlood flood-opacity="0" result="BackgroundImageFix"/>
<feColorMatrix in="SourceAlpha" type="matrix" values="0 0 0 0 0 0 0 0 0 0 0 0 0 0 0 0 0 0 127 0" result="hardAlpha"/>
<feOffset dy="4"/>
<feGaussianBlur stdDeviation="2"/>
<feComposite in2="hardAlpha" operator="out"/>
<feColorMatrix type="matrix" values="0 0 0 0 0 0 0 0 0 0 0 0 0 0 0 0 0 0 0.25 0"/>
<feBlend mode="normal" in2="BackgroundImageFix" result="effect1_dropShadow_75_17"/>
<feBlend mode="normal" in="SourceGraphic" in2="effect1_dropShadow_75_17" result="shape"/>
</filter>
</defs>
</svg>
