<svg width="516" height="320" viewBox="0 0 516 320" fill="none" xmlns="http://www.w3.org/2000/svg">
<g filter="url(#filter0_dii_74_2)">
<rect x="14" width="500" height="300" rx="6" fill="#0C7D74"/>
<rect x="14.5" y="0.5" width="499" height="299" rx="5.5" stroke="#053834"/>
</g>
<g filter="url(#filter1_dii_74_2)">
<rect x="144" y="20" width="170" height="80" rx="6" fill="#FFAE00"/>
<rect x="144.25" y="20.25" width="169.5" height="79.5" rx="5.75" stroke="#704D00" stroke-width="0.5"/>
</g>
<g filter="url(#filter2_dii_74_2)">
<rect x="324" y="20" width="170" height="80" rx="6" fill="#FFAE00"/>
<rect x="324.25" y="20.25" width="169.5" height="79.5" rx="5.75" stroke="#704D00" stroke-width="0.5"/>
</g>
<g filter="url(#filter3_d_74_2)">
<path d="M264 287L272.66 272L255.34 272L264 287ZM262.5 12C262.5 12.8284 263.172 13.5 264 13.5C264.828 13.5 265.5 12.8284 265.5 12L262.5 12ZM265.5 22C265.5 21.1716 264.828 20.5 264 20.5C263.172 20.5 262.5 21.1716 262.5 22L265.5 22ZM262.5 32C262.5 32.8284 263.172 33.5 264 33.5C264.828 33.5 265.5 32.8284 265.5 32L262.5 32ZM265.5 42C265.5 41.1716 264.828 40.5 264 40.5C263.172 40.5 262.5 41.1716 262.5 42L265.5 42ZM262.5 52C262.5 52.8284 263.172 53.5 264 53.5C264.828 53.5 265.5 52.8284 265.5 52L262.5 52ZM265.5 62C265.5 61.1716 264.828 60.5 264 60.5C263.172 60.5 262.5 61.1716 262.5 62L265.5 62ZM262.5 72C262.5 72.8284 263.172 73.5 264 73.5C264.828 73.5 265.5 72.8284 265.5 72L262.5 72ZM265.5 82C265.5 81.1716 264.828 80.5 264 80.5C263.172 80.5 262.5 81.1716 262.5 82L265.5 82ZM262.5 92C262.5 92.8284 263.172 93.5 264 93.5C264.828 93.5 265.5 92.8284 265.5 92L262.5 92ZM265.5 102C265.5 101.172 264.828 100.5 264 100.5C263.172 100.5 262.5 101.172 262.5 102L265.5 102ZM262.5 112C262.5 112.828 263.172 113.5 264 113.5C264.828 113.5 265.5 112.828 265.5 112L262.5 112ZM265.5 122C265.5 121.172 264.828 120.5 264 120.5C263.172 120.5 262.5 121.172 262.5 122L265.5 122ZM262.5 132C262.5 132.828 263.172 133.5 264 133.5C264.828 133.5 265.5 132.828 265.5 132L262.5 132ZM265.5 142C265.5 141.172 264.828 140.5 264 140.5C263.172 140.5 262.5 141.172 262.5 142L265.5 142ZM262.5 152C262.5 152.828 263.172 153.5 264 153.5C264.828 153.5 265.5 152.828 265.5 152L262.5 152ZM265.5 162C265.5 161.172 264.828 160.5 264 160.5C263.172 160.5 262.5 161.172 262.5 162L265.5 162ZM262.5 172C262.5 172.828 263.172 173.5 264 173.5C264.828 173.5 265.5 172.828 265.5 172L262.5 172ZM265.5 182C265.5 181.172 264.828 180.5 264 180.5C263.172 180.5 262.5 181.172 262.5 182L265.5 182ZM262.5 192C262.5 192.828 263.172 193.5 264 193.5C264.828 193.5 265.5 192.828 265.5 192L262.5 192ZM265.5 202C265.5 201.172 264.828 200.5 264 200.5C263.172 200.5 262.5 201.172 262.5 202L265.5 202ZM262.5 212C262.5 212.828 263.172 213.5 264 213.5C264.828 213.5 265.5 212.828 265.5 212L262.5 212ZM265.5 222C265.5 221.172 264.828 220.5 264 220.5C263.172 220.5 262.5 221.172 262.5 222L265.5 222ZM262.5 232C262.5 232.828 263.172 233.5 264 233.5C264.828 233.5 265.5 232.828 265.5 232L262.5 232ZM265.5 242C265.5 241.172 264.828 240.5 264 240.5C263.172 240.5 262.5 241.172 262.5 242L265.5 242ZM262.5 252C262.5 252.828 263.172 253.5 264 253.5C264.828 253.5 265.5 252.828 265.5 252L262.5 252ZM265.5 262C265.5 261.172 264.828 260.5 264 260.5C263.172 260.5 262.5 261.172 262.5 262L265.5 262ZM262.5 272C262.5 272.828 263.172 273.5 264 273.5C264.828 273.5 265.5 272.828 265.5 272L262.5 272ZM265.5 282C265.5 281.172 264.828 280.5 264 280.5C263.172 280.5 262.5 281.172 262.5 282L265.5 282ZM262.5 7L262.5 12L265.5 12L265.5 7L262.5 7ZM262.5 22L262.5 32L265.5 32L265.5 22L262.5 22ZM262.5 42L262.5 52L265.5 52L265.5 42L262.5 42ZM262.5 62L262.5 72L265.5 72L265.5 62L262.5 62ZM262.5 82L262.5 92L265.5 92L265.5 82L262.5 82ZM262.5 102L262.5 112L265.5 112L265.5 102L262.5 102ZM262.5 122L262.5 132L265.5 132L265.5 122L262.5 122ZM262.5 142L262.5 152L265.5 152L265.5 142L262.5 142ZM262.5 162L262.5 172L265.5 172L265.5 162L262.5 162ZM262.5 182L262.5 192L265.5 192L265.5 182L262.5 182ZM262.5 202L262.5 212L265.5 212L265.5 202L262.5 202ZM262.5 222L262.5 232L265.5 232L265.5 222L262.5 222ZM262.5 242L262.5 252L265.5 252L265.5 242L262.5 242ZM262.5 262L262.5 272L265.5 272L265.5 262L262.5 262Z" fill="white"/>
</g>
<g filter="url(#filter4_d_74_2)">
<path d="M27 150L42 158.66L42 141.34L27 150ZM32 151.5C32.8284 151.5 33.5 150.828 33.5 150C33.5 149.172 32.8284 148.5 32 148.5L32 151.5ZM42 148.5C41.1716 148.5 40.5 149.172 40.5 150C40.5 150.828 41.1716 151.5 42 151.5L42 148.5ZM52 151.5C52.8284 151.5 53.5 150.828 53.5 150C53.5 149.172 52.8284 148.5 52 148.5L52 151.5ZM62 148.5C61.1716 148.5 60.5 149.172 60.5 150C60.5 150.828 61.1716 151.5 62 151.5L62 148.5ZM72 151.5C72.8284 151.5 73.5 150.828 73.5 150C73.5 149.172 72.8284 148.5 72 148.5L72 151.5ZM82 148.5C81.1716 148.5 80.5 149.172 80.5 150C80.5 150.828 81.1716 151.5 82 151.5L82 148.5ZM92 151.5C92.8284 151.5 93.5 150.828 93.5 150C93.5 149.172 92.8284 148.5 92 148.5L92 151.5ZM102 148.5C101.172 148.5 100.5 149.172 100.5 150C100.5 150.828 101.172 151.5 102 151.5L102 148.5ZM112 151.5C112.828 151.5 113.5 150.828 113.5 150C113.5 149.172 112.828 148.5 112 148.5L112 151.5ZM122 148.5C121.172 148.5 120.5 149.172 120.5 150C120.5 150.828 121.172 151.5 122 151.5L122 148.5ZM132 151.5C132.828 151.5 133.5 150.828 133.5 150C133.5 149.172 132.828 148.5 132 148.5L132 151.5ZM142 148.5C141.172 148.5 140.5 149.172 140.5 150C140.5 150.828 141.172 151.5 142 151.5L142 148.5ZM152 151.5C152.828 151.5 153.5 150.828 153.5 150C153.5 149.172 152.828 148.5 152 148.5L152 151.5ZM162 148.5C161.172 148.5 160.5 149.172 160.5 150C160.5 150.828 161.172 151.5 162 151.5L162 148.5ZM172 151.5C172.828 151.5 173.5 150.828 173.5 150C173.5 149.172 172.828 148.5 172 148.5L172 151.5ZM182 148.5C181.172 148.5 180.5 149.172 180.5 150C180.5 150.828 181.172 151.5 182 151.5L182 148.5ZM192 151.5C192.828 151.5 193.5 150.828 193.5 150C193.5 149.172 192.828 148.5 192 148.5L192 151.5ZM202 148.5C201.172 148.5 200.5 149.172 200.5 150C200.5 150.828 201.172 151.5 202 151.5L202 148.5ZM212 151.5C212.828 151.5 213.5 150.828 213.5 150C213.5 149.172 212.828 148.5 212 148.5L212 151.5ZM222 148.5C221.172 148.5 220.5 149.172 220.5 150C220.5 150.828 221.172 151.5 222 151.5L222 148.5ZM232 151.5C232.828 151.5 233.5 150.828 233.5 150C233.5 149.172 232.828 148.5 232 148.5L232 151.5ZM242 148.5C241.172 148.5 240.5 149.172 240.5 150C240.5 150.828 241.172 151.5 242 151.5L242 148.5ZM252 151.5C252.828 151.5 253.5 150.828 253.5 150C253.5 149.172 252.828 148.5 252 148.5L252 151.5ZM262 148.5C261.172 148.5 260.5 149.172 260.5 150C260.5 150.828 261.172 151.5 262 151.5L262 148.5ZM272 151.5C272.828 151.5 273.5 150.828 273.5 150C273.5 149.172 272.828 148.5 272 148.5L272 151.5ZM282 148.5C281.172 148.5 280.5 149.172 280.5 150C280.5 150.828 281.172 151.5 282 151.5L282 148.5ZM292 151.5C292.828 151.5 293.5 150.828 293.5 150C293.5 149.172 292.828 148.5 292 148.5L292 151.5ZM302 148.5C301.172 148.5 300.5 149.172 300.5 150C300.5 150.828 301.172 151.5 302 151.5L302 148.5ZM312 151.5C312.828 151.5 313.5 150.828 313.5 150C313.5 149.172 312.828 148.5 312 148.5L312 151.5ZM322 148.5C321.172 148.5 320.5 149.172 320.5 150C320.5 150.828 321.172 151.5 322 151.5L322 148.5ZM332 151.5C332.828 151.5 333.5 150.828 333.5 150C333.5 149.172 332.828 148.5 332 148.5L332 151.5ZM342 148.5C341.172 148.5 340.5 149.172 340.5 150C340.5 150.828 341.172 151.5 342 151.5L342 148.5ZM352 151.5C352.828 151.5 353.5 150.828 353.5 150C353.5 149.172 352.828 148.5 352 148.5L352 151.5ZM362 148.5C361.172 148.5 360.5 149.172 360.5 150C360.5 150.828 361.172 151.5 362 151.5L362 148.5ZM372 151.5C372.828 151.5 373.5 150.828 373.5 150C373.5 149.172 372.828 148.5 372 148.5L372 151.5ZM382 148.5C381.172 148.5 380.5 149.172 380.5 150C380.5 150.828 381.172 151.5 382 151.5L382 148.5ZM392 151.5C392.828 151.5 393.5 150.828 393.5 150C393.5 149.172 392.828 148.5 392 148.5L392 151.5ZM402 148.5C401.172 148.5 400.5 149.172 400.5 150C400.5 150.828 401.172 151.5 402 151.5L402 148.5ZM412 151.5C412.828 151.5 413.5 150.828 413.5 150C413.5 149.172 412.828 148.5 412 148.5L412 151.5ZM422 148.5C421.172 148.5 420.5 149.172 420.5 150C420.5 150.828 421.172 151.5 422 151.5L422 148.5ZM432 151.5C432.828 151.5 433.5 150.828 433.5 150C433.5 149.172 432.828 148.5 432 148.5L432 151.5ZM442 148.5C441.172 148.5 440.5 149.172 440.5 150C440.5 150.828 441.172 151.5 442 151.5L442 148.5ZM452 151.5C452.828 151.5 453.5 150.828 453.5 150C453.5 149.172 452.828 148.5 452 148.5L452 151.5ZM462 148.5C461.172 148.5 460.5 149.172 460.5 150C460.5 150.828 461.172 151.5 462 151.5L462 148.5ZM472 151.5C472.828 151.5 473.5 150.828 473.5 150C473.5 149.172 472.828 148.5 472 148.5L472 151.5ZM482 148.5C481.172 148.5 480.5 149.172 480.5 150C480.5 150.828 481.172 151.5 482 151.5L482 148.5ZM492 151.5C492.828 151.5 493.5 150.828 493.5 150C493.5 149.172 492.828 148.5 492 148.5L492 151.5ZM502 148.5C501.172 148.5 500.5 149.172 500.5 150C500.5 150.828 501.172 151.5 502 151.5L502 148.5ZM42 151.5L52 151.5L52 148.5L42 148.5L42 151.5ZM62 151.5L72 151.5L72 148.5L62 148.5L62 151.5ZM82 151.5L92 151.5L92 148.5L82 148.5L82 151.5ZM102 151.5L112 151.5L112 148.5L102 148.5L102 151.5ZM122 151.5L132 151.5L132 148.5L122 148.5L122 151.5ZM142 151.5L152 151.5L152 148.5L142 148.5L142 151.5ZM162 151.5L172 151.5L172 148.5L162 148.5L162 151.5ZM182 151.5L192 151.5L192 148.5L182 148.5L182 151.5ZM202 151.5L212 151.5L212 148.5L202 148.5L202 151.5ZM222 151.5L232 151.5L232 148.5L222 148.5L222 151.5ZM242 151.5L252 151.5L252 148.5L242 148.5L242 151.5ZM262 151.5L272 151.5L272 148.5L262 148.5L262 151.5ZM282 151.5L292 151.5L292 148.5L282 148.5L282 151.5ZM302 151.5L312 151.5L312 148.5L302 148.5L302 151.5ZM322 151.5L332 151.5L332 148.5L322 148.5L322 151.5ZM342 151.5L352 151.5L352 148.5L342 148.5L342 151.5ZM362 151.5L372 151.5L372 148.5L362 148.5L362 151.5ZM382 151.5L392 151.5L392 148.5L382 148.5L382 151.5ZM402 151.5L412 151.5L412 148.5L402 148.5L402 151.5ZM422 151.5L432 151.5L432 148.5L422 148.5L422 151.5ZM442 151.5L452 151.5L452 148.5L442 148.5L442 151.5ZM462 151.5L472 151.5L472 148.5L462 148.5L462 151.5ZM482 151.5L492 151.5L492 148.5L482 148.5L482 151.5ZM502 151.5L507 151.5L507 148.5L502 148.5L502 151.5Z" fill="white"/>
</g>
<g filter="url(#filter5_d_74_2)">
<path d="M271.635 210.101C271.635 209.817 271.69 209.58 271.801 209.388C271.915 209.199 272.063 209.048 272.245 208.934C272.424 208.816 272.626 208.732 272.851 208.68C273.078 208.631 273.308 208.606 273.539 208.606L273.744 208.606C273.972 208.606 274.198 208.631 274.423 208.68C274.647 208.732 274.851 208.816 275.033 208.934C275.212 209.051 275.357 209.204 275.468 209.393C275.582 209.585 275.639 209.821 275.639 210.101C275.639 210.283 275.608 210.452 275.546 210.608C275.484 210.768 275.399 210.905 275.292 211.019C275.185 211.132 275.059 211.222 274.916 211.287C274.776 211.355 274.626 211.391 274.467 211.395L274.467 212.249C274.734 212.249 274.984 212.195 275.219 212.088C275.453 211.98 275.657 211.832 275.829 211.644C275.998 211.451 276.132 211.224 276.229 210.96C276.33 210.7 276.381 210.413 276.381 210.101C276.381 209.7 276.309 209.35 276.166 209.051C276.023 208.751 275.831 208.502 275.59 208.304C275.346 208.102 275.064 207.951 274.745 207.85C274.426 207.749 274.092 207.698 273.744 207.698L273.539 207.698C273.187 207.698 272.852 207.749 272.533 207.85C272.217 207.951 271.939 208.102 271.698 208.304C271.454 208.502 271.26 208.751 271.117 209.051C270.974 209.35 270.902 209.7 270.902 210.101C270.902 210.381 270.95 210.649 271.044 210.906C271.142 211.163 271.272 211.391 271.435 211.59C271.594 211.788 271.78 211.946 271.991 212.063C272.206 212.184 272.431 212.246 272.665 212.249L272.665 211.395C272.519 211.391 272.382 211.352 272.255 211.277C272.131 211.206 272.024 211.11 271.933 210.989C271.838 210.869 271.765 210.73 271.713 210.574C271.661 210.421 271.635 210.263 271.635 210.101ZM276.381 217.317C276.381 216.933 276.296 216.59 276.127 216.287C275.961 215.988 275.733 215.73 275.443 215.516L275.575 215.511L276.283 215.472L276.283 214.612L271 214.612L271 215.521L274.389 215.521C274.551 215.579 274.698 215.652 274.828 215.74C274.962 215.831 275.074 215.937 275.165 216.058C275.269 216.191 275.347 216.347 275.399 216.526C275.455 216.705 275.482 216.906 275.482 217.127C275.482 217.299 275.473 217.464 275.453 217.62C275.437 217.78 275.409 217.947 275.37 218.123L276.254 218.245C276.293 218.154 276.324 218.017 276.347 217.835C276.369 217.656 276.381 217.483 276.381 217.317ZM273.69 219.607L273.583 219.607C273.202 219.607 272.849 219.663 272.523 219.773C272.198 219.884 271.915 220.044 271.674 220.252C271.433 220.457 271.244 220.708 271.107 221.004C270.971 221.303 270.902 221.64 270.902 222.015C270.902 222.386 270.971 222.719 271.107 223.016C271.244 223.312 271.433 223.564 271.674 223.772C271.915 223.978 272.198 224.135 272.523 224.246C272.849 224.357 273.202 224.412 273.583 224.412L273.69 224.412C274.071 224.412 274.424 224.357 274.75 224.246C275.079 224.135 275.364 223.978 275.604 223.772C275.845 223.564 276.034 223.31 276.171 223.011C276.311 222.715 276.381 222.379 276.381 222.005C276.381 221.634 276.311 221.3 276.171 221.004C276.034 220.708 275.845 220.457 275.604 220.252C275.364 220.044 275.079 219.884 274.75 219.773C274.424 219.663 274.071 219.607 273.69 219.607ZM273.583 220.511L273.69 220.511C273.948 220.511 274.193 220.542 274.428 220.604C274.665 220.665 274.874 220.76 275.053 220.887C275.232 221.01 275.373 221.165 275.478 221.351C275.585 221.536 275.639 221.754 275.639 222.005C275.639 222.256 275.585 222.474 275.478 222.659C275.373 222.848 275.232 223.006 275.053 223.133C274.874 223.257 274.665 223.349 274.428 223.411C274.193 223.476 273.948 223.509 273.69 223.509L273.583 223.509C273.323 223.509 273.074 223.478 272.836 223.416C272.602 223.354 272.395 223.261 272.216 223.138C272.037 223.011 271.895 222.853 271.791 222.664C271.687 222.479 271.635 222.262 271.635 222.015C271.635 221.764 271.687 221.544 271.791 221.355C271.895 221.167 272.037 221.01 272.216 220.887C272.395 220.76 272.602 220.665 272.836 220.604C273.074 220.542 273.323 220.511 273.583 220.511ZM272.401 229.378C272.317 229.378 272.237 229.362 272.162 229.329C272.087 229.297 272.019 229.249 271.957 229.187C271.856 229.087 271.776 228.947 271.718 228.768C271.662 228.589 271.635 228.379 271.635 228.138C271.635 227.985 271.651 227.83 271.684 227.674C271.716 227.518 271.771 227.376 271.85 227.249C271.928 227.119 272.03 227.01 272.157 226.922C272.284 226.837 272.44 226.788 272.626 226.775L272.626 225.872C272.401 225.872 272.185 225.923 271.977 226.023C271.768 226.128 271.586 226.277 271.43 226.473C271.27 226.665 271.142 226.901 271.044 227.181C270.95 227.461 270.902 227.78 270.902 228.138C270.902 228.45 270.94 228.738 271.015 229.002C271.09 229.266 271.195 229.492 271.332 229.681C271.469 229.869 271.633 230.016 271.825 230.12C272.017 230.228 272.23 230.281 272.465 230.281C272.683 230.281 272.875 230.234 273.041 230.14C273.207 230.049 273.354 229.915 273.48 229.739C273.604 229.563 273.71 229.347 273.798 229.09C273.889 228.833 273.969 228.541 274.037 228.216C274.086 227.968 274.136 227.763 274.188 227.601C274.241 227.441 274.299 227.314 274.364 227.22C274.429 227.122 274.503 227.054 274.584 227.015C274.665 226.976 274.758 226.956 274.862 226.956C274.963 226.956 275.061 226.98 275.155 227.029C275.25 227.078 275.333 227.151 275.404 227.249C275.476 227.343 275.533 227.462 275.575 227.605C275.618 227.752 275.639 227.921 275.639 228.113C275.639 228.299 275.613 228.465 275.561 228.611C275.508 228.761 275.44 228.888 275.355 228.992C275.271 229.096 275.173 229.178 275.062 229.236C274.955 229.295 274.844 229.324 274.73 229.324L274.73 230.228C274.962 230.228 275.176 230.177 275.375 230.076C275.577 229.979 275.753 229.839 275.902 229.656C276.052 229.474 276.169 229.253 276.254 228.992C276.339 228.732 276.381 228.439 276.381 228.113C276.381 227.811 276.34 227.532 276.259 227.278C276.177 227.028 276.067 226.811 275.927 226.629C275.787 226.447 275.622 226.305 275.434 226.204C275.248 226.103 275.048 226.053 274.833 226.053C274.615 226.053 274.423 226.102 274.257 226.199C274.094 226.297 273.952 226.435 273.832 226.614C273.708 226.79 273.603 227.002 273.515 227.249C273.427 227.5 273.352 227.776 273.29 228.079C273.241 228.326 273.186 228.533 273.124 228.699C273.065 228.865 273 228.999 272.929 229.1C272.857 229.201 272.777 229.272 272.689 229.314C272.605 229.357 272.509 229.378 272.401 229.378ZM272.401 235.384C272.317 235.384 272.237 235.368 272.162 235.335C272.087 235.302 272.019 235.255 271.957 235.193C271.856 235.092 271.776 234.952 271.718 234.773C271.662 234.594 271.635 234.384 271.635 234.144C271.635 233.991 271.651 233.836 271.684 233.68C271.716 233.523 271.771 233.382 271.85 233.255C271.928 233.125 272.03 233.016 272.157 232.928C272.284 232.843 272.44 232.794 272.626 232.781L272.626 231.878C272.401 231.878 272.185 231.928 271.977 232.029C271.768 232.133 271.586 232.283 271.43 232.479C271.27 232.671 271.142 232.907 271.044 233.187C270.95 233.466 270.902 233.785 270.902 234.144C270.902 234.456 270.94 234.744 271.015 235.008C271.09 235.271 271.195 235.498 271.332 235.687C271.469 235.875 271.633 236.022 271.825 236.126C272.017 236.233 272.23 236.287 272.465 236.287C272.683 236.287 272.875 236.24 273.041 236.146C273.207 236.054 273.354 235.921 273.48 235.745C273.604 235.569 273.71 235.353 273.798 235.096C273.889 234.839 273.969 234.547 274.037 234.222C274.086 233.974 274.136 233.769 274.188 233.606C274.241 233.447 274.299 233.32 274.364 233.226C274.429 233.128 274.503 233.06 274.584 233.021C274.665 232.981 274.758 232.962 274.862 232.962C274.963 232.962 275.061 232.986 275.155 233.035C275.25 233.084 275.333 233.157 275.404 233.255C275.476 233.349 275.533 233.468 275.575 233.611C275.618 233.758 275.639 233.927 275.639 234.119C275.639 234.305 275.613 234.471 275.561 234.617C275.508 234.767 275.44 234.894 275.355 234.998C275.271 235.102 275.173 235.184 275.062 235.242C274.955 235.301 274.844 235.33 274.73 235.33L274.73 236.233C274.962 236.233 275.176 236.183 275.375 236.082C275.577 235.984 275.753 235.844 275.902 235.662C276.052 235.48 276.169 235.258 276.254 234.998C276.339 234.738 276.381 234.445 276.381 234.119C276.381 233.816 276.34 233.538 276.259 233.284C276.177 233.034 276.067 232.817 275.927 232.635C275.787 232.452 275.622 232.311 275.434 232.21C275.248 232.109 275.048 232.059 274.833 232.059C274.615 232.059 274.423 232.107 274.257 232.205C274.094 232.303 273.952 232.441 273.832 232.62C273.708 232.796 273.603 233.007 273.515 233.255C273.427 233.506 273.352 233.782 273.29 234.085C273.241 234.332 273.186 234.539 273.124 234.705C273.065 234.871 273 235.005 272.929 235.105C272.857 235.206 272.777 235.278 272.689 235.32C272.605 235.363 272.509 235.384 272.401 235.384ZM271 247.356L271 248.299L271.078 248.299C271.225 248.24 271.396 248.195 271.591 248.162C271.789 248.13 271.977 248.113 272.152 248.113L274.608 248.113C274.905 248.113 275.163 248.06 275.385 247.952C275.606 247.845 275.792 247.698 275.941 247.513C276.088 247.324 276.197 247.101 276.269 246.844C276.343 246.587 276.381 246.308 276.381 246.009C276.381 245.68 276.335 245.385 276.244 245.125C276.153 244.868 276.034 244.65 275.888 244.471C275.738 244.288 275.57 244.148 275.385 244.051C275.199 243.956 275.01 243.908 274.818 243.904L274.818 244.812C274.929 244.812 275.035 244.839 275.136 244.891C275.24 244.946 275.329 245.022 275.404 245.12C275.479 245.218 275.539 245.337 275.585 245.477C275.631 245.62 275.653 245.781 275.653 245.96C275.653 246.152 275.629 246.325 275.58 246.478C275.531 246.634 275.463 246.766 275.375 246.873C275.284 246.98 275.175 247.063 275.048 247.122C274.921 247.181 274.778 247.21 274.618 247.21L274.203 247.21L274.203 246.224C274.203 245.856 274.167 245.522 274.096 245.223C274.024 244.926 273.917 244.673 273.773 244.461C273.627 244.249 273.445 244.085 273.227 243.968C273.008 243.854 272.755 243.797 272.465 243.797C272.243 243.797 272.037 243.839 271.845 243.924C271.656 244.012 271.493 244.135 271.356 244.295C271.216 244.451 271.106 244.642 271.024 244.866C270.943 245.094 270.902 245.348 270.902 245.628C270.902 245.8 270.92 245.963 270.956 246.116C270.992 246.269 271.041 246.414 271.103 246.551C271.164 246.684 271.236 246.806 271.317 246.917C271.399 247.031 271.485 247.133 271.576 247.225C271.465 247.234 271.358 247.249 271.254 247.269C271.153 247.291 271.068 247.321 271 247.356ZM271.688 245.76C271.688 245.584 271.711 245.429 271.757 245.296C271.802 245.162 271.866 245.052 271.947 244.964C272.025 244.876 272.12 244.809 272.23 244.764C272.341 244.721 272.462 244.7 272.592 244.7C272.729 244.7 272.851 244.725 272.958 244.773C273.065 244.826 273.158 244.9 273.236 244.998C273.347 245.135 273.428 245.319 273.48 245.55C273.536 245.784 273.563 246.058 273.563 246.37L273.563 247.21L272.494 247.21C272.39 247.158 272.289 247.086 272.191 246.995C272.097 246.904 272.012 246.797 271.937 246.673C271.863 246.546 271.802 246.406 271.757 246.253C271.711 246.1 271.688 245.936 271.688 245.76ZM274.325 252.073L276.283 250.677L276.283 249.632L273.671 251.6L271 249.578L271 250.633L273.012 252.093L271 253.553L271 254.598L273.671 252.576L276.283 254.544L276.283 253.484L274.325 252.073ZM276.283 256.038L275.497 256.038L275.497 257.835L271.781 257.835L271.781 256.038L271 256.038L271 260.462L271.781 260.462L271.781 258.738L276.283 258.738L276.283 256.038ZM277.67 257.718C277.523 257.718 277.401 257.762 277.304 257.85C277.206 257.941 277.157 258.077 277.157 258.26C277.157 258.439 277.206 258.574 277.304 258.665C277.401 258.756 277.523 258.802 277.67 258.802C277.751 258.802 277.826 258.789 277.895 258.763C277.963 258.737 278.02 258.698 278.065 258.646C278.108 258.603 278.14 258.549 278.163 258.484C278.189 258.419 278.202 258.344 278.202 258.26C278.202 258.175 278.189 258.099 278.163 258.03C278.14 257.965 278.108 257.911 278.065 257.869C278.017 257.817 277.958 257.778 277.89 257.752C277.821 257.729 277.748 257.718 277.67 257.718ZM272.401 265.413C272.317 265.413 272.237 265.397 272.162 265.364C272.087 265.332 272.019 265.285 271.957 265.223C271.856 265.122 271.776 264.982 271.718 264.803C271.662 264.624 271.635 264.414 271.635 264.173C271.635 264.02 271.651 263.865 271.684 263.709C271.716 263.553 271.771 263.411 271.85 263.284C271.928 263.154 272.03 263.045 272.157 262.957C272.284 262.872 272.44 262.824 272.626 262.811L272.626 261.907C272.401 261.907 272.185 261.958 271.977 262.059C271.768 262.163 271.586 262.312 271.43 262.508C271.27 262.7 271.142 262.936 271.044 263.216C270.95 263.496 270.902 263.815 270.902 264.173C270.902 264.485 270.94 264.773 271.015 265.037C271.09 265.301 271.195 265.527 271.332 265.716C271.469 265.905 271.633 266.051 271.825 266.155C272.017 266.263 272.23 266.316 272.465 266.316C272.683 266.316 272.875 266.269 273.041 266.175C273.207 266.084 273.354 265.95 273.48 265.774C273.604 265.599 273.71 265.382 273.798 265.125C273.889 264.868 273.969 264.576 274.037 264.251C274.086 264.004 274.136 263.799 274.188 263.636C274.241 263.476 274.299 263.349 274.364 263.255C274.429 263.157 274.503 263.089 274.584 263.05C274.665 263.011 274.758 262.991 274.862 262.991C274.963 262.991 275.061 263.016 275.155 263.064C275.25 263.113 275.333 263.187 275.404 263.284C275.476 263.379 275.533 263.497 275.575 263.641C275.618 263.787 275.639 263.956 275.639 264.148C275.639 264.334 275.613 264.5 275.561 264.646C275.508 264.796 275.44 264.923 275.355 265.027C275.271 265.132 275.173 265.213 275.062 265.271C274.955 265.33 274.844 265.359 274.73 265.359L274.73 266.263C274.962 266.263 275.176 266.212 275.375 266.111C275.577 266.014 275.753 265.874 275.902 265.691C276.052 265.509 276.169 265.288 276.254 265.027C276.339 264.767 276.381 264.474 276.381 264.148C276.381 263.846 276.34 263.567 276.259 263.313C276.177 263.063 276.067 262.846 275.927 262.664C275.787 262.482 275.622 262.34 275.434 262.239C275.248 262.138 275.048 262.088 274.833 262.088C274.615 262.088 274.423 262.137 274.257 262.234C274.094 262.332 273.952 262.47 273.832 262.649C273.708 262.825 273.603 263.037 273.515 263.284C273.427 263.535 273.352 263.812 273.29 264.114C273.241 264.362 273.186 264.568 273.124 264.734C273.065 264.9 273 265.034 272.929 265.135C272.857 265.236 272.777 265.307 272.689 265.35C272.605 265.392 272.509 265.413 272.401 265.413Z" fill="white"/>
</g>
<g filter="url(#filter6_d_74_2)">
<path d="M49.2646 137.717H48.4541V143H49.3135V138.796C49.333 138.744 49.3574 138.695 49.3867 138.649C49.4193 138.604 49.4567 138.563 49.499 138.527C49.5544 138.482 49.6211 138.448 49.6992 138.425C49.7806 138.399 49.875 138.386 49.9824 138.386C50.0801 138.386 50.1647 138.399 50.2363 138.425C50.3112 138.448 50.373 138.485 50.4219 138.537C50.474 138.592 50.5114 138.662 50.5342 138.747C50.5602 138.832 50.5732 138.929 50.5732 139.04V143H51.4326V139.045C51.4326 139.025 51.4326 139.009 51.4326 138.996C51.4326 138.98 51.4326 138.964 51.4326 138.947C51.4424 138.866 51.4619 138.793 51.4912 138.728C51.5205 138.659 51.5612 138.599 51.6133 138.547C51.6654 138.498 51.7305 138.459 51.8086 138.43C51.8867 138.4 51.9795 138.386 52.0869 138.386C52.1878 138.386 52.2757 138.399 52.3506 138.425C52.4287 138.451 52.4938 138.49 52.5459 138.542C52.5947 138.597 52.6322 138.667 52.6582 138.752C52.6842 138.837 52.6973 138.934 52.6973 139.045V143H53.5566V139.055C53.5566 138.801 53.5273 138.581 53.4688 138.396C53.4102 138.207 53.3255 138.054 53.2148 137.937C53.1139 137.832 52.9902 137.754 52.8438 137.702C52.6973 137.647 52.5329 137.619 52.3506 137.619C52.2171 137.622 52.0934 137.64 51.9795 137.673C51.8688 137.705 51.7679 137.749 51.6768 137.805C51.6051 137.854 51.5384 137.91 51.4766 137.976C51.4147 138.041 51.361 138.111 51.3154 138.186C51.2796 138.104 51.2357 138.031 51.1836 137.966C51.1348 137.901 51.0794 137.845 51.0176 137.8C50.9329 137.741 50.8337 137.697 50.7197 137.668C50.609 137.635 50.4837 137.619 50.3438 137.619C50.0964 137.622 49.8848 137.676 49.709 137.78C49.5365 137.884 49.3965 138.029 49.2891 138.215L49.2646 137.717ZM58.3271 143H59.2695V142.922C59.2109 142.775 59.1654 142.604 59.1328 142.409C59.1003 142.211 59.084 142.023 59.084 141.848V139.392C59.084 139.095 59.0303 138.837 58.9229 138.615C58.8154 138.394 58.6689 138.208 58.4834 138.059C58.2946 137.912 58.0716 137.803 57.8145 137.731C57.5573 137.657 57.279 137.619 56.9795 137.619C56.6507 137.619 56.3561 137.665 56.0957 137.756C55.8385 137.847 55.6204 137.966 55.4414 138.112C55.2591 138.262 55.1191 138.43 55.0215 138.615C54.9271 138.801 54.8783 138.99 54.875 139.182H55.7832C55.7832 139.071 55.8092 138.965 55.8613 138.864C55.9167 138.76 55.9932 138.671 56.0908 138.596C56.1885 138.521 56.3073 138.461 56.4473 138.415C56.5905 138.369 56.7516 138.347 56.9307 138.347C57.1227 138.347 57.2952 138.371 57.4482 138.42C57.6045 138.469 57.7363 138.537 57.8438 138.625C57.9512 138.716 58.0342 138.825 58.0928 138.952C58.1514 139.079 58.1807 139.222 58.1807 139.382V139.797H57.1943C56.8265 139.797 56.4928 139.833 56.1934 139.904C55.8971 139.976 55.6432 140.083 55.4316 140.227C55.2201 140.373 55.0557 140.555 54.9385 140.773C54.8245 140.992 54.7676 141.245 54.7676 141.535C54.7676 141.757 54.8099 141.963 54.8945 142.155C54.9824 142.344 55.1061 142.507 55.2656 142.644C55.4219 142.784 55.6123 142.894 55.8369 142.976C56.0648 143.057 56.3187 143.098 56.5986 143.098C56.7712 143.098 56.9339 143.08 57.0869 143.044C57.2399 143.008 57.3848 142.959 57.5215 142.897C57.6549 142.836 57.777 142.764 57.8877 142.683C58.0016 142.601 58.1042 142.515 58.1953 142.424C58.2051 142.535 58.2197 142.642 58.2393 142.746C58.262 142.847 58.2913 142.932 58.3271 143ZM56.7305 142.312C56.5547 142.312 56.4001 142.289 56.2666 142.243C56.1331 142.198 56.0225 142.134 55.9346 142.053C55.8467 141.975 55.7799 141.88 55.7344 141.77C55.6921 141.659 55.6709 141.538 55.6709 141.408C55.6709 141.271 55.6953 141.149 55.7441 141.042C55.7962 140.935 55.8711 140.842 55.9688 140.764C56.1055 140.653 56.2894 140.572 56.5205 140.52C56.7549 140.464 57.0283 140.437 57.3408 140.437H58.1807V141.506C58.1286 141.61 58.057 141.711 57.9658 141.809C57.8747 141.903 57.7673 141.988 57.6436 142.062C57.5166 142.137 57.3766 142.198 57.2236 142.243C57.0706 142.289 56.9062 142.312 56.7305 142.312ZM61.0029 137.717V138.503H62.7998V142.219H61.0029V143H65.4268V142.219H63.7031V137.717H61.0029ZM62.6826 136.33C62.6826 136.477 62.7266 136.599 62.8145 136.696C62.9056 136.794 63.0423 136.843 63.2246 136.843C63.4036 136.843 63.5387 136.794 63.6299 136.696C63.721 136.599 63.7666 136.477 63.7666 136.33C63.7666 136.249 63.7536 136.174 63.7275 136.105C63.7015 136.037 63.6624 135.98 63.6104 135.935C63.568 135.892 63.5143 135.86 63.4492 135.837C63.3841 135.811 63.3092 135.798 63.2246 135.798C63.14 135.798 63.0635 135.811 62.9951 135.837C62.93 135.86 62.8763 135.892 62.834 135.935C62.7819 135.983 62.7428 136.042 62.7168 136.11C62.694 136.179 62.6826 136.252 62.6826 136.33ZM66.8672 143H67.7705V139.211C67.8324 139.097 67.904 138.993 67.9854 138.898C68.07 138.804 68.1611 138.721 68.2588 138.649C68.3792 138.568 68.5111 138.505 68.6543 138.459C68.7975 138.41 68.9521 138.386 69.1182 138.386C69.3102 138.386 69.4795 138.409 69.626 138.454C69.7757 138.5 69.9027 138.573 70.0068 138.674C70.1077 138.775 70.1842 138.907 70.2363 139.069C70.2884 139.232 70.3145 139.431 70.3145 139.665V143H71.2178V139.646C71.2178 139.294 71.1738 138.991 71.0859 138.737C71.0013 138.48 70.8792 138.269 70.7197 138.103C70.5602 137.937 70.3665 137.814 70.1387 137.736C69.9141 137.658 69.6634 137.619 69.3867 137.619C69.1816 137.622 68.9863 137.653 68.8008 137.712C68.6185 137.767 68.4492 137.847 68.293 137.951C68.1888 138.02 68.0895 138.101 67.9951 138.195C67.904 138.286 67.8193 138.387 67.7412 138.498L67.6777 137.717H66.8672V143ZM82.3506 143H83.293V142.922C83.2344 142.775 83.1888 142.604 83.1562 142.409C83.1237 142.211 83.1074 142.023 83.1074 141.848V139.392C83.1074 139.095 83.0537 138.837 82.9463 138.615C82.8389 138.394 82.6924 138.208 82.5068 138.059C82.318 137.912 82.0951 137.803 81.8379 137.731C81.5807 137.657 81.3024 137.619 81.0029 137.619C80.6742 137.619 80.3796 137.665 80.1191 137.756C79.862 137.847 79.6439 137.966 79.4648 138.112C79.2826 138.262 79.1426 138.43 79.0449 138.615C78.9505 138.801 78.9017 138.99 78.8984 139.182H79.8066C79.8066 139.071 79.8327 138.965 79.8848 138.864C79.9401 138.76 80.0166 138.671 80.1143 138.596C80.2119 138.521 80.3307 138.461 80.4707 138.415C80.6139 138.369 80.7751 138.347 80.9541 138.347C81.1462 138.347 81.3187 138.371 81.4717 138.42C81.6279 138.469 81.7598 138.537 81.8672 138.625C81.9746 138.716 82.0576 138.825 82.1162 138.952C82.1748 139.079 82.2041 139.222 82.2041 139.382V139.797H81.2178C80.8499 139.797 80.5163 139.833 80.2168 139.904C79.9206 139.976 79.6667 140.083 79.4551 140.227C79.2435 140.373 79.0791 140.555 78.9619 140.773C78.848 140.992 78.791 141.245 78.791 141.535C78.791 141.757 78.8333 141.963 78.918 142.155C79.0059 142.344 79.1296 142.507 79.2891 142.644C79.4453 142.784 79.6357 142.894 79.8604 142.976C80.0882 143.057 80.3421 143.098 80.6221 143.098C80.7946 143.098 80.9574 143.08 81.1104 143.044C81.2633 143.008 81.4082 142.959 81.5449 142.897C81.6784 142.836 81.8005 142.764 81.9111 142.683C82.0251 142.601 82.1276 142.515 82.2188 142.424C82.2285 142.535 82.2432 142.642 82.2627 142.746C82.2855 142.847 82.3148 142.932 82.3506 143ZM80.7539 142.312C80.5781 142.312 80.4235 142.289 80.29 142.243C80.1566 142.198 80.0459 142.134 79.958 142.053C79.8701 141.975 79.8034 141.88 79.7578 141.77C79.7155 141.659 79.6943 141.538 79.6943 141.408C79.6943 141.271 79.7188 141.149 79.7676 141.042C79.8197 140.935 79.8945 140.842 79.9922 140.764C80.1289 140.653 80.3128 140.572 80.5439 140.52C80.7783 140.464 81.0518 140.437 81.3643 140.437H82.2041V141.506C82.152 141.61 82.0804 141.711 81.9893 141.809C81.8981 141.903 81.7907 141.988 81.667 142.062C81.54 142.137 81.4001 142.198 81.2471 142.243C81.0941 142.289 80.9297 142.312 80.7539 142.312ZM87.0674 139.675L85.6709 137.717H84.626L86.5938 140.329L84.5723 143H85.627L87.0869 140.988L88.5469 143H89.5918L87.5703 140.329L89.5381 137.717H88.4785L87.0674 139.675ZM91.0322 137.717V138.503H92.8291V142.219H91.0322V143H95.4561V142.219H93.7324V137.717H91.0322ZM92.7119 136.33C92.7119 136.477 92.7559 136.599 92.8438 136.696C92.9349 136.794 93.0716 136.843 93.2539 136.843C93.4329 136.843 93.568 136.794 93.6592 136.696C93.7503 136.599 93.7959 136.477 93.7959 136.33C93.7959 136.249 93.7829 136.174 93.7568 136.105C93.7308 136.037 93.6917 135.98 93.6396 135.935C93.5973 135.892 93.5436 135.86 93.4785 135.837C93.4134 135.811 93.3385 135.798 93.2539 135.798C93.1693 135.798 93.0928 135.811 93.0244 135.837C92.9593 135.86 92.9056 135.892 92.8633 135.935C92.8112 135.983 92.7721 136.042 92.7461 136.11C92.7233 136.179 92.7119 136.252 92.7119 136.33ZM100.407 141.599C100.407 141.683 100.391 141.763 100.358 141.838C100.326 141.913 100.279 141.981 100.217 142.043C100.116 142.144 99.9759 142.224 99.7969 142.282C99.6178 142.338 99.4079 142.365 99.167 142.365C99.014 142.365 98.8594 142.349 98.7031 142.316C98.5469 142.284 98.4053 142.229 98.2783 142.15C98.1481 142.072 98.0391 141.97 97.9512 141.843C97.8665 141.716 97.8177 141.56 97.8047 141.374H96.9014C96.9014 141.599 96.9518 141.815 97.0527 142.023C97.1569 142.232 97.3066 142.414 97.502 142.57C97.694 142.73 97.93 142.858 98.21 142.956C98.4899 143.05 98.8089 143.098 99.167 143.098C99.4795 143.098 99.7676 143.06 100.031 142.985C100.295 142.91 100.521 142.805 100.71 142.668C100.899 142.531 101.045 142.367 101.149 142.175C101.257 141.983 101.311 141.77 101.311 141.535C101.311 141.317 101.263 141.125 101.169 140.959C101.078 140.793 100.944 140.646 100.769 140.52C100.593 140.396 100.376 140.29 100.119 140.202C99.862 140.111 99.5706 140.031 99.2451 139.963C98.9977 139.914 98.7926 139.864 98.6299 139.812C98.4704 139.759 98.3434 139.701 98.249 139.636C98.1514 139.571 98.083 139.497 98.0439 139.416C98.0049 139.335 97.9854 139.242 97.9854 139.138C97.9854 139.037 98.0098 138.939 98.0586 138.845C98.1074 138.75 98.1807 138.667 98.2783 138.596C98.3727 138.524 98.4915 138.467 98.6348 138.425C98.7812 138.382 98.9505 138.361 99.1426 138.361C99.3281 138.361 99.4941 138.387 99.6406 138.439C99.7904 138.492 99.9173 138.56 100.021 138.645C100.126 138.729 100.207 138.827 100.266 138.938C100.324 139.045 100.354 139.156 100.354 139.27H101.257C101.257 139.038 101.206 138.824 101.105 138.625C101.008 138.423 100.868 138.247 100.686 138.098C100.503 137.948 100.282 137.831 100.021 137.746C99.7611 137.661 99.4681 137.619 99.1426 137.619C98.8398 137.619 98.5615 137.66 98.3076 137.741C98.057 137.823 97.8405 137.933 97.6582 138.073C97.4759 138.213 97.3343 138.378 97.2334 138.566C97.1325 138.752 97.082 138.952 97.082 139.167C97.082 139.385 97.1309 139.577 97.2285 139.743C97.3262 139.906 97.4645 140.048 97.6436 140.168C97.8193 140.292 98.0309 140.397 98.2783 140.485C98.529 140.573 98.8057 140.648 99.1084 140.71C99.3558 140.759 99.5625 140.814 99.7285 140.876C99.8945 140.935 100.028 141 100.129 141.071C100.23 141.143 100.301 141.223 100.344 141.311C100.386 141.395 100.407 141.491 100.407 141.599Z" fill="white"/>
</g>
<defs>
<filter id="filter0_dii_74_2" x="0" y="-5" width="522" height="325" filterUnits="userSpaceOnUse" color-interpolation-filters="sRGB">
<feFlood flood-opacity="0" result="BackgroundImageFix"/>
<feColorMatrix in="SourceAlpha" type="matrix" values="0 0 0 0 0 0 0 0 0 0 0 0 0 0 0 0 0 0 127 0" result="hardAlpha"/>
<feOffset dx="-6" dy="12"/>
<feGaussianBlur stdDeviation="4"/>
<feComposite in2="hardAlpha" operator="out"/>
<feColorMatrix type="matrix" values="0 0 0 0 0.00875913 0 0 0 0 0.0912409 0 0 0 0 0.0846715 0 0 0 1 0"/>
<feBlend mode="normal" in2="BackgroundImageFix" result="effect1_dropShadow_74_2"/>
<feBlend mode="normal" in="SourceGraphic" in2="effect1_dropShadow_74_2" result="shape"/>
<feColorMatrix in="SourceAlpha" type="matrix" values="0 0 0 0 0 0 0 0 0 0 0 0 0 0 0 0 0 0 127 0" result="hardAlpha"/>
<feOffset dx="10" dy="-5"/>
<feGaussianBlur stdDeviation="4"/>
<feComposite in2="hardAlpha" operator="arithmetic" k2="-1" k3="1"/>
<feColorMatrix type="matrix" values="0 0 0 0 0.0175183 0 0 0 0 0.182482 0 0 0 0 0.169343 0 0 0 0.04 0"/>
<feBlend mode="normal" in2="shape" result="effect2_innerShadow_74_2"/>
<feColorMatrix in="SourceAlpha" type="matrix" values="0 0 0 0 0 0 0 0 0 0 0 0 0 0 0 0 0 0 127 0" result="hardAlpha"/>
<feOffset dx="-5" dy="8"/>
<feGaussianBlur stdDeviation="1.5"/>
<feComposite in2="hardAlpha" operator="arithmetic" k2="-1" k3="1"/>
<feColorMatrix type="matrix" values="0 0 0 0 0.0175183 0 0 0 0 0.182482 0 0 0 0 0.169343 0 0 0 0.2 0"/>
<feBlend mode="normal" in2="effect2_innerShadow_74_2" result="effect3_innerShadow_74_2"/>
</filter>
<filter id="filter1_dii_74_2" x="139" y="18" width="177" height="90" filterUnits="userSpaceOnUse" color-interpolation-filters="sRGB">
<feFlood flood-opacity="0" result="BackgroundImageFix"/>
<feColorMatrix in="SourceAlpha" type="matrix" values="0 0 0 0 0 0 0 0 0 0 0 0 0 0 0 0 0 0 127 0" result="hardAlpha"/>
<feOffset dx="-3" dy="6"/>
<feGaussianBlur stdDeviation="1"/>
<feComposite in2="hardAlpha" operator="out"/>
<feColorMatrix type="matrix" values="0 0 0 0 0.0175183 0 0 0 0 0.182482 0 0 0 0 0.169343 0 0 0 0.22 0"/>
<feBlend mode="normal" in2="BackgroundImageFix" result="effect1_dropShadow_74_2"/>
<feBlend mode="normal" in="SourceGraphic" in2="effect1_dropShadow_74_2" result="shape"/>
<feColorMatrix in="SourceAlpha" type="matrix" values="0 0 0 0 0 0 0 0 0 0 0 0 0 0 0 0 0 0 127 0" result="hardAlpha"/>
<feOffset dx="-3" dy="3"/>
<feGaussianBlur stdDeviation="0.5"/>
<feComposite in2="hardAlpha" operator="arithmetic" k2="-1" k3="1"/>
<feColorMatrix type="matrix" values="0 0 0 0 1 0 0 0 0 0.784 0 0 0 0 0.32 0 0 0 1 0"/>
<feBlend mode="normal" in2="shape" result="effect2_innerShadow_74_2"/>
<feColorMatrix in="SourceAlpha" type="matrix" values="0 0 0 0 0 0 0 0 0 0 0 0 0 0 0 0 0 0 127 0" result="hardAlpha"/>
<feOffset dx="3" dy="-3"/>
<feGaussianBlur stdDeviation="1"/>
<feComposite in2="hardAlpha" operator="arithmetic" k2="-1" k3="1"/>
<feColorMatrix type="matrix" values="0 0 0 0 0.66 0 0 0 0 0.450353 0 0 0 0 0 0 0 0 0.33 0"/>
<feBlend mode="normal" in2="effect2_innerShadow_74_2" result="effect3_innerShadow_74_2"/>
</filter>
<filter id="filter2_dii_74_2" x="319" y="18" width="177" height="90" filterUnits="userSpaceOnUse" color-interpolation-filters="sRGB">
<feFlood flood-opacity="0" result="BackgroundImageFix"/>
<feColorMatrix in="SourceAlpha" type="matrix" values="0 0 0 0 0 0 0 0 0 0 0 0 0 0 0 0 0 0 127 0" result="hardAlpha"/>
<feOffset dx="-3" dy="6"/>
<feGaussianBlur stdDeviation="1"/>
<feComposite in2="hardAlpha" operator="out"/>
<feColorMatrix type="matrix" values="0 0 0 0 0.0175183 0 0 0 0 0.182482 0 0 0 0 0.169343 0 0 0 0.22 0"/>
<feBlend mode="normal" in2="BackgroundImageFix" result="effect1_dropShadow_74_2"/>
<feBlend mode="normal" in="SourceGraphic" in2="effect1_dropShadow_74_2" result="shape"/>
<feColorMatrix in="SourceAlpha" type="matrix" values="0 0 0 0 0 0 0 0 0 0 0 0 0 0 0 0 0 0 127 0" result="hardAlpha"/>
<feOffset dx="-3" dy="3"/>
<feGaussianBlur stdDeviation="0.5"/>
<feComposite in2="hardAlpha" operator="arithmetic" k2="-1" k3="1"/>
<feColorMatrix type="matrix" values="0 0 0 0 1 0 0 0 0 0.784 0 0 0 0 0.32 0 0 0 1 0"/>
<feBlend mode="normal" in2="shape" result="effect2_innerShadow_74_2"/>
<feColorMatrix in="SourceAlpha" type="matrix" values="0 0 0 0 0 0 0 0 0 0 0 0 0 0 0 0 0 0 127 0" result="hardAlpha"/>
<feOffset dx="3" dy="-3"/>
<feGaussianBlur stdDeviation="1"/>
<feComposite in2="hardAlpha" operator="arithmetic" k2="-1" k3="1"/>
<feColorMatrix type="matrix" values="0 0 0 0 0.66 0 0 0 0 0.450353 0 0 0 0 0 0 0 0 0.33 0"/>
<feBlend mode="normal" in2="effect2_innerShadow_74_2" result="effect3_innerShadow_74_2"/>
</filter>
<filter id="filter3_d_74_2" x="251.34" y="7" width="25.3206" height="288" filterUnits="userSpaceOnUse" color-interpolation-filters="sRGB">
<feFlood flood-opacity="0" result="BackgroundImageFix"/>
<feColorMatrix in="SourceAlpha" type="matrix" values="0 0 0 0 0 0 0 0 0 0 0 0 0 0 0 0 0 0 127 0" result="hardAlpha"/>
<feOffset dy="4"/>
<feGaussianBlur stdDeviation="2"/>
<feComposite in2="hardAlpha" operator="out"/>
<feColorMatrix type="matrix" values="0 0 0 0 0 0 0 0 0 0 0 0 0 0 0 0 0 0 0.25 0"/>
<feBlend mode="normal" in2="BackgroundImageFix" result="effect1_dropShadow_74_2"/>
<feBlend mode="normal" in="SourceGraphic" in2="effect1_dropShadow_74_2" result="shape"/>
</filter>
<filter id="filter4_d_74_2" x="23" y="141.34" width="488" height="25.3206" filterUnits="userSpaceOnUse" color-interpolation-filters="sRGB">
<feFlood flood-opacity="0" result="BackgroundImageFix"/>
<feColorMatrix in="SourceAlpha" type="matrix" values="0 0 0 0 0 0 0 0 0 0 0 0 0 0 0 0 0 0 127 0" result="hardAlpha"/>
<feOffset dy="4"/>
<feGaussianBlur stdDeviation="2"/>
<feComposite in2="hardAlpha" operator="out"/>
<feColorMatrix type="matrix" values="0 0 0 0 0 0 0 0 0 0 0 0 0 0 0 0 0 0 0.25 0"/>
<feBlend mode="normal" in2="BackgroundImageFix" result="effect1_dropShadow_74_2"/>
<feBlend mode="normal" in="SourceGraphic" in2="effect1_dropShadow_74_2" result="shape"/>
</filter>
<filter id="filter5_d_74_2" x="266.902" y="207.698" width="15.2998" height="66.6182" filterUnits="userSpaceOnUse" color-interpolation-filters="sRGB">
<feFlood flood-opacity="0" result="BackgroundImageFix"/>
<feColorMatrix in="SourceAlpha" type="matrix" values="0 0 0 0 0 0 0 0 0 0 0 0 0 0 0 0 0 0 127 0" result="hardAlpha"/>
<feOffset dy="4"/>
<feGaussianBlur stdDeviation="2"/>
<feComposite in2="hardAlpha" operator="out"/>
<feColorMatrix type="matrix" values="0 0 0 0 0 0 0 0 0 0 0 0 0 0 0 0 0 0 0.25 0"/>
<feBlend mode="normal" in2="BackgroundImageFix" result="effect1_dropShadow_74_2"/>
<feBlend mode="normal" in="SourceGraphic" in2="effect1_dropShadow_74_2" result="shape"/>
</filter>
<filter id="filter6_d_74_2" x="44.4541" y="135.798" width="60.8564" height="15.2998" filterUnits="userSpaceOnUse" color-interpolation-filters="sRGB">
<feFlood flood-opacity="0" result="BackgroundImageFix"/>
<feColorMatrix in="SourceAlpha" type="matrix" values="0 0 0 0 0 0 0 0 0 0 0 0 0 0 0 0 0 0 127 0" result="hardAlpha"/>
<feOffset dy="4"/>
<feGaussianBlur stdDeviation="2"/>
<feComposite in2="hardAlpha" operator="out"/>
<feColorMatrix type="matrix" values="0 0 0 0 0 0 0 0 0 0 0 0 0 0 0 0 0 0 0.25 0"/>
<feBlend mode="normal" in2="BackgroundImageFix" result="effect1_dropShadow_74_2"/>
<feBlend mode="normal" in="SourceGraphic" in2="effect1_dropShadow_74_2" result="shape"/>
</filter>
</defs>
</svg>
