<svg width="516" height="320" viewBox="0 0 516 320" fill="none" xmlns="http://www.w3.org/2000/svg">
<g filter="url(#filter0_dii_75_11)">
<rect x="14" width="500" height="300" rx="6" fill="#0C7D74"/>
<rect x="14.5" y="0.5" width="499" height="299" rx="5.5" stroke="#053834"/>
</g>
<g filter="url(#filter1_dii_75_11)">
<rect x="34" y="110" width="170" height="80" rx="6" fill="#FFAE00"/>
<rect x="34.25" y="110.25" width="169.5" height="79.5" rx="5.75" stroke="#704D00" stroke-width="0.5"/>
</g>
<g filter="url(#filter2_dii_75_11)">
<rect x="34" y="200" width="170" height="80" rx="6" fill="#FFAE00"/>
<rect x="34.25" y="200.25" width="169.5" height="79.5" rx="5.75" stroke="#704D00" stroke-width="0.5"/>
</g>
<g filter="url(#filter3_d_75_11)">
<path d="M264 13L255.34 28L272.66 28L264 13ZM262.5 18C262.5 18.8284 263.172 19.5 264 19.5C264.828 19.5 265.5 18.8284 265.5 18L262.5 18ZM265.5 28C265.5 27.1716 264.828 26.5 264 26.5C263.172 26.5 262.5 27.1716 262.5 28L265.5 28ZM262.5 38C262.5 38.8284 263.172 39.5 264 39.5C264.828 39.5 265.5 38.8284 265.5 38L262.5 38ZM265.5 48C265.5 47.1716 264.828 46.5 264 46.5C263.172 46.5 262.5 47.1716 262.5 48L265.5 48ZM262.5 58C262.5 58.8284 263.172 59.5 264 59.5C264.828 59.5 265.5 58.8284 265.5 58L262.5 58ZM265.5 68C265.5 67.1716 264.828 66.5 264 66.5C263.172 66.5 262.5 67.1716 262.5 68L265.5 68ZM262.5 78C262.5 78.8284 263.172 79.5 264 79.5C264.828 79.5 265.5 78.8284 265.5 78L262.5 78ZM265.5 88C265.5 87.1716 264.828 86.5 264 86.5C263.172 86.5 262.5 87.1716 262.5 88L265.5 88ZM262.5 98C262.5 98.8284 263.172 99.5 264 99.5C264.828 99.5 265.5 98.8284 265.5 98L262.5 98ZM265.5 108C265.5 107.172 264.828 106.5 264 106.5C263.172 106.5 262.5 107.172 262.5 108L265.5 108ZM262.5 118C262.5 118.828 263.172 119.5 264 119.5C264.828 119.5 265.5 118.828 265.5 118L262.5 118ZM265.5 128C265.5 127.172 264.828 126.5 264 126.5C263.172 126.5 262.5 127.172 262.5 128L265.5 128ZM262.5 138C262.5 138.828 263.172 139.5 264 139.5C264.828 139.5 265.5 138.828 265.5 138L262.5 138ZM265.5 148C265.5 147.172 264.828 146.5 264 146.5C263.172 146.5 262.5 147.172 262.5 148L265.5 148ZM262.5 158C262.5 158.828 263.172 159.5 264 159.5C264.828 159.5 265.5 158.828 265.5 158L262.5 158ZM265.5 168C265.5 167.172 264.828 166.5 264 166.5C263.172 166.5 262.5 167.172 262.5 168L265.5 168ZM262.5 178C262.5 178.828 263.172 179.5 264 179.5C264.828 179.5 265.5 178.828 265.5 178L262.5 178ZM265.5 188C265.5 187.172 264.828 186.5 264 186.5C263.172 186.5 262.5 187.172 262.5 188L265.5 188ZM262.5 198C262.5 198.828 263.172 199.5 264 199.5C264.828 199.5 265.5 198.828 265.5 198L262.5 198ZM265.5 208C265.5 207.172 264.828 206.5 264 206.5C263.172 206.5 262.5 207.172 262.5 208L265.5 208ZM262.5 218C262.5 218.828 263.172 219.5 264 219.5C264.828 219.5 265.5 218.828 265.5 218L262.5 218ZM265.5 228C265.5 227.172 264.828 226.5 264 226.5C263.172 226.5 262.5 227.172 262.5 228L265.5 228ZM262.5 238C262.5 238.828 263.172 239.5 264 239.5C264.828 239.5 265.5 238.828 265.5 238L262.5 238ZM265.5 248C265.5 247.172 264.828 246.5 264 246.5C263.172 246.5 262.5 247.172 262.5 248L265.5 248ZM262.5 258C262.5 258.828 263.172 259.5 264 259.5C264.828 259.5 265.5 258.828 265.5 258L262.5 258ZM265.5 268C265.5 267.172 264.828 266.5 264 266.5C263.172 266.5 262.5 267.172 262.5 268L265.5 268ZM262.5 278C262.5 278.828 263.172 279.5 264 279.5C264.828 279.5 265.5 278.828 265.5 278L262.5 278ZM265.5 288C265.5 287.172 264.828 286.5 264 286.5C263.172 286.5 262.5 287.172 262.5 288L265.5 288ZM262.5 28L262.5 38L265.5 38L265.5 28L262.5 28ZM262.5 48L262.5 58L265.5 58L265.5 48L262.5 48ZM262.5 68L262.5 78L265.5 78L265.5 68L262.5 68ZM262.5 88L262.5 98L265.5 98L265.5 88L262.5 88ZM262.5 108L262.5 118L265.5 118L265.5 108L262.5 108ZM262.5 128L262.5 138L265.5 138L265.5 128L262.5 128ZM262.5 148L262.5 158L265.5 158L265.5 148L262.5 148ZM262.5 168L262.5 178L265.5 178L265.5 168L262.5 168ZM262.5 188L262.5 198L265.5 198L265.5 188L262.5 188ZM262.5 208L262.5 218L265.5 218L265.5 208L262.5 208ZM262.5 228L262.5 238L265.5 238L265.5 228L262.5 228ZM262.5 248L262.5 258L265.5 258L265.5 248L262.5 248ZM262.5 268L262.5 278L265.5 278L265.5 268L262.5 268ZM262.5 288L262.5 293L265.5 293L265.5 288L262.5 288Z" fill="white"/>
</g>
<g filter="url(#filter4_d_75_11)">
<path d="M501 150L486 141.34L486 158.66L501 150ZM26 151.5C26.8284 151.5 27.5 150.828 27.5 150C27.5 149.172 26.8284 148.5 26 148.5L26 151.5ZM36 148.5C35.1716 148.5 34.5 149.172 34.5 150C34.5 150.828 35.1716 151.5 36 151.5L36 148.5ZM46 151.5C46.8284 151.5 47.5 150.828 47.5 150C47.5 149.172 46.8284 148.5 46 148.5L46 151.5ZM56 148.5C55.1716 148.5 54.5 149.172 54.5 150C54.5 150.828 55.1716 151.5 56 151.5L56 148.5ZM66 151.5C66.8284 151.5 67.5 150.828 67.5 150C67.5 149.172 66.8284 148.5 66 148.5L66 151.5ZM76 148.5C75.1716 148.5 74.5 149.172 74.5 150C74.5 150.828 75.1716 151.5 76 151.5L76 148.5ZM86 151.5C86.8284 151.5 87.5 150.828 87.5 150C87.5 149.172 86.8284 148.5 86 148.5L86 151.5ZM96 148.5C95.1716 148.5 94.5 149.172 94.5 150C94.5 150.828 95.1716 151.5 96 151.5L96 148.5ZM106 151.5C106.828 151.5 107.5 150.828 107.5 150C107.5 149.172 106.828 148.5 106 148.5L106 151.5ZM116 148.5C115.172 148.5 114.5 149.172 114.5 150C114.5 150.828 115.172 151.5 116 151.5L116 148.5ZM126 151.5C126.828 151.5 127.5 150.828 127.5 150C127.5 149.172 126.828 148.5 126 148.5L126 151.5ZM136 148.5C135.172 148.5 134.5 149.172 134.5 150C134.5 150.828 135.172 151.5 136 151.5L136 148.5ZM146 151.5C146.828 151.5 147.5 150.828 147.5 150C147.5 149.172 146.828 148.5 146 148.5L146 151.5ZM156 148.5C155.172 148.5 154.5 149.172 154.5 150C154.5 150.828 155.172 151.5 156 151.5L156 148.5ZM166 151.5C166.828 151.5 167.5 150.828 167.5 150C167.5 149.172 166.828 148.5 166 148.5L166 151.5ZM176 148.5C175.172 148.5 174.5 149.172 174.5 150C174.5 150.828 175.172 151.5 176 151.5L176 148.5ZM186 151.5C186.828 151.5 187.5 150.828 187.5 150C187.5 149.172 186.828 148.5 186 148.5L186 151.5ZM196 148.5C195.172 148.5 194.5 149.172 194.5 150C194.5 150.828 195.172 151.5 196 151.5L196 148.5ZM206 151.5C206.828 151.5 207.5 150.828 207.5 150C207.5 149.172 206.828 148.5 206 148.5L206 151.5ZM216 148.5C215.172 148.5 214.5 149.172 214.5 150C214.5 150.828 215.172 151.5 216 151.5L216 148.5ZM226 151.5C226.828 151.5 227.5 150.828 227.5 150C227.5 149.172 226.828 148.5 226 148.5L226 151.5ZM236 148.5C235.172 148.5 234.5 149.172 234.5 150C234.5 150.828 235.172 151.5 236 151.5L236 148.5ZM246 151.5C246.828 151.5 247.5 150.828 247.5 150C247.5 149.172 246.828 148.5 246 148.5L246 151.5ZM256 148.5C255.172 148.5 254.5 149.172 254.5 150C254.5 150.828 255.172 151.5 256 151.5L256 148.5ZM266 151.5C266.828 151.5 267.5 150.828 267.5 150C267.5 149.172 266.828 148.5 266 148.5L266 151.5ZM276 148.5C275.172 148.5 274.5 149.172 274.5 150C274.5 150.828 275.172 151.5 276 151.5L276 148.5ZM286 151.5C286.828 151.5 287.5 150.828 287.5 150C287.5 149.172 286.828 148.5 286 148.5L286 151.5ZM296 148.5C295.172 148.5 294.5 149.172 294.5 150C294.5 150.828 295.172 151.5 296 151.5L296 148.5ZM306 151.5C306.828 151.5 307.5 150.828 307.5 150C307.5 149.172 306.828 148.5 306 148.5L306 151.5ZM316 148.5C315.172 148.5 314.5 149.172 314.5 150C314.5 150.828 315.172 151.5 316 151.5L316 148.5ZM326 151.5C326.828 151.5 327.5 150.828 327.5 150C327.5 149.172 326.828 148.5 326 148.5L326 151.5ZM336 148.5C335.172 148.5 334.5 149.172 334.5 150C334.5 150.828 335.172 151.5 336 151.5L336 148.5ZM346 151.5C346.828 151.5 347.5 150.828 347.5 150C347.5 149.172 346.828 148.5 346 148.5L346 151.5ZM356 148.5C355.172 148.5 354.5 149.172 354.5 150C354.5 150.828 355.172 151.5 356 151.5L356 148.5ZM366 151.5C366.828 151.5 367.5 150.828 367.5 150C367.5 149.172 366.828 148.5 366 148.5L366 151.5ZM376 148.5C375.172 148.5 374.5 149.172 374.5 150C374.5 150.828 375.172 151.5 376 151.5L376 148.5ZM386 151.5C386.828 151.5 387.5 150.828 387.5 150C387.5 149.172 386.828 148.5 386 148.5L386 151.5ZM396 148.5C395.172 148.5 394.5 149.172 394.5 150C394.5 150.828 395.172 151.5 396 151.5L396 148.5ZM406 151.5C406.828 151.5 407.5 150.828 407.5 150C407.5 149.172 406.828 148.5 406 148.5L406 151.5ZM416 148.5C415.172 148.5 414.5 149.172 414.5 150C414.5 150.828 415.172 151.5 416 151.5L416 148.5ZM426 151.5C426.828 151.5 427.5 150.828 427.5 150C427.5 149.172 426.828 148.5 426 148.5L426 151.5ZM436 148.5C435.172 148.5 434.5 149.172 434.5 150C434.5 150.828 435.172 151.5 436 151.5L436 148.5ZM446 151.5C446.828 151.5 447.5 150.828 447.5 150C447.5 149.172 446.828 148.5 446 148.5L446 151.5ZM456 148.5C455.172 148.5 454.5 149.172 454.5 150C454.5 150.828 455.172 151.5 456 151.5L456 148.5ZM466 151.5C466.828 151.5 467.5 150.828 467.5 150C467.5 149.172 466.828 148.5 466 148.5L466 151.5ZM476 148.5C475.172 148.5 474.5 149.172 474.5 150C474.5 150.828 475.172 151.5 476 151.5L476 148.5ZM486 151.5C486.828 151.5 487.5 150.828 487.5 150C487.5 149.172 486.828 148.5 486 148.5L486 151.5ZM496 148.5C495.172 148.5 494.5 149.172 494.5 150C494.5 150.828 495.172 151.5 496 151.5L496 148.5ZM21 151.5L26 151.5L26 148.5L21 148.5L21 151.5ZM36 151.5L46 151.5L46 148.5L36 148.5L36 151.5ZM56 151.5L66 151.5L66 148.5L56 148.5L56 151.5ZM76 151.5L86 151.5L86 148.5L76 148.5L76 151.5ZM96 151.5L106 151.5L106 148.5L96 148.5L96 151.5ZM116 151.5L126 151.5L126 148.5L116 148.5L116 151.5ZM136 151.5L146 151.5L146 148.5L136 148.5L136 151.5ZM156 151.5L166 151.5L166 148.5L156 148.5L156 151.5ZM176 151.5L186 151.5L186 148.5L176 148.5L176 151.5ZM196 151.5L206 151.5L206 148.5L196 148.5L196 151.5ZM216 151.5L226 151.5L226 148.5L216 148.5L216 151.5ZM236 151.5L246 151.5L246 148.5L236 148.5L236 151.5ZM256 151.5L266 151.5L266 148.5L256 148.5L256 151.5ZM276 151.5L286 151.5L286 148.5L276 148.5L276 151.5ZM296 151.5L306 151.5L306 148.5L296 148.5L296 151.5ZM316 151.5L326 151.5L326 148.5L316 148.5L316 151.5ZM336 151.5L346 151.5L346 148.5L336 148.5L336 151.5ZM356 151.5L366 151.5L366 148.5L356 148.5L356 151.5ZM376 151.5L386 151.5L386 148.5L376 148.5L376 151.5ZM396 151.5L406 151.5L406 148.5L396 148.5L396 151.5ZM416 151.5L426 151.5L426 148.5L416 148.5L416 151.5ZM436 151.5L446 151.5L446 148.5L436 148.5L436 151.5ZM456 151.5L466 151.5L466 148.5L456 148.5L456 151.5ZM476 151.5L486 151.5L486 148.5L476 148.5L476 151.5Z" fill="white"/>
</g>
<g filter="url(#filter5_d_75_11)">
<path d="M256.365 89.8994C256.365 90.1826 256.31 90.4202 256.199 90.6123C256.085 90.8011 255.937 90.9525 255.755 91.0664C255.576 91.1836 255.374 91.2682 255.149 91.3203C254.922 91.3691 254.692 91.3936 254.461 91.3936L254.256 91.3936C254.028 91.3936 253.802 91.3691 253.577 91.3203C253.353 91.2682 253.149 91.1836 252.967 91.0664C252.788 90.9492 252.643 90.7962 252.532 90.6074C252.418 90.4154 252.361 90.1794 252.361 89.8994C252.361 89.7171 252.392 89.5479 252.454 89.3916C252.516 89.2321 252.601 89.0954 252.708 88.9814C252.815 88.8675 252.941 88.778 253.084 88.7129C253.224 88.6445 253.374 88.6087 253.533 88.6055L253.533 87.751C253.266 87.751 253.016 87.8047 252.781 87.9121C252.547 88.0195 252.343 88.1676 252.171 88.3564C252.002 88.5485 251.868 88.7764 251.771 89.04C251.67 89.3005 251.619 89.5869 251.619 89.8994C251.619 90.2998 251.691 90.6497 251.834 90.9492C251.977 91.2487 252.169 91.4977 252.41 91.6963C252.654 91.8981 252.936 92.0495 253.255 92.1504C253.574 92.2513 253.908 92.3018 254.256 92.3018L254.461 92.3018C254.813 92.3018 255.148 92.2513 255.467 92.1504C255.783 92.0495 256.061 91.8981 256.302 91.6963C256.546 91.4977 256.74 91.2487 256.883 90.9492C257.026 90.6497 257.098 90.2998 257.098 89.8994C257.098 89.6195 257.05 89.3509 256.956 89.0938C256.858 88.8366 256.728 88.6087 256.565 88.4102C256.406 88.2116 256.22 88.0537 256.009 87.9365C255.794 87.8161 255.569 87.7542 255.335 87.751L255.335 88.6055C255.481 88.6087 255.618 88.6478 255.745 88.7227C255.869 88.7943 255.976 88.8903 256.067 89.0107C256.162 89.1312 256.235 89.2695 256.287 89.4258C256.339 89.5788 256.365 89.7367 256.365 89.8994ZM251.619 82.6826C251.619 83.0667 251.704 83.4102 251.873 83.7129C252.039 84.0124 252.267 84.2695 252.557 84.4844L252.425 84.4893L251.717 84.5283L251.717 85.3877L257 85.3877L257 84.4795L253.611 84.4795C253.449 84.4209 253.302 84.3477 253.172 84.2598C253.038 84.1686 252.926 84.0628 252.835 83.9424C252.731 83.8089 252.653 83.6527 252.601 83.4736C252.545 83.2946 252.518 83.0944 252.518 82.873C252.518 82.7005 252.527 82.5361 252.547 82.3799C252.563 82.2204 252.591 82.0527 252.63 81.877L251.746 81.7549C251.707 81.846 251.676 81.9827 251.653 82.165C251.631 82.3441 251.619 82.5166 251.619 82.6826ZM254.31 80.3926L254.417 80.3926C254.798 80.3926 255.151 80.3372 255.477 80.2266C255.802 80.1159 256.085 79.9564 256.326 79.748C256.567 79.543 256.756 79.2923 256.893 78.9961C257.029 78.6966 257.098 78.3597 257.098 77.9854C257.098 77.6143 257.029 77.2806 256.893 76.9844C256.756 76.6882 256.567 76.4359 256.326 76.2275C256.085 76.0225 255.802 75.8646 255.477 75.7539C255.151 75.6432 254.798 75.5879 254.417 75.5879L254.31 75.5879C253.929 75.5879 253.576 75.6432 253.25 75.7539C252.921 75.8646 252.636 76.0225 252.396 76.2275C252.155 76.4359 251.966 76.6898 251.829 76.9893C251.689 77.2855 251.619 77.6208 251.619 77.9951C251.619 78.3662 251.689 78.6999 251.829 78.9961C251.966 79.2923 252.155 79.543 252.396 79.748C252.636 79.9564 252.921 80.1159 253.25 80.2266C253.576 80.3372 253.929 80.3926 254.31 80.3926ZM254.417 79.4893L254.31 79.4893C254.052 79.4893 253.807 79.4583 253.572 79.3965C253.335 79.3346 253.126 79.2402 252.947 79.1133C252.768 78.9896 252.627 78.835 252.522 78.6494C252.415 78.4639 252.361 78.2458 252.361 77.9951C252.361 77.7445 252.415 77.5264 252.522 77.3408C252.627 77.152 252.768 76.9941 252.947 76.8672C253.126 76.7435 253.335 76.6507 253.572 76.5889C253.807 76.5238 254.052 76.4912 254.31 76.4912L254.417 76.4912C254.677 76.4912 254.926 76.5221 255.164 76.584C255.398 76.6458 255.605 76.7386 255.784 76.8623C255.963 76.9893 256.105 77.1471 256.209 77.3359C256.313 77.5215 256.365 77.738 256.365 77.9854C256.365 78.236 256.313 78.4557 256.209 78.6445C256.105 78.8333 255.963 78.9896 255.784 79.1133C255.605 79.2402 255.398 79.3346 255.164 79.3965C254.926 79.4583 254.677 79.4893 254.417 79.4893ZM255.599 70.6221C255.683 70.6221 255.763 70.6383 255.838 70.6709C255.913 70.7035 255.981 70.7507 256.043 70.8125C256.144 70.9134 256.224 71.0534 256.282 71.2324C256.338 71.4115 256.365 71.6214 256.365 71.8623C256.365 72.0153 256.349 72.1699 256.316 72.3262C256.284 72.4824 256.229 72.624 256.15 72.751C256.072 72.8812 255.97 72.9902 255.843 73.0781C255.716 73.1628 255.56 73.2116 255.374 73.2246L255.374 74.1279C255.599 74.1279 255.815 74.0775 256.023 73.9766C256.232 73.8724 256.414 73.7227 256.57 73.5273C256.73 73.3353 256.858 73.0993 256.956 72.8193C257.05 72.5394 257.098 72.2204 257.098 71.8623C257.098 71.5498 257.06 71.2617 256.985 70.998C256.91 70.7344 256.805 70.5081 256.668 70.3193C256.531 70.1305 256.367 69.984 256.175 69.8799C255.983 69.7725 255.77 69.7188 255.535 69.7188C255.317 69.7188 255.125 69.766 254.959 69.8604C254.793 69.9515 254.646 70.085 254.52 70.2607C254.396 70.4365 254.29 70.653 254.202 70.9102C254.111 71.1673 254.031 71.4587 253.963 71.7842C253.914 72.0316 253.864 72.2367 253.812 72.3994C253.759 72.5589 253.701 72.6859 253.636 72.7803C253.571 72.8779 253.497 72.9463 253.416 72.9854C253.335 73.0244 253.242 73.0439 253.138 73.0439C253.037 73.0439 252.939 73.0195 252.845 72.9707C252.75 72.9219 252.667 72.8486 252.596 72.751C252.524 72.6566 252.467 72.5378 252.425 72.3945C252.382 72.248 252.361 72.0788 252.361 71.8867C252.361 71.7012 252.387 71.5352 252.439 71.3887C252.492 71.2389 252.56 71.112 252.645 71.0078C252.729 70.9036 252.827 70.8223 252.938 70.7637C253.045 70.7051 253.156 70.6758 253.27 70.6758L253.27 69.7725C253.038 69.7725 252.824 69.8229 252.625 69.9238C252.423 70.0215 252.247 70.1615 252.098 70.3438C251.948 70.526 251.831 70.7474 251.746 71.0078C251.661 71.2682 251.619 71.5612 251.619 71.8867C251.619 72.1895 251.66 72.4678 251.741 72.7217C251.823 72.9723 251.933 73.1888 252.073 73.3711C252.213 73.5534 252.378 73.695 252.566 73.7959C252.752 73.8968 252.952 73.9473 253.167 73.9473C253.385 73.9473 253.577 73.8984 253.743 73.8008C253.906 73.7031 254.048 73.5648 254.168 73.3857C254.292 73.21 254.397 72.9984 254.485 72.751C254.573 72.5003 254.648 72.2236 254.71 71.9209C254.759 71.6735 254.814 71.4668 254.876 71.3008C254.935 71.1348 255 71.0013 255.071 70.9004C255.143 70.7995 255.223 70.7279 255.311 70.6855C255.395 70.6432 255.491 70.6221 255.599 70.6221ZM255.599 64.6162C255.683 64.6162 255.763 64.6325 255.838 64.665C255.913 64.6976 255.981 64.7448 256.043 64.8066C256.144 64.9076 256.224 65.0475 256.282 65.2266C256.338 65.4056 256.365 65.6156 256.365 65.8564C256.365 66.0094 256.349 66.1641 256.316 66.3203C256.284 66.4766 256.229 66.6182 256.15 66.7451C256.072 66.8753 255.97 66.9844 255.843 67.0723C255.716 67.1569 255.56 67.2057 255.374 67.2188L255.374 68.1221C255.599 68.1221 255.815 68.0716 256.023 67.9707C256.232 67.8665 256.414 67.7168 256.57 67.5215C256.73 67.3294 256.858 67.0934 256.956 66.8135C257.05 66.5335 257.098 66.2145 257.098 65.8564C257.098 65.5439 257.06 65.2559 256.985 64.9922C256.91 64.7285 256.805 64.5023 256.668 64.3135C256.531 64.1247 256.367 63.9782 256.175 63.874C255.983 63.7666 255.77 63.7129 255.535 63.7129C255.317 63.7129 255.125 63.7601 254.959 63.8545C254.793 63.9456 254.646 64.0791 254.52 64.2549C254.396 64.4307 254.29 64.6471 254.202 64.9043C254.111 65.1615 254.031 65.4528 253.963 65.7783C253.914 66.0257 253.864 66.2308 253.812 66.3936C253.759 66.5531 253.701 66.68 253.636 66.7744C253.571 66.8721 253.497 66.9404 253.416 66.9795C253.335 67.0186 253.242 67.0381 253.138 67.0381C253.037 67.0381 252.939 67.0137 252.845 66.9648C252.75 66.916 252.667 66.8428 252.596 66.7451C252.524 66.6507 252.467 66.5319 252.425 66.3887C252.382 66.2422 252.361 66.0729 252.361 65.8809C252.361 65.6953 252.387 65.5293 252.439 65.3828C252.492 65.2331 252.56 65.1061 252.645 65.002C252.729 64.8978 252.827 64.8164 252.938 64.7578C253.045 64.6992 253.156 64.6699 253.27 64.6699L253.27 63.7666C253.038 63.7666 252.824 63.8171 252.625 63.918C252.423 64.0156 252.247 64.1556 252.098 64.3379C251.948 64.5202 251.831 64.7415 251.746 65.002C251.661 65.2624 251.619 65.5553 251.619 65.8809C251.619 66.1836 251.66 66.4619 251.741 66.7158C251.823 66.9665 251.933 67.1829 252.073 67.3652C252.213 67.5475 252.378 67.6891 252.566 67.79C252.752 67.891 252.952 67.9414 253.167 67.9414C253.385 67.9414 253.577 67.8926 253.743 67.7949C253.906 67.6973 254.048 67.5589 254.168 67.3799C254.292 67.2041 254.397 66.9925 254.485 66.7451C254.573 66.4945 254.648 66.2178 254.71 65.915C254.759 65.6676 254.814 65.4609 254.876 65.2949C254.935 65.1289 255 64.9954 255.071 64.8945C255.143 64.7936 255.223 64.722 255.311 64.6797C255.395 64.6374 255.491 64.6162 255.599 64.6162ZM257 52.6436L257 51.7012L256.922 51.7012C256.775 51.7598 256.604 51.8053 256.409 51.8379C256.211 51.8704 256.023 51.8867 255.848 51.8867L253.392 51.8867C253.095 51.8867 252.837 51.9404 252.615 52.0479C252.394 52.1553 252.208 52.3018 252.059 52.4873C251.912 52.6761 251.803 52.8991 251.731 53.1563C251.657 53.4134 251.619 53.6917 251.619 53.9912C251.619 54.32 251.665 54.6146 251.756 54.875C251.847 55.1322 251.966 55.3503 252.112 55.5293C252.262 55.7116 252.43 55.8516 252.615 55.9492C252.801 56.0436 252.99 56.0924 253.182 56.0957L253.182 55.1875C253.071 55.1875 252.965 55.1615 252.864 55.1094C252.76 55.054 252.671 54.9775 252.596 54.8799C252.521 54.7822 252.461 54.6634 252.415 54.5234C252.369 54.3802 252.347 54.2191 252.347 54.04C252.347 53.848 252.371 53.6755 252.42 53.5225C252.469 53.3662 252.537 53.2344 252.625 53.127C252.716 53.0195 252.825 52.9365 252.952 52.8779C253.079 52.8193 253.222 52.79 253.382 52.79L253.797 52.79L253.797 53.7764C253.797 54.1442 253.833 54.4779 253.904 54.7773C253.976 55.0736 254.083 55.3275 254.227 55.5391C254.373 55.7507 254.555 55.915 254.773 56.0322C254.992 56.1462 255.245 56.2031 255.535 56.2031C255.757 56.2031 255.963 56.1608 256.155 56.0762C256.344 55.9883 256.507 55.8646 256.644 55.7051C256.784 55.5488 256.894 55.3584 256.976 55.1338C257.057 54.9059 257.098 54.652 257.098 54.3721C257.098 54.1995 257.08 54.0368 257.044 53.8838C257.008 53.7308 256.959 53.5859 256.897 53.4492C256.836 53.3158 256.764 53.1937 256.683 53.083C256.601 52.9691 256.515 52.8665 256.424 52.7754C256.535 52.7656 256.642 52.751 256.746 52.7314C256.847 52.7087 256.932 52.6794 257 52.6436ZM256.312 54.2402C256.312 54.416 256.289 54.5706 256.243 54.7041C256.198 54.8376 256.134 54.9482 256.053 55.0361C255.975 55.124 255.88 55.1908 255.77 55.2363C255.659 55.2786 255.538 55.2998 255.408 55.2998C255.271 55.2998 255.149 55.2754 255.042 55.2266C254.935 55.1745 254.842 55.0996 254.764 55.002C254.653 54.8652 254.572 54.6813 254.52 54.4502C254.464 54.2158 254.437 53.9424 254.437 53.6299L254.437 52.79L255.506 52.79C255.61 52.8421 255.711 52.9137 255.809 53.0049C255.903 53.096 255.988 53.2035 256.063 53.3271C256.137 53.4541 256.198 53.5941 256.243 53.7471C256.289 53.9001 256.312 54.0645 256.312 54.2402ZM253.675 47.9268L251.717 49.3232L251.717 50.3682L254.329 48.4004L257 50.4219L257 49.3672L254.988 47.9072L257 46.4473L257 45.4023L254.329 47.4238L251.717 45.4561L251.717 46.5156L253.675 47.9268ZM251.717 43.9619L252.503 43.9619L252.503 42.165L256.219 42.165L256.219 43.9619L257 43.9619L257 39.5381L256.219 39.5381L256.219 41.2617L251.717 41.2617L251.717 43.9619ZM250.33 42.2822C250.477 42.2822 250.599 42.2383 250.696 42.1504C250.794 42.0592 250.843 41.9225 250.843 41.7402C250.843 41.5612 250.794 41.4261 250.696 41.335C250.599 41.2438 250.477 41.1982 250.33 41.1982C250.249 41.1982 250.174 41.2113 250.105 41.2373C250.037 41.2633 249.98 41.3024 249.935 41.3545C249.892 41.3968 249.86 41.4505 249.837 41.5156C249.811 41.5807 249.798 41.6556 249.798 41.7402C249.798 41.8249 249.811 41.9014 249.837 41.9697C249.86 42.0348 249.892 42.0885 249.935 42.1309C249.983 42.1829 250.042 42.222 250.11 42.248C250.179 42.2708 250.252 42.2822 250.33 42.2822ZM255.599 34.5869C255.683 34.5869 255.763 34.6032 255.838 34.6357C255.913 34.6683 255.981 34.7155 256.043 34.7773C256.144 34.8783 256.224 35.0182 256.282 35.1973C256.338 35.3763 256.365 35.5863 256.365 35.8271C256.365 35.9801 256.349 36.1348 256.316 36.291C256.284 36.4473 256.229 36.5889 256.15 36.7158C256.072 36.846 255.97 36.9551 255.843 37.043C255.716 37.1276 255.56 37.1764 255.374 37.1895L255.374 38.0928C255.599 38.0928 255.815 38.0423 256.023 37.9414C256.232 37.8372 256.414 37.6875 256.57 37.4922C256.73 37.3001 256.858 37.0641 256.956 36.7842C257.05 36.5042 257.098 36.1852 257.098 35.8271C257.098 35.5146 257.06 35.2266 256.985 34.9629C256.91 34.6992 256.805 34.473 256.668 34.2842C256.531 34.0954 256.367 33.9489 256.175 33.8447C255.983 33.7373 255.77 33.6836 255.535 33.6836C255.317 33.6836 255.125 33.7308 254.959 33.8252C254.793 33.9163 254.646 34.0498 254.52 34.2256C254.396 34.4014 254.29 34.6178 254.202 34.875C254.111 35.1322 254.031 35.4235 253.963 35.749C253.914 35.9964 253.864 36.2015 253.812 36.3643C253.759 36.5238 253.701 36.6507 253.636 36.7451C253.571 36.8428 253.497 36.9111 253.416 36.9502C253.335 36.9893 253.242 37.0088 253.138 37.0088C253.037 37.0088 252.939 36.9844 252.845 36.9355C252.75 36.8867 252.667 36.8135 252.596 36.7158C252.524 36.6214 252.467 36.5026 252.425 36.3594C252.382 36.2129 252.361 36.0436 252.361 35.8516C252.361 35.666 252.387 35.5 252.439 35.3535C252.492 35.2038 252.56 35.0768 252.645 34.9727C252.729 34.8685 252.827 34.7871 252.938 34.7285C253.045 34.6699 253.156 34.6406 253.27 34.6406L253.27 33.7373C253.038 33.7373 252.824 33.7878 252.625 33.8887C252.423 33.9863 252.247 34.1263 252.098 34.3086C251.948 34.4909 251.831 34.7122 251.746 34.9727C251.661 35.2331 251.619 35.526 251.619 35.8516C251.619 36.1543 251.66 36.4326 251.741 36.6865C251.823 36.9372 251.933 37.1536 252.073 37.3359C252.213 37.5182 252.378 37.6598 252.566 37.7607C252.752 37.8617 252.952 37.9121 253.167 37.9121C253.385 37.9121 253.577 37.8633 253.743 37.7656C253.906 37.668 254.048 37.5296 254.168 37.3506C254.292 37.1748 254.397 36.9632 254.485 36.7158C254.573 36.4652 254.648 36.1885 254.71 35.8857C254.759 35.6383 254.814 35.4316 254.876 35.2656C254.935 35.0996 255 34.9661 255.071 34.8652C255.143 34.7643 255.223 34.6927 255.311 34.6504C255.395 34.6081 255.491 34.5869 255.599 34.5869Z" fill="white"/>
</g>
<g filter="url(#filter6_d_75_11)">
<path d="M427.265 137.717H426.454V143H427.313V138.796C427.333 138.744 427.357 138.695 427.387 138.649C427.419 138.604 427.457 138.563 427.499 138.527C427.554 138.482 427.621 138.448 427.699 138.425C427.781 138.399 427.875 138.386 427.982 138.386C428.08 138.386 428.165 138.399 428.236 138.425C428.311 138.448 428.373 138.485 428.422 138.537C428.474 138.592 428.511 138.662 428.534 138.747C428.56 138.832 428.573 138.929 428.573 139.04V143H429.433V139.045C429.433 139.025 429.433 139.009 429.433 138.996C429.433 138.98 429.433 138.964 429.433 138.947C429.442 138.866 429.462 138.793 429.491 138.728C429.521 138.659 429.561 138.599 429.613 138.547C429.665 138.498 429.73 138.459 429.809 138.43C429.887 138.4 429.979 138.386 430.087 138.386C430.188 138.386 430.276 138.399 430.351 138.425C430.429 138.451 430.494 138.49 430.546 138.542C430.595 138.597 430.632 138.667 430.658 138.752C430.684 138.837 430.697 138.934 430.697 139.045V143H431.557V139.055C431.557 138.801 431.527 138.581 431.469 138.396C431.41 138.207 431.326 138.054 431.215 137.937C431.114 137.832 430.99 137.754 430.844 137.702C430.697 137.647 430.533 137.619 430.351 137.619C430.217 137.622 430.093 137.64 429.979 137.673C429.869 137.705 429.768 137.749 429.677 137.805C429.605 137.854 429.538 137.91 429.477 137.976C429.415 138.041 429.361 138.111 429.315 138.186C429.28 138.104 429.236 138.031 429.184 137.966C429.135 137.901 429.079 137.845 429.018 137.8C428.933 137.741 428.834 137.697 428.72 137.668C428.609 137.635 428.484 137.619 428.344 137.619C428.096 137.622 427.885 137.676 427.709 137.78C427.536 137.884 427.396 138.029 427.289 138.215L427.265 137.717ZM436.327 143H437.27V142.922C437.211 142.775 437.165 142.604 437.133 142.409C437.1 142.211 437.084 142.023 437.084 141.848V139.392C437.084 139.095 437.03 138.837 436.923 138.615C436.815 138.394 436.669 138.208 436.483 138.059C436.295 137.912 436.072 137.803 435.814 137.731C435.557 137.657 435.279 137.619 434.979 137.619C434.651 137.619 434.356 137.665 434.096 137.756C433.839 137.847 433.62 137.966 433.441 138.112C433.259 138.262 433.119 138.43 433.021 138.615C432.927 138.801 432.878 138.99 432.875 139.182H433.783C433.783 139.071 433.809 138.965 433.861 138.864C433.917 138.76 433.993 138.671 434.091 138.596C434.188 138.521 434.307 138.461 434.447 138.415C434.59 138.369 434.752 138.347 434.931 138.347C435.123 138.347 435.295 138.371 435.448 138.42C435.604 138.469 435.736 138.537 435.844 138.625C435.951 138.716 436.034 138.825 436.093 138.952C436.151 139.079 436.181 139.222 436.181 139.382V139.797H435.194C434.826 139.797 434.493 139.833 434.193 139.904C433.897 139.976 433.643 140.083 433.432 140.227C433.22 140.373 433.056 140.555 432.938 140.773C432.825 140.992 432.768 141.245 432.768 141.535C432.768 141.757 432.81 141.963 432.895 142.155C432.982 142.344 433.106 142.507 433.266 142.644C433.422 142.784 433.612 142.894 433.837 142.976C434.065 143.057 434.319 143.098 434.599 143.098C434.771 143.098 434.934 143.08 435.087 143.044C435.24 143.008 435.385 142.959 435.521 142.897C435.655 142.836 435.777 142.764 435.888 142.683C436.002 142.601 436.104 142.515 436.195 142.424C436.205 142.535 436.22 142.642 436.239 142.746C436.262 142.847 436.291 142.932 436.327 143ZM434.73 142.312C434.555 142.312 434.4 142.289 434.267 142.243C434.133 142.198 434.022 142.134 433.935 142.053C433.847 141.975 433.78 141.88 433.734 141.77C433.692 141.659 433.671 141.538 433.671 141.408C433.671 141.271 433.695 141.149 433.744 141.042C433.796 140.935 433.871 140.842 433.969 140.764C434.105 140.653 434.289 140.572 434.521 140.52C434.755 140.464 435.028 140.437 435.341 140.437H436.181V141.506C436.129 141.61 436.057 141.711 435.966 141.809C435.875 141.903 435.767 141.988 435.644 142.062C435.517 142.137 435.377 142.198 435.224 142.243C435.071 142.289 434.906 142.312 434.73 142.312ZM439.003 137.717V138.503H440.8V142.219H439.003V143H443.427V142.219H441.703V137.717H439.003ZM440.683 136.33C440.683 136.477 440.727 136.599 440.814 136.696C440.906 136.794 441.042 136.843 441.225 136.843C441.404 136.843 441.539 136.794 441.63 136.696C441.721 136.599 441.767 136.477 441.767 136.33C441.767 136.249 441.754 136.174 441.728 136.105C441.701 136.037 441.662 135.98 441.61 135.935C441.568 135.892 441.514 135.86 441.449 135.837C441.384 135.811 441.309 135.798 441.225 135.798C441.14 135.798 441.063 135.811 440.995 135.837C440.93 135.86 440.876 135.892 440.834 135.935C440.782 135.983 440.743 136.042 440.717 136.11C440.694 136.179 440.683 136.252 440.683 136.33ZM444.867 143H445.771V139.211C445.832 139.097 445.904 138.993 445.985 138.898C446.07 138.804 446.161 138.721 446.259 138.649C446.379 138.568 446.511 138.505 446.654 138.459C446.798 138.41 446.952 138.386 447.118 138.386C447.31 138.386 447.479 138.409 447.626 138.454C447.776 138.5 447.903 138.573 448.007 138.674C448.108 138.775 448.184 138.907 448.236 139.069C448.288 139.232 448.314 139.431 448.314 139.665V143H449.218V139.646C449.218 139.294 449.174 138.991 449.086 138.737C449.001 138.48 448.879 138.269 448.72 138.103C448.56 137.937 448.367 137.814 448.139 137.736C447.914 137.658 447.663 137.619 447.387 137.619C447.182 137.622 446.986 137.653 446.801 137.712C446.618 137.767 446.449 137.847 446.293 137.951C446.189 138.02 446.09 138.101 445.995 138.195C445.904 138.286 445.819 138.387 445.741 138.498L445.678 137.717H444.867V143ZM460.351 143H461.293V142.922C461.234 142.775 461.189 142.604 461.156 142.409C461.124 142.211 461.107 142.023 461.107 141.848V139.392C461.107 139.095 461.054 138.837 460.946 138.615C460.839 138.394 460.692 138.208 460.507 138.059C460.318 137.912 460.095 137.803 459.838 137.731C459.581 137.657 459.302 137.619 459.003 137.619C458.674 137.619 458.38 137.665 458.119 137.756C457.862 137.847 457.644 137.966 457.465 138.112C457.283 138.262 457.143 138.43 457.045 138.615C456.951 138.801 456.902 138.99 456.898 139.182H457.807C457.807 139.071 457.833 138.965 457.885 138.864C457.94 138.76 458.017 138.671 458.114 138.596C458.212 138.521 458.331 138.461 458.471 138.415C458.614 138.369 458.775 138.347 458.954 138.347C459.146 138.347 459.319 138.371 459.472 138.42C459.628 138.469 459.76 138.537 459.867 138.625C459.975 138.716 460.058 138.825 460.116 138.952C460.175 139.079 460.204 139.222 460.204 139.382V139.797H459.218C458.85 139.797 458.516 139.833 458.217 139.904C457.921 139.976 457.667 140.083 457.455 140.227C457.243 140.373 457.079 140.555 456.962 140.773C456.848 140.992 456.791 141.245 456.791 141.535C456.791 141.757 456.833 141.963 456.918 142.155C457.006 142.344 457.13 142.507 457.289 142.644C457.445 142.784 457.636 142.894 457.86 142.976C458.088 143.057 458.342 143.098 458.622 143.098C458.795 143.098 458.957 143.08 459.11 143.044C459.263 143.008 459.408 142.959 459.545 142.897C459.678 142.836 459.8 142.764 459.911 142.683C460.025 142.601 460.128 142.515 460.219 142.424C460.229 142.535 460.243 142.642 460.263 142.746C460.285 142.847 460.315 142.932 460.351 143ZM458.754 142.312C458.578 142.312 458.424 142.289 458.29 142.243C458.157 142.198 458.046 142.134 457.958 142.053C457.87 141.975 457.803 141.88 457.758 141.77C457.715 141.659 457.694 141.538 457.694 141.408C457.694 141.271 457.719 141.149 457.768 141.042C457.82 140.935 457.895 140.842 457.992 140.764C458.129 140.653 458.313 140.572 458.544 140.52C458.778 140.464 459.052 140.437 459.364 140.437H460.204V141.506C460.152 141.61 460.08 141.711 459.989 141.809C459.898 141.903 459.791 141.988 459.667 142.062C459.54 142.137 459.4 142.198 459.247 142.243C459.094 142.289 458.93 142.312 458.754 142.312ZM465.067 139.675L463.671 137.717H462.626L464.594 140.329L462.572 143H463.627L465.087 140.988L466.547 143H467.592L465.57 140.329L467.538 137.717H466.479L465.067 139.675ZM469.032 137.717V138.503H470.829V142.219H469.032V143H473.456V142.219H471.732V137.717H469.032ZM470.712 136.33C470.712 136.477 470.756 136.599 470.844 136.696C470.935 136.794 471.072 136.843 471.254 136.843C471.433 136.843 471.568 136.794 471.659 136.696C471.75 136.599 471.796 136.477 471.796 136.33C471.796 136.249 471.783 136.174 471.757 136.105C471.731 136.037 471.692 135.98 471.64 135.935C471.597 135.892 471.544 135.86 471.479 135.837C471.413 135.811 471.339 135.798 471.254 135.798C471.169 135.798 471.093 135.811 471.024 135.837C470.959 135.86 470.906 135.892 470.863 135.935C470.811 135.983 470.772 136.042 470.746 136.11C470.723 136.179 470.712 136.252 470.712 136.33ZM478.407 141.599C478.407 141.683 478.391 141.763 478.358 141.838C478.326 141.913 478.279 141.981 478.217 142.043C478.116 142.144 477.976 142.224 477.797 142.282C477.618 142.338 477.408 142.365 477.167 142.365C477.014 142.365 476.859 142.349 476.703 142.316C476.547 142.284 476.405 142.229 476.278 142.15C476.148 142.072 476.039 141.97 475.951 141.843C475.867 141.716 475.818 141.56 475.805 141.374H474.901C474.901 141.599 474.952 141.815 475.053 142.023C475.157 142.232 475.307 142.414 475.502 142.57C475.694 142.73 475.93 142.858 476.21 142.956C476.49 143.05 476.809 143.098 477.167 143.098C477.479 143.098 477.768 143.06 478.031 142.985C478.295 142.91 478.521 142.805 478.71 142.668C478.899 142.531 479.045 142.367 479.149 142.175C479.257 141.983 479.311 141.77 479.311 141.535C479.311 141.317 479.263 141.125 479.169 140.959C479.078 140.793 478.944 140.646 478.769 140.52C478.593 140.396 478.376 140.29 478.119 140.202C477.862 140.111 477.571 140.031 477.245 139.963C476.998 139.914 476.793 139.864 476.63 139.812C476.47 139.759 476.343 139.701 476.249 139.636C476.151 139.571 476.083 139.497 476.044 139.416C476.005 139.335 475.985 139.242 475.985 139.138C475.985 139.037 476.01 138.939 476.059 138.845C476.107 138.75 476.181 138.667 476.278 138.596C476.373 138.524 476.492 138.467 476.635 138.425C476.781 138.382 476.951 138.361 477.143 138.361C477.328 138.361 477.494 138.387 477.641 138.439C477.79 138.492 477.917 138.56 478.021 138.645C478.126 138.729 478.207 138.827 478.266 138.938C478.324 139.045 478.354 139.156 478.354 139.27H479.257C479.257 139.038 479.206 138.824 479.105 138.625C479.008 138.423 478.868 138.247 478.686 138.098C478.503 137.948 478.282 137.831 478.021 137.746C477.761 137.661 477.468 137.619 477.143 137.619C476.84 137.619 476.562 137.66 476.308 137.741C476.057 137.823 475.84 137.933 475.658 138.073C475.476 138.213 475.334 138.378 475.233 138.566C475.132 138.752 475.082 138.952 475.082 139.167C475.082 139.385 475.131 139.577 475.229 139.743C475.326 139.906 475.465 140.048 475.644 140.168C475.819 140.292 476.031 140.397 476.278 140.485C476.529 140.573 476.806 140.648 477.108 140.71C477.356 140.759 477.562 140.814 477.729 140.876C477.895 140.935 478.028 141 478.129 141.071C478.23 141.143 478.301 141.223 478.344 141.311C478.386 141.395 478.407 141.491 478.407 141.599Z" fill="white"/>
</g>
<defs>
<filter id="filter0_dii_75_11" x="0" y="-5" width="522" height="325" filterUnits="userSpaceOnUse" color-interpolation-filters="sRGB">
<feFlood flood-opacity="0" result="BackgroundImageFix"/>
<feColorMatrix in="SourceAlpha" type="matrix" values="0 0 0 0 0 0 0 0 0 0 0 0 0 0 0 0 0 0 127 0" result="hardAlpha"/>
<feOffset dx="-6" dy="12"/>
<feGaussianBlur stdDeviation="4"/>
<feComposite in2="hardAlpha" operator="out"/>
<feColorMatrix type="matrix" values="0 0 0 0 0.00875913 0 0 0 0 0.0912409 0 0 0 0 0.0846715 0 0 0 1 0"/>
<feBlend mode="normal" in2="BackgroundImageFix" result="effect1_dropShadow_75_11"/>
<feBlend mode="normal" in="SourceGraphic" in2="effect1_dropShadow_75_11" result="shape"/>
<feColorMatrix in="SourceAlpha" type="matrix" values="0 0 0 0 0 0 0 0 0 0 0 0 0 0 0 0 0 0 127 0" result="hardAlpha"/>
<feOffset dx="10" dy="-5"/>
<feGaussianBlur stdDeviation="4"/>
<feComposite in2="hardAlpha" operator="arithmetic" k2="-1" k3="1"/>
<feColorMatrix type="matrix" values="0 0 0 0 0.0175183 0 0 0 0 0.182482 0 0 0 0 0.169343 0 0 0 0.04 0"/>
<feBlend mode="normal" in2="shape" result="effect2_innerShadow_75_11"/>
<feColorMatrix in="SourceAlpha" type="matrix" values="0 0 0 0 0 0 0 0 0 0 0 0 0 0 0 0 0 0 127 0" result="hardAlpha"/>
<feOffset dx="-5" dy="8"/>
<feGaussianBlur stdDeviation="1.5"/>
<feComposite in2="hardAlpha" operator="arithmetic" k2="-1" k3="1"/>
<feColorMatrix type="matrix" values="0 0 0 0 0.0175183 0 0 0 0 0.182482 0 0 0 0 0.169343 0 0 0 0.2 0"/>
<feBlend mode="normal" in2="effect2_innerShadow_75_11" result="effect3_innerShadow_75_11"/>
</filter>
<filter id="filter1_dii_75_11" x="29" y="108" width="177" height="90" filterUnits="userSpaceOnUse" color-interpolation-filters="sRGB">
<feFlood flood-opacity="0" result="BackgroundImageFix"/>
<feColorMatrix in="SourceAlpha" type="matrix" values="0 0 0 0 0 0 0 0 0 0 0 0 0 0 0 0 0 0 127 0" result="hardAlpha"/>
<feOffset dx="-3" dy="6"/>
<feGaussianBlur stdDeviation="1"/>
<feComposite in2="hardAlpha" operator="out"/>
<feColorMatrix type="matrix" values="0 0 0 0 0.0175183 0 0 0 0 0.182482 0 0 0 0 0.169343 0 0 0 0.22 0"/>
<feBlend mode="normal" in2="BackgroundImageFix" result="effect1_dropShadow_75_11"/>
<feBlend mode="normal" in="SourceGraphic" in2="effect1_dropShadow_75_11" result="shape"/>
<feColorMatrix in="SourceAlpha" type="matrix" values="0 0 0 0 0 0 0 0 0 0 0 0 0 0 0 0 0 0 127 0" result="hardAlpha"/>
<feOffset dx="-3" dy="3"/>
<feGaussianBlur stdDeviation="0.5"/>
<feComposite in2="hardAlpha" operator="arithmetic" k2="-1" k3="1"/>
<feColorMatrix type="matrix" values="0 0 0 0 1 0 0 0 0 0.784 0 0 0 0 0.32 0 0 0 1 0"/>
<feBlend mode="normal" in2="shape" result="effect2_innerShadow_75_11"/>
<feColorMatrix in="SourceAlpha" type="matrix" values="0 0 0 0 0 0 0 0 0 0 0 0 0 0 0 0 0 0 127 0" result="hardAlpha"/>
<feOffset dx="3" dy="-3"/>
<feGaussianBlur stdDeviation="1"/>
<feComposite in2="hardAlpha" operator="arithmetic" k2="-1" k3="1"/>
<feColorMatrix type="matrix" values="0 0 0 0 0.66 0 0 0 0 0.450353 0 0 0 0 0 0 0 0 0.33 0"/>
<feBlend mode="normal" in2="effect2_innerShadow_75_11" result="effect3_innerShadow_75_11"/>
</filter>
<filter id="filter2_dii_75_11" x="29" y="198" width="177" height="90" filterUnits="userSpaceOnUse" color-interpolation-filters="sRGB">
<feFlood flood-opacity="0" result="BackgroundImageFix"/>
<feColorMatrix in="SourceAlpha" type="matrix" values="0 0 0 0 0 0 0 0 0 0 0 0 0 0 0 0 0 0 127 0" result="hardAlpha"/>
<feOffset dx="-3" dy="6"/>
<feGaussianBlur stdDeviation="1"/>
<feComposite in2="hardAlpha" operator="out"/>
<feColorMatrix type="matrix" values="0 0 0 0 0.0175183 0 0 0 0 0.182482 0 0 0 0 0.169343 0 0 0 0.22 0"/>
<feBlend mode="normal" in2="BackgroundImageFix" result="effect1_dropShadow_75_11"/>
<feBlend mode="normal" in="SourceGraphic" in2="effect1_dropShadow_75_11" result="shape"/>
<feColorMatrix in="SourceAlpha" type="matrix" values="0 0 0 0 0 0 0 0 0 0 0 0 0 0 0 0 0 0 127 0" result="hardAlpha"/>
<feOffset dx="-3" dy="3"/>
<feGaussianBlur stdDeviation="0.5"/>
<feComposite in2="hardAlpha" operator="arithmetic" k2="-1" k3="1"/>
<feColorMatrix type="matrix" values="0 0 0 0 1 0 0 0 0 0.784 0 0 0 0 0.32 0 0 0 1 0"/>
<feBlend mode="normal" in2="shape" result="effect2_innerShadow_75_11"/>
<feColorMatrix in="SourceAlpha" type="matrix" values="0 0 0 0 0 0 0 0 0 0 0 0 0 0 0 0 0 0 127 0" result="hardAlpha"/>
<feOffset dx="3" dy="-3"/>
<feGaussianBlur stdDeviation="1"/>
<feComposite in2="hardAlpha" operator="arithmetic" k2="-1" k3="1"/>
<feColorMatrix type="matrix" values="0 0 0 0 0.66 0 0 0 0 0.450353 0 0 0 0 0 0 0 0 0.33 0"/>
<feBlend mode="normal" in2="effect2_innerShadow_75_11" result="effect3_innerShadow_75_11"/>
</filter>
<filter id="filter3_d_75_11" x="251.34" y="13" width="25.3206" height="288" filterUnits="userSpaceOnUse" color-interpolation-filters="sRGB">
<feFlood flood-opacity="0" result="BackgroundImageFix"/>
<feColorMatrix in="SourceAlpha" type="matrix" values="0 0 0 0 0 0 0 0 0 0 0 0 0 0 0 0 0 0 127 0" result="hardAlpha"/>
<feOffset dy="4"/>
<feGaussianBlur stdDeviation="2"/>
<feComposite in2="hardAlpha" operator="out"/>
<feColorMatrix type="matrix" values="0 0 0 0 0 0 0 0 0 0 0 0 0 0 0 0 0 0 0.25 0"/>
<feBlend mode="normal" in2="BackgroundImageFix" result="effect1_dropShadow_75_11"/>
<feBlend mode="normal" in="SourceGraphic" in2="effect1_dropShadow_75_11" result="shape"/>
</filter>
<filter id="filter4_d_75_11" x="17" y="141.34" width="488" height="25.3204" filterUnits="userSpaceOnUse" color-interpolation-filters="sRGB">
<feFlood flood-opacity="0" result="BackgroundImageFix"/>
<feColorMatrix in="SourceAlpha" type="matrix" values="0 0 0 0 0 0 0 0 0 0 0 0 0 0 0 0 0 0 127 0" result="hardAlpha"/>
<feOffset dy="4"/>
<feGaussianBlur stdDeviation="2"/>
<feComposite in2="hardAlpha" operator="out"/>
<feColorMatrix type="matrix" values="0 0 0 0 0 0 0 0 0 0 0 0 0 0 0 0 0 0 0.25 0"/>
<feBlend mode="normal" in2="BackgroundImageFix" result="effect1_dropShadow_75_11"/>
<feBlend mode="normal" in="SourceGraphic" in2="effect1_dropShadow_75_11" result="shape"/>
</filter>
<filter id="filter5_d_75_11" x="245.798" y="33.6836" width="15.2998" height="66.6182" filterUnits="userSpaceOnUse" color-interpolation-filters="sRGB">
<feFlood flood-opacity="0" result="BackgroundImageFix"/>
<feColorMatrix in="SourceAlpha" type="matrix" values="0 0 0 0 0 0 0 0 0 0 0 0 0 0 0 0 0 0 127 0" result="hardAlpha"/>
<feOffset dy="4"/>
<feGaussianBlur stdDeviation="2"/>
<feComposite in2="hardAlpha" operator="out"/>
<feColorMatrix type="matrix" values="0 0 0 0 0 0 0 0 0 0 0 0 0 0 0 0 0 0 0.25 0"/>
<feBlend mode="normal" in2="BackgroundImageFix" result="effect1_dropShadow_75_11"/>
<feBlend mode="normal" in="SourceGraphic" in2="effect1_dropShadow_75_11" result="shape"/>
</filter>
<filter id="filter6_d_75_11" x="422.454" y="135.798" width="60.8564" height="15.2998" filterUnits="userSpaceOnUse" color-interpolation-filters="sRGB">
<feFlood flood-opacity="0" result="BackgroundImageFix"/>
<feColorMatrix in="SourceAlpha" type="matrix" values="0 0 0 0 0 0 0 0 0 0 0 0 0 0 0 0 0 0 127 0" result="hardAlpha"/>
<feOffset dy="4"/>
<feGaussianBlur stdDeviation="2"/>
<feComposite in2="hardAlpha" operator="out"/>
<feColorMatrix type="matrix" values="0 0 0 0 0 0 0 0 0 0 0 0 0 0 0 0 0 0 0.25 0"/>
<feBlend mode="normal" in2="BackgroundImageFix" result="effect1_dropShadow_75_11"/>
<feBlend mode="normal" in="SourceGraphic" in2="effect1_dropShadow_75_11" result="shape"/>
</filter>
</defs>
</svg>
