<svg width="816" height="520" viewBox="0 0 816 520" fill="none" xmlns="http://www.w3.org/2000/svg">
<g filter="url(#filter0_dii_68_268)">
<rect x="14" width="800" height="500" rx="6" fill="#0C7D74"/>
<rect x="14.5" y="0.5" width="799" height="499" rx="5.5" stroke="#053834"/>
</g>
<g filter="url(#filter1_dii_68_268)">
<rect x="34" y="20" width="200" height="100" rx="6" fill="#FFAE00"/>
<rect x="34.25" y="20.25" width="199.5" height="99.5" rx="5.75" stroke="#704D00" stroke-width="0.5"/>
</g>
<g filter="url(#filter2_dii_68_268)">
<rect x="254" y="20" width="200" height="100" rx="6" fill="#FFAE00"/>
<rect x="254.25" y="20.25" width="199.5" height="99.5" rx="5.75" stroke="#704D00" stroke-width="0.5"/>
</g>
<g filter="url(#filter3_dii_68_268)">
<rect x="474" y="20" width="200" height="100" rx="6" fill="#FFAE00"/>
<rect x="474.25" y="20.25" width="199.5" height="99.5" rx="5.75" stroke="#704D00" stroke-width="0.5"/>
</g>
<g filter="url(#filter4_dii_68_268)">
<rect x="154" y="361" width="200" height="100" rx="6" fill="#FFAE00"/>
<rect x="154.25" y="361.25" width="199.5" height="99.5" rx="5.75" stroke="#704D00" stroke-width="0.5"/>
</g>
<g filter="url(#filter5_dii_68_268)">
<rect x="374" y="361" width="200" height="100" rx="6" fill="#FFAE00"/>
<rect x="374.25" y="361.25" width="199.5" height="99.5" rx="5.75" stroke="#704D00" stroke-width="0.5"/>
</g>
<g filter="url(#filter6_dii_68_268)">
<rect x="594" y="361" width="200" height="100" rx="6" fill="#FFAE00"/>
<rect x="594.25" y="361.25" width="199.5" height="99.5" rx="5.75" stroke="#704D00" stroke-width="0.5"/>
</g>
<g filter="url(#filter7_d_68_268)">
<path d="M86 247.5L84.961 246.418L86 247.5ZM131.5 411L116.8 401.84L116.217 419.151L131.5 411ZM126.597 409.335C125.77 409.279 125.055 409.904 124.999 410.731C124.944 411.558 125.569 412.273 126.395 412.328L126.597 409.335ZM116.29 410.969C117.102 411.133 117.894 410.608 118.058 409.796C118.223 408.984 117.698 408.193 116.886 408.029L116.29 410.969ZM107.425 405.464C106.641 405.196 105.788 405.615 105.521 406.399C105.253 407.183 105.672 408.036 106.456 408.303L107.425 405.464ZM97.0418 404.415C97.7864 404.779 98.6844 404.469 99.0474 403.725C99.4105 402.98 99.1011 402.082 98.3565 401.719L97.0418 404.415ZM89.8084 396.89C89.1128 396.44 88.1842 396.639 87.7342 397.335C87.2843 398.03 87.4835 398.959 88.1791 399.409L89.8084 396.89ZM79.9739 393.39C80.6122 393.918 81.5577 393.829 82.0858 393.19C82.6138 392.552 82.5244 391.606 81.8861 391.078L79.9739 393.39ZM74.6868 384.391C74.113 383.794 73.1634 383.774 72.5659 384.348C71.9684 384.922 71.9492 385.872 72.523 386.469L74.6868 384.391ZM65.9047 378.746C66.4074 379.405 67.3487 379.531 68.0072 379.028C68.6657 378.526 68.792 377.584 68.2894 376.926L65.9047 378.746ZM62.7757 368.789C62.3504 368.078 61.4293 367.846 60.7184 368.271C60.0074 368.697 59.7758 369.618 60.2011 370.329L62.7757 368.789ZM55.4838 361.32C55.8258 362.075 56.7147 362.409 57.4692 362.067C58.2238 361.725 58.5582 360.836 58.2162 360.082L55.4838 361.32ZM54.676 350.911C54.4225 350.123 53.5776 349.689 52.7889 349.943C52.0003 350.196 51.5665 351.041 51.82 351.83L54.676 350.911ZM49.2708 341.987C49.4319 342.8 50.2212 343.328 51.0338 343.167C51.8465 343.006 52.3746 342.217 52.2136 341.404L49.2708 341.987ZM50.8637 331.665C50.7977 330.839 50.0748 330.223 49.249 330.289C48.4232 330.355 47.8073 331.078 47.8733 331.904L50.8637 331.665ZM47.6477 321.747C47.6186 322.574 48.2662 323.269 49.0941 323.298C49.922 323.327 50.6168 322.68 50.6459 321.852L47.6477 321.747ZM51.5482 312.056C51.6704 311.237 51.1053 310.474 50.2859 310.351C49.4665 310.229 48.7032 310.794 48.581 311.614L51.5482 312.056ZM50.6268 301.668C50.4163 302.469 50.8952 303.29 51.6964 303.5C52.4977 303.711 53.3178 303.232 53.5283 302.43L50.6268 301.668ZM56.5214 293.06C56.8136 292.285 56.4221 291.42 55.6469 291.128C54.8717 290.835 54.0064 291.227 53.7142 292.002L56.5214 293.06ZM57.7622 282.68C57.3961 283.423 57.7017 284.322 58.4449 284.688C59.188 285.054 60.0872 284.749 60.4533 284.006L57.7622 282.68ZM65.2097 275.367C65.6411 274.66 65.4174 273.737 64.7101 273.305C64.0028 272.874 63.0798 273.098 62.6484 273.805L65.2097 275.367ZM68.2654 265.405C67.7774 266.075 67.9244 267.013 68.5938 267.501C69.2632 267.989 70.2015 267.842 70.6895 267.173L68.2654 265.405ZM76.8099 259.418C77.3469 258.787 77.2707 257.841 76.6399 257.304C76.009 256.767 75.0623 256.843 74.5254 257.474L76.8099 259.418ZM81.3339 250.015C80.7552 250.607 80.7666 251.557 81.3593 252.136C81.9521 252.715 82.9017 252.703 83.4805 252.111L81.3339 250.015ZM90.7752 245.144C91.3966 244.596 91.4563 243.648 90.9084 243.027C90.3606 242.405 89.4127 242.346 88.7913 242.893L90.7752 245.144ZM96.8569 236.364C96.1919 236.858 96.0533 237.798 96.5473 238.463C97.0413 239.128 97.9809 239.266 98.6459 238.772L96.8569 236.364ZM107.018 233.064C107.72 232.625 107.934 231.7 107.495 230.997C107.056 230.295 106.13 230.081 105.428 230.52L107.018 233.064ZM114.424 225.366C113.69 225.751 113.407 226.658 113.792 227.391C114.176 228.125 115.083 228.408 115.816 228.024L114.424 225.366ZM124.969 223.636C125.728 223.304 126.074 222.419 125.742 221.66C125.41 220.901 124.525 220.555 123.766 220.887L124.969 223.636ZM133.384 217.052C132.605 217.334 132.202 218.194 132.484 218.973C132.767 219.752 133.627 220.155 134.406 219.873L133.384 217.052ZM144.067 216.698C144.861 216.463 145.314 215.628 145.079 214.834C144.843 214.039 144.008 213.587 143.214 213.822L144.067 216.698ZM153.204 211.153C152.399 211.346 151.901 212.155 152.094 212.961C152.287 213.767 153.096 214.264 153.902 214.071L153.204 211.153ZM163.867 211.948C164.681 211.795 165.217 211.011 165.064 210.197C164.911 209.383 164.127 208.847 163.313 209L163.867 211.948ZM173.505 207.318C172.685 207.435 172.115 208.195 172.233 209.015C172.35 209.835 173.11 210.405 173.93 210.288L173.505 207.318ZM184.062 209.049C184.886 208.964 185.486 208.228 185.401 207.404C185.317 206.58 184.58 205.98 183.756 206.064L184.062 209.049ZM194.04 205.201C193.214 205.256 192.588 205.97 192.642 206.797C192.697 207.624 193.411 208.25 194.238 208.195L194.04 205.201ZM204.427 207.692C205.255 207.665 205.904 206.971 205.877 206.143C205.849 205.315 205.156 204.666 204.328 204.694L204.427 207.692ZM214.625 204.508C213.797 204.51 213.128 205.184 213.13 206.013C213.133 206.841 213.807 207.51 214.635 207.508L214.625 204.508ZM224.853 207.614C225.681 207.633 226.368 206.978 226.388 206.15C226.408 205.322 225.752 204.634 224.924 204.615L224.853 207.614ZM235.217 204.989C234.39 204.949 233.686 205.587 233.646 206.414C233.606 207.242 234.244 207.945 235.072 207.986L235.217 204.989ZM245.285 208.601C246.111 208.66 246.829 208.038 246.888 207.212C246.947 206.385 246.325 205.668 245.499 205.609L245.285 208.601ZM255.763 206.452C254.938 206.376 254.207 206.982 254.131 207.807C254.054 208.632 254.661 209.363 255.486 209.439L255.763 206.452ZM265.664 210.481C266.487 210.574 267.229 209.981 267.321 209.158C267.414 208.334 266.821 207.592 265.998 207.5L265.664 210.481ZM276.208 208.736C275.386 208.63 274.634 209.209 274.527 210.031C274.42 210.852 275 211.605 275.821 211.711L276.208 208.736ZM285.962 213.115C286.781 213.235 287.543 212.668 287.664 211.848C287.784 211.028 287.217 210.266 286.397 210.146L285.962 213.115ZM296.563 211.716C295.745 211.584 294.974 212.139 294.842 212.957C294.709 213.775 295.265 214.545 296.083 214.677L296.563 211.716ZM306.18 216.387C306.996 216.531 307.774 215.986 307.918 215.171C308.062 214.355 307.517 213.577 306.701 213.433L306.18 216.387ZM316.811 215.284C315.997 215.13 315.212 215.665 315.058 216.479C314.903 217.292 315.438 218.077 316.252 218.232L316.811 215.284ZM326.307 220.203C327.119 220.367 327.911 219.842 328.075 219.03C328.239 218.218 327.714 217.426 326.902 217.262L326.307 220.203ZM336.969 219.355C336.159 219.182 335.362 219.699 335.188 220.509C335.015 221.319 335.532 222.116 336.342 222.289L336.969 219.355ZM346.354 224.482C347.163 224.663 347.965 224.154 348.146 223.346C348.327 222.538 347.819 221.735 347.011 221.554L346.354 224.482ZM357.026 223.849C356.219 223.66 355.412 224.161 355.224 224.968C355.035 225.775 355.536 226.582 356.343 226.77L357.026 223.849ZM366.306 229.146C367.111 229.342 367.922 228.848 368.117 228.043C368.313 227.238 367.819 226.427 367.014 226.231L366.306 229.146ZM376.975 228.692C376.171 228.49 375.357 228.978 375.155 229.782C374.953 230.585 375.441 231.4 376.245 231.602L376.975 228.692ZM386.19 234.135C386.992 234.342 387.81 233.86 388.017 233.058C388.224 232.256 387.742 231.438 386.94 231.23L386.19 234.135ZM396.886 233.832C396.085 233.62 395.264 234.098 395.052 234.898C394.84 235.699 395.317 236.52 396.118 236.732L396.886 233.832ZM406.03 239.385C406.83 239.601 407.654 239.128 407.87 238.328C408.086 237.528 407.613 236.705 406.813 236.488L406.03 239.385ZM416.724 239.19C415.925 238.97 415.1 239.44 414.881 240.239C414.661 241.038 415.131 241.863 415.93 242.083L416.724 239.19ZM425.819 244.816C426.618 245.038 427.444 244.571 427.666 243.773C427.888 242.975 427.421 242.148 426.623 241.926L425.819 244.816ZM436.512 244.685C435.714 244.462 434.887 244.928 434.663 245.726C434.44 246.523 434.906 247.351 435.704 247.574L436.512 244.685ZM445.408 250.293C446.206 250.516 447.033 250.05 447.257 249.253C447.48 248.455 447.015 247.627 446.217 247.404L445.408 250.293ZM455.895 250.108C455.097 249.886 454.27 250.353 454.048 251.151C453.825 251.949 454.292 252.776 455.09 252.998L455.895 250.108ZM464.78 255.685C465.578 255.905 466.404 255.436 466.625 254.638C466.845 253.839 466.376 253.013 465.577 252.793L464.78 255.685ZM475.267 255.446C474.467 255.229 473.643 255.701 473.426 256.5C473.209 257.3 473.681 258.124 474.48 258.341L475.267 255.446ZM484.194 260.956C484.994 261.169 485.816 260.693 486.029 259.892C486.243 259.092 485.767 258.27 484.966 258.057L484.194 260.956ZM494.678 260.614C493.876 260.405 493.057 260.886 492.849 261.688C492.64 262.49 493.121 263.309 493.923 263.517L494.678 260.614ZM503.67 266.015C504.474 266.218 505.289 265.731 505.492 264.928C505.695 264.125 505.208 263.309 504.405 263.107L503.67 266.015ZM514.148 265.524C513.343 265.328 512.531 265.822 512.335 266.627C512.139 267.431 512.632 268.243 513.437 268.439L514.148 265.524ZM523.225 270.777C524.031 270.966 524.838 270.465 525.027 269.659C525.215 268.852 524.714 268.045 523.908 267.856L523.225 270.777ZM533.688 270.091C532.879 269.911 532.078 270.42 531.897 271.229C531.717 272.037 532.227 272.839 533.035 273.019L533.688 270.091ZM542.874 275.153C543.684 275.324 544.48 274.805 544.65 273.994C544.821 273.184 544.303 272.388 543.492 272.217L542.874 275.153ZM553.32 274.222C552.508 274.062 551.719 274.591 551.559 275.404C551.399 276.217 551.928 277.005 552.74 277.166L553.32 274.222ZM562.636 279.043C563.452 279.191 564.233 278.651 564.381 277.836C564.529 277.021 563.989 276.24 563.174 276.092L562.636 279.043ZM573.052 277.81C572.235 277.675 571.463 278.228 571.327 279.045C571.192 279.862 571.745 280.635 572.562 280.77L573.052 277.81ZM582.518 282.33C583.337 282.45 584.1 281.884 584.22 281.064C584.341 280.245 583.775 279.482 582.955 279.362L582.518 282.33ZM592.882 280.727C592.06 280.622 591.309 281.204 591.204 282.025C591.1 282.847 591.681 283.598 592.503 283.703L592.882 280.727ZM602.517 284.869C603.341 284.956 604.079 284.358 604.165 283.535C604.252 282.711 603.655 281.972 602.831 281.886L602.517 284.869ZM612.799 282.815C611.974 282.748 611.25 283.363 611.183 284.189C611.117 285.015 611.732 285.738 612.558 285.805L612.799 282.815ZM622.623 286.483C623.451 286.528 624.157 285.893 624.202 285.066C624.246 284.239 623.611 283.532 622.784 283.488L622.623 286.483ZM632.779 283.875C631.951 283.856 631.264 284.511 631.244 285.34C631.225 286.168 631.881 286.855 632.709 286.874L632.779 283.875ZM642.808 286.942C643.636 286.934 644.301 286.255 644.292 285.427C644.283 284.598 643.605 283.934 642.777 283.942L642.808 286.942ZM652.764 283.652C651.937 283.692 651.299 284.395 651.339 285.223C651.379 286.05 652.082 286.688 652.91 286.648L652.764 283.652ZM662.999 285.947C663.824 285.872 664.432 285.142 664.356 284.317C664.281 283.492 663.551 282.884 662.726 282.96L662.999 285.947ZM672.638 281.817C671.817 281.932 671.245 282.69 671.361 283.511C671.476 284.331 672.234 284.903 673.054 284.788L672.638 281.817ZM683.046 283.113C683.859 282.954 684.388 282.166 684.229 281.353C684.069 280.54 683.281 280.01 682.468 280.17L683.046 283.113ZM692.175 277.96C691.373 278.169 690.893 278.989 691.102 279.79C691.311 280.592 692.13 281.072 692.932 280.863L692.175 277.96ZM702.659 277.973C703.444 277.71 703.867 276.859 703.603 276.074C703.34 275.289 702.489 274.866 701.704 275.129L702.659 277.973ZM710.988 271.618C710.225 271.941 709.869 272.822 710.192 273.584C710.515 274.347 711.395 274.704 712.158 274.381L710.988 271.618ZM721.346 270.031C722.079 269.644 722.36 268.737 721.974 268.004C721.588 267.271 720.68 266.99 719.948 267.377L721.346 270.031ZM728.494 262.366C727.799 262.818 727.602 263.747 728.054 264.441C728.505 265.136 729.435 265.333 730.129 264.881L728.494 262.366ZM738.392 258.924C739.04 258.407 739.146 257.463 738.629 256.816C738.112 256.168 737.169 256.062 736.521 256.579L738.392 258.924ZM743.934 250.035C743.341 250.614 743.33 251.564 743.908 252.157C744.487 252.749 745.436 252.761 746.029 252.183L743.934 250.035ZM752.885 244.836C753.424 244.207 753.352 243.26 752.723 242.721C752.094 242.181 751.147 242.254 750.608 242.883L752.885 244.836ZM756.547 235.377C756.059 236.047 756.206 236.985 756.876 237.473C757.546 237.961 758.484 237.813 758.972 237.144L756.547 235.377ZM764.419 228.988C764.851 228.28 764.627 227.357 763.92 226.926C763.213 226.494 762.29 226.718 761.858 227.425L764.419 228.988ZM766.495 219.057C766.124 219.798 766.424 220.699 767.165 221.07C767.906 221.441 768.807 221.141 769.178 220.4L766.495 219.057ZM773.199 211.427C773.505 210.657 773.129 209.785 772.359 209.479C771.589 209.172 770.717 209.548 770.411 210.318L773.199 211.427ZM773.56 201.284C773.322 202.077 773.771 202.914 774.564 203.152C775.358 203.391 776.194 202.942 776.433 202.148L773.56 201.284ZM778.853 192.631C779.022 191.82 778.502 191.026 777.691 190.856C776.88 190.687 776.085 191.207 775.916 192.018L778.853 192.631ZM777.461 182.58C777.363 183.402 777.95 184.149 778.773 184.247C779.595 184.345 780.342 183.758 780.44 182.935L777.461 182.58ZM781.181 173.132C781.207 172.304 780.557 171.612 779.729 171.585C778.901 171.559 778.209 172.209 778.182 173.037L781.181 173.132ZM778.071 163.474C778.117 164.301 778.825 164.935 779.652 164.889C780.479 164.843 781.113 164.136 781.067 163.309L778.071 163.474ZM780.098 153.532C779.98 152.712 779.22 152.142 778.4 152.26C777.58 152.378 777.011 153.138 777.128 153.958L780.098 153.532ZM775.353 144.556C775.543 145.363 776.35 145.863 777.156 145.673C777.963 145.484 778.463 144.676 778.273 143.87L775.353 144.556ZM775.599 134.413C775.337 133.627 774.488 133.201 773.702 133.462C772.916 133.723 772.49 134.572 772.751 135.359L775.599 134.413ZM769.327 126.434C769.659 127.193 770.544 127.539 771.303 127.206C772.062 126.874 772.408 125.99 772.076 125.231L769.327 126.434ZM767.711 116.413C767.309 115.688 766.395 115.428 765.671 115.83C764.947 116.232 764.686 117.146 765.089 117.87L767.711 116.413ZM760.052 109.764C760.523 110.445 761.458 110.615 762.139 110.143C762.82 109.672 762.99 108.737 762.519 108.056L760.052 109.764ZM756.506 100.251C755.967 99.6213 755.02 99.5479 754.391 100.087C753.762 100.625 753.688 101.572 754.227 102.202L756.506 100.251ZM747.652 95.3006C748.255 95.8687 749.205 95.8404 749.773 95.2374C750.341 94.6344 750.312 93.6851 749.709 93.117L747.652 95.3006ZM742.167 86.764C741.504 86.2668 740.564 86.401 740.067 87.0636C739.57 87.7263 739.704 88.6665 740.367 89.1637L742.167 86.764ZM732.435 83.8998C733.151 84.3168 734.069 84.0747 734.486 83.3589C734.903 82.6431 734.661 81.7247 733.945 81.3077L732.435 83.8998ZM725.138 76.8534C724.378 76.5242 723.495 76.8737 723.166 77.634C722.836 78.3942 723.186 79.2773 723.946 79.6065L725.138 76.8534ZM715.009 76.3588C715.803 76.5945 716.638 76.1419 716.874 75.3477C717.11 74.5535 716.657 73.7186 715.863 73.4828L715.009 76.3588ZM706.236 71.239C705.42 71.099 704.644 71.6474 704.504 72.4639C704.364 73.2804 704.913 74.0558 705.729 74.1958L706.236 71.239ZM696.288 73.1321C697.115 73.178 697.823 72.5446 697.869 71.7175C697.915 70.8903 697.281 70.1826 696.454 70.1367L696.288 73.1321ZM116.886 408.029C113.674 407.378 110.515 406.519 107.425 405.464L106.456 408.303C109.666 409.399 112.95 410.292 116.29 410.969L116.886 408.029ZM98.3565 401.719C95.4181 400.286 92.5636 398.672 89.8084 396.89L88.1791 399.409C91.0339 401.255 93.9934 402.929 97.0418 404.415L98.3565 401.719ZM81.8861 391.078C79.3685 388.996 76.9638 386.762 74.6868 384.391L72.523 386.469C74.8789 388.922 77.3676 391.234 79.9739 393.39L81.8861 391.078ZM68.2894 376.926C66.3075 374.329 64.4649 371.613 62.7757 368.789L60.2011 370.329C61.9485 373.25 63.8547 376.06 65.9047 378.746L68.2894 376.926ZM58.2162 360.082C56.8699 357.112 55.6853 354.051 54.676 350.911L51.82 351.83C52.8648 355.079 54.0907 358.247 55.4838 361.32L58.2162 360.082ZM52.2136 341.404C51.5818 338.217 51.1277 334.967 50.8637 331.665L47.8733 331.904C48.1466 335.322 48.6167 338.687 49.2708 341.987L52.2136 341.404ZM50.6459 321.852C50.7595 318.621 51.0567 315.352 51.5482 312.056L48.581 311.614C48.0728 315.022 47.7653 318.403 47.6477 321.747L50.6459 321.852ZM53.5283 302.43C54.3453 299.321 55.34 296.195 56.5214 293.06L53.7142 292.002C52.4966 295.233 51.4703 298.458 50.6268 301.668L53.5283 302.43ZM60.4533 284.006C61.8723 281.125 63.4554 278.244 65.2097 275.367L62.6484 273.805C60.8481 276.757 59.2215 279.717 57.7622 282.68L60.4533 284.006ZM70.6895 267.173C72.5815 264.578 74.6199 261.991 76.8099 259.418L74.5254 257.474C72.2878 260.103 70.2027 262.748 68.2654 265.405L70.6895 267.173ZM83.4805 252.111C84.6328 250.93 85.8188 249.754 87.0391 248.582L84.961 246.418C83.7178 247.612 82.509 248.811 81.3339 250.015L83.4805 252.111ZM87.0391 248.582C88.2628 247.406 89.5084 246.261 90.7752 245.144L88.7913 242.893C87.4926 244.038 86.2156 245.213 84.961 246.418L87.0391 248.582ZM98.6459 238.772C101.356 236.759 104.149 234.858 107.018 233.064L105.428 230.52C102.492 232.355 99.6335 234.301 96.8569 236.364L98.6459 238.772ZM115.816 228.024C118.798 226.461 121.85 225 124.969 223.636L123.766 220.887C120.586 222.278 117.47 223.77 114.424 225.366L115.816 228.024ZM134.406 219.873C137.569 218.727 140.791 217.67 144.067 216.698L143.214 213.822C139.883 214.81 136.605 215.885 133.384 217.052L134.406 219.873ZM153.902 214.071C157.177 213.288 160.501 212.582 163.867 211.948L163.313 209C159.9 209.642 156.529 210.359 153.204 211.153L153.902 214.071ZM173.93 210.288C177.271 209.81 180.65 209.398 184.062 209.049L183.756 206.064C180.306 206.418 176.888 206.834 173.505 207.318L173.93 210.288ZM194.238 208.195C197.607 207.972 201.005 207.806 204.427 207.692L204.328 204.694C200.874 204.808 197.444 204.977 194.04 205.201L194.238 208.195ZM214.635 207.508C218.022 207.496 221.428 207.532 224.853 207.614L224.924 204.615C221.474 204.532 218.04 204.496 214.625 204.508L214.635 207.508ZM235.072 207.986C238.463 208.151 241.868 208.357 245.285 208.601L245.499 205.609C242.06 205.363 238.632 205.155 235.217 204.989L235.072 207.986ZM255.486 209.439C258.872 209.753 262.265 210.101 265.664 210.481L265.998 207.5C262.581 207.117 259.168 206.767 255.763 206.452L255.486 209.439ZM275.821 211.711C279.2 212.15 282.581 212.619 285.962 213.115L286.397 210.146C283.001 209.648 279.603 209.178 276.208 208.736L275.821 211.711ZM296.083 214.677C299.452 215.224 302.819 215.794 306.18 216.387L306.701 213.433C303.327 212.838 299.947 212.265 296.563 211.716L296.083 214.677ZM316.252 218.232C319.613 218.87 322.966 219.527 326.307 220.203L326.902 217.262C323.549 216.585 320.184 215.925 316.811 215.284L316.252 218.232ZM336.342 222.289C339.694 223.005 343.033 223.737 346.354 224.482L347.011 221.554C343.68 220.807 340.331 220.074 336.969 219.355L336.342 222.289ZM356.343 226.77C359.685 227.552 363.007 228.345 366.306 229.146L367.014 226.231C363.707 225.428 360.377 224.633 357.026 223.849L356.343 226.77ZM376.245 231.602C379.588 232.441 382.905 233.286 386.19 234.135L386.94 231.23C383.649 230.38 380.326 229.533 376.975 228.692L376.245 231.602ZM396.118 236.732C399.46 237.617 402.765 238.502 406.03 239.385L406.813 236.488C403.544 235.605 400.233 234.719 396.886 233.832L396.118 236.732ZM415.93 242.083C419.277 243.002 422.575 243.914 425.819 244.816L426.623 241.926C423.376 241.023 420.075 240.11 416.724 239.19L415.93 242.083ZM435.704 247.574C437.35 248.035 438.981 248.492 440.595 248.944L441.405 246.056C439.79 245.603 438.159 245.146 436.512 244.685L435.704 247.574ZM440.595 248.944C442.191 249.391 443.795 249.841 445.408 250.293L446.217 247.404C444.604 246.952 443 246.503 441.405 246.056L440.595 248.944ZM455.09 252.998C458.292 253.89 461.523 254.787 464.78 255.685L465.577 252.793C462.324 251.896 459.095 251 455.895 250.108L455.09 252.998ZM474.48 258.341C477.697 259.215 480.936 260.088 484.194 260.956L484.966 258.057C481.714 257.19 478.48 256.319 475.267 255.446L474.48 258.341ZM493.923 263.517C497.158 264.358 500.408 265.192 503.67 266.015L504.405 263.107C501.149 262.285 497.906 261.453 494.678 260.614L493.923 263.517ZM513.437 268.439C516.691 269.232 519.954 270.012 523.225 270.777L523.908 267.856C520.647 267.094 517.393 266.315 514.148 265.524L513.437 268.439ZM533.035 273.019C536.311 273.749 539.591 274.462 542.874 275.153L543.492 272.217C540.222 271.528 536.953 270.819 533.688 270.091L533.035 273.019ZM552.74 277.166C556.041 277.816 559.34 278.443 562.636 279.043L563.174 276.092C559.893 275.494 556.607 274.87 553.32 274.222L552.74 277.166ZM572.562 280.77C575.888 281.321 579.207 281.841 582.518 282.33L582.955 279.362C579.663 278.876 576.361 278.358 573.052 277.81L572.562 280.77ZM592.503 283.703C595.854 284.13 599.192 284.519 602.517 284.869L602.831 281.886C599.529 281.538 596.212 281.151 592.882 280.727L592.503 283.703ZM612.558 285.805C615.932 286.078 619.289 286.305 622.623 286.483L622.784 283.488C619.477 283.311 616.148 283.085 612.799 282.815L612.558 285.805ZM632.709 286.874C636.103 286.953 639.47 286.977 642.808 286.942L642.777 283.942C639.474 283.977 636.141 283.953 632.779 283.875L632.709 286.874ZM652.91 286.648C656.31 286.484 659.674 286.251 662.999 285.947L662.726 282.96C659.445 283.26 656.124 283.489 652.764 283.652L652.91 286.648ZM673.054 284.788C676.433 284.314 679.765 283.757 683.046 283.113L682.468 280.17C679.243 280.802 675.965 281.35 672.638 281.817L673.054 284.788ZM692.932 280.863C696.236 280.002 699.48 279.04 702.659 277.973L701.704 275.129C698.594 276.173 695.416 277.115 692.175 277.96L692.932 280.863ZM712.158 274.381C715.298 273.051 718.363 271.603 721.346 270.031L719.948 267.377C717.042 268.908 714.054 270.32 710.988 271.618L712.158 274.381ZM730.129 264.881C732.975 263.03 735.731 261.046 738.392 258.924L736.521 256.579C733.938 258.64 731.26 260.567 728.494 262.366L730.129 264.881ZM746.029 252.183C747.245 250.997 748.435 249.776 749.6 248.52L747.4 246.48C746.269 247.7 745.114 248.885 743.934 250.035L746.029 252.183ZM749.6 248.52C750.727 247.304 751.822 246.075 752.885 244.836L750.608 242.883C749.57 244.093 748.501 245.293 747.4 246.48L749.6 248.52ZM758.972 237.144C760.923 234.465 762.738 231.744 764.419 228.988L761.858 227.425C760.219 230.112 758.45 232.765 756.547 235.377L758.972 237.144ZM769.178 220.4C770.66 217.437 771.999 214.443 773.199 211.427L770.411 210.318C769.243 213.255 767.939 216.171 766.495 219.057L769.178 220.4ZM776.433 202.148C777.384 198.987 778.189 195.812 778.853 192.631L775.916 192.018C775.27 195.115 774.486 198.206 773.56 201.284L776.433 202.148ZM780.44 182.935C780.831 179.66 781.077 176.389 781.181 173.132L778.182 173.037C778.081 176.206 777.842 179.391 777.461 182.58L780.44 182.935ZM781.067 163.309C780.885 160.02 780.561 156.757 780.098 153.532L777.128 153.958C777.579 157.097 777.895 160.272 778.071 163.474L781.067 163.309ZM778.273 143.87C777.519 140.663 776.626 137.507 775.599 134.413L772.751 135.359C773.751 138.367 774.619 141.437 775.353 144.556L778.273 143.87ZM772.076 125.231C770.754 122.211 769.297 119.267 767.711 116.413L765.089 117.87C766.628 120.64 768.043 123.499 769.327 126.434L772.076 125.231ZM762.519 108.056C760.642 105.344 758.636 102.738 756.506 100.251L754.227 102.202C756.289 104.61 758.232 107.135 760.052 109.764L762.519 108.056ZM749.709 93.117C747.313 90.8597 744.797 88.7374 742.167 86.764L740.367 89.1637C742.906 91.0686 745.336 93.1186 747.652 95.3006L749.709 93.117ZM733.945 81.3077C731.114 79.6579 728.176 78.1687 725.138 76.8534L723.946 79.6065C726.874 80.8738 729.705 82.3091 732.435 83.8998L733.945 81.3077ZM715.863 73.4828C712.74 72.5556 709.529 71.8037 706.236 71.239L705.729 74.1958C708.905 74.7404 712 75.4653 715.009 76.3588L715.863 73.4828ZM696.454 70.1367C694.82 70.046 693.168 70 691.5 70V73C693.113 73 694.709 73.0445 696.288 73.1321L696.454 70.1367Z" fill="white"/>
</g>
<defs>
<filter id="filter0_dii_68_268" x="0" y="-5" width="822" height="525" filterUnits="userSpaceOnUse" color-interpolation-filters="sRGB">
<feFlood flood-opacity="0" result="BackgroundImageFix"/>
<feColorMatrix in="SourceAlpha" type="matrix" values="0 0 0 0 0 0 0 0 0 0 0 0 0 0 0 0 0 0 127 0" result="hardAlpha"/>
<feOffset dx="-6" dy="12"/>
<feGaussianBlur stdDeviation="4"/>
<feComposite in2="hardAlpha" operator="out"/>
<feColorMatrix type="matrix" values="0 0 0 0 0.00875913 0 0 0 0 0.0912409 0 0 0 0 0.0846715 0 0 0 1 0"/>
<feBlend mode="normal" in2="BackgroundImageFix" result="effect1_dropShadow_68_268"/>
<feBlend mode="normal" in="SourceGraphic" in2="effect1_dropShadow_68_268" result="shape"/>
<feColorMatrix in="SourceAlpha" type="matrix" values="0 0 0 0 0 0 0 0 0 0 0 0 0 0 0 0 0 0 127 0" result="hardAlpha"/>
<feOffset dx="10" dy="-5"/>
<feGaussianBlur stdDeviation="4"/>
<feComposite in2="hardAlpha" operator="arithmetic" k2="-1" k3="1"/>
<feColorMatrix type="matrix" values="0 0 0 0 0.0175183 0 0 0 0 0.182482 0 0 0 0 0.169343 0 0 0 0.04 0"/>
<feBlend mode="normal" in2="shape" result="effect2_innerShadow_68_268"/>
<feColorMatrix in="SourceAlpha" type="matrix" values="0 0 0 0 0 0 0 0 0 0 0 0 0 0 0 0 0 0 127 0" result="hardAlpha"/>
<feOffset dx="-5" dy="8"/>
<feGaussianBlur stdDeviation="1.5"/>
<feComposite in2="hardAlpha" operator="arithmetic" k2="-1" k3="1"/>
<feColorMatrix type="matrix" values="0 0 0 0 0.0175183 0 0 0 0 0.182482 0 0 0 0 0.169343 0 0 0 0.2 0"/>
<feBlend mode="normal" in2="effect2_innerShadow_68_268" result="effect3_innerShadow_68_268"/>
</filter>
<filter id="filter1_dii_68_268" x="29" y="18" width="207" height="110" filterUnits="userSpaceOnUse" color-interpolation-filters="sRGB">
<feFlood flood-opacity="0" result="BackgroundImageFix"/>
<feColorMatrix in="SourceAlpha" type="matrix" values="0 0 0 0 0 0 0 0 0 0 0 0 0 0 0 0 0 0 127 0" result="hardAlpha"/>
<feOffset dx="-3" dy="6"/>
<feGaussianBlur stdDeviation="1"/>
<feComposite in2="hardAlpha" operator="out"/>
<feColorMatrix type="matrix" values="0 0 0 0 0.0175183 0 0 0 0 0.182482 0 0 0 0 0.169343 0 0 0 0.22 0"/>
<feBlend mode="normal" in2="BackgroundImageFix" result="effect1_dropShadow_68_268"/>
<feBlend mode="normal" in="SourceGraphic" in2="effect1_dropShadow_68_268" result="shape"/>
<feColorMatrix in="SourceAlpha" type="matrix" values="0 0 0 0 0 0 0 0 0 0 0 0 0 0 0 0 0 0 127 0" result="hardAlpha"/>
<feOffset dx="-3" dy="3"/>
<feGaussianBlur stdDeviation="0.5"/>
<feComposite in2="hardAlpha" operator="arithmetic" k2="-1" k3="1"/>
<feColorMatrix type="matrix" values="0 0 0 0 1 0 0 0 0 0.784 0 0 0 0 0.32 0 0 0 1 0"/>
<feBlend mode="normal" in2="shape" result="effect2_innerShadow_68_268"/>
<feColorMatrix in="SourceAlpha" type="matrix" values="0 0 0 0 0 0 0 0 0 0 0 0 0 0 0 0 0 0 127 0" result="hardAlpha"/>
<feOffset dx="3" dy="-3"/>
<feGaussianBlur stdDeviation="1"/>
<feComposite in2="hardAlpha" operator="arithmetic" k2="-1" k3="1"/>
<feColorMatrix type="matrix" values="0 0 0 0 0.66 0 0 0 0 0.450353 0 0 0 0 0 0 0 0 0.33 0"/>
<feBlend mode="normal" in2="effect2_innerShadow_68_268" result="effect3_innerShadow_68_268"/>
</filter>
<filter id="filter2_dii_68_268" x="249" y="18" width="207" height="110" filterUnits="userSpaceOnUse" color-interpolation-filters="sRGB">
<feFlood flood-opacity="0" result="BackgroundImageFix"/>
<feColorMatrix in="SourceAlpha" type="matrix" values="0 0 0 0 0 0 0 0 0 0 0 0 0 0 0 0 0 0 127 0" result="hardAlpha"/>
<feOffset dx="-3" dy="6"/>
<feGaussianBlur stdDeviation="1"/>
<feComposite in2="hardAlpha" operator="out"/>
<feColorMatrix type="matrix" values="0 0 0 0 0.0175183 0 0 0 0 0.182482 0 0 0 0 0.169343 0 0 0 0.22 0"/>
<feBlend mode="normal" in2="BackgroundImageFix" result="effect1_dropShadow_68_268"/>
<feBlend mode="normal" in="SourceGraphic" in2="effect1_dropShadow_68_268" result="shape"/>
<feColorMatrix in="SourceAlpha" type="matrix" values="0 0 0 0 0 0 0 0 0 0 0 0 0 0 0 0 0 0 127 0" result="hardAlpha"/>
<feOffset dx="-3" dy="3"/>
<feGaussianBlur stdDeviation="0.5"/>
<feComposite in2="hardAlpha" operator="arithmetic" k2="-1" k3="1"/>
<feColorMatrix type="matrix" values="0 0 0 0 1 0 0 0 0 0.784 0 0 0 0 0.32 0 0 0 1 0"/>
<feBlend mode="normal" in2="shape" result="effect2_innerShadow_68_268"/>
<feColorMatrix in="SourceAlpha" type="matrix" values="0 0 0 0 0 0 0 0 0 0 0 0 0 0 0 0 0 0 127 0" result="hardAlpha"/>
<feOffset dx="3" dy="-3"/>
<feGaussianBlur stdDeviation="1"/>
<feComposite in2="hardAlpha" operator="arithmetic" k2="-1" k3="1"/>
<feColorMatrix type="matrix" values="0 0 0 0 0.66 0 0 0 0 0.450353 0 0 0 0 0 0 0 0 0.33 0"/>
<feBlend mode="normal" in2="effect2_innerShadow_68_268" result="effect3_innerShadow_68_268"/>
</filter>
<filter id="filter3_dii_68_268" x="469" y="18" width="207" height="110" filterUnits="userSpaceOnUse" color-interpolation-filters="sRGB">
<feFlood flood-opacity="0" result="BackgroundImageFix"/>
<feColorMatrix in="SourceAlpha" type="matrix" values="0 0 0 0 0 0 0 0 0 0 0 0 0 0 0 0 0 0 127 0" result="hardAlpha"/>
<feOffset dx="-3" dy="6"/>
<feGaussianBlur stdDeviation="1"/>
<feComposite in2="hardAlpha" operator="out"/>
<feColorMatrix type="matrix" values="0 0 0 0 0.0175183 0 0 0 0 0.182482 0 0 0 0 0.169343 0 0 0 0.22 0"/>
<feBlend mode="normal" in2="BackgroundImageFix" result="effect1_dropShadow_68_268"/>
<feBlend mode="normal" in="SourceGraphic" in2="effect1_dropShadow_68_268" result="shape"/>
<feColorMatrix in="SourceAlpha" type="matrix" values="0 0 0 0 0 0 0 0 0 0 0 0 0 0 0 0 0 0 127 0" result="hardAlpha"/>
<feOffset dx="-3" dy="3"/>
<feGaussianBlur stdDeviation="0.5"/>
<feComposite in2="hardAlpha" operator="arithmetic" k2="-1" k3="1"/>
<feColorMatrix type="matrix" values="0 0 0 0 1 0 0 0 0 0.784 0 0 0 0 0.32 0 0 0 1 0"/>
<feBlend mode="normal" in2="shape" result="effect2_innerShadow_68_268"/>
<feColorMatrix in="SourceAlpha" type="matrix" values="0 0 0 0 0 0 0 0 0 0 0 0 0 0 0 0 0 0 127 0" result="hardAlpha"/>
<feOffset dx="3" dy="-3"/>
<feGaussianBlur stdDeviation="1"/>
<feComposite in2="hardAlpha" operator="arithmetic" k2="-1" k3="1"/>
<feColorMatrix type="matrix" values="0 0 0 0 0.66 0 0 0 0 0.450353 0 0 0 0 0 0 0 0 0.33 0"/>
<feBlend mode="normal" in2="effect2_innerShadow_68_268" result="effect3_innerShadow_68_268"/>
</filter>
<filter id="filter4_dii_68_268" x="149" y="359" width="207" height="110" filterUnits="userSpaceOnUse" color-interpolation-filters="sRGB">
<feFlood flood-opacity="0" result="BackgroundImageFix"/>
<feColorMatrix in="SourceAlpha" type="matrix" values="0 0 0 0 0 0 0 0 0 0 0 0 0 0 0 0 0 0 127 0" result="hardAlpha"/>
<feOffset dx="-3" dy="6"/>
<feGaussianBlur stdDeviation="1"/>
<feComposite in2="hardAlpha" operator="out"/>
<feColorMatrix type="matrix" values="0 0 0 0 0.0175183 0 0 0 0 0.182482 0 0 0 0 0.169343 0 0 0 0.22 0"/>
<feBlend mode="normal" in2="BackgroundImageFix" result="effect1_dropShadow_68_268"/>
<feBlend mode="normal" in="SourceGraphic" in2="effect1_dropShadow_68_268" result="shape"/>
<feColorMatrix in="SourceAlpha" type="matrix" values="0 0 0 0 0 0 0 0 0 0 0 0 0 0 0 0 0 0 127 0" result="hardAlpha"/>
<feOffset dx="-3" dy="3"/>
<feGaussianBlur stdDeviation="0.5"/>
<feComposite in2="hardAlpha" operator="arithmetic" k2="-1" k3="1"/>
<feColorMatrix type="matrix" values="0 0 0 0 1 0 0 0 0 0.784 0 0 0 0 0.32 0 0 0 1 0"/>
<feBlend mode="normal" in2="shape" result="effect2_innerShadow_68_268"/>
<feColorMatrix in="SourceAlpha" type="matrix" values="0 0 0 0 0 0 0 0 0 0 0 0 0 0 0 0 0 0 127 0" result="hardAlpha"/>
<feOffset dx="3" dy="-3"/>
<feGaussianBlur stdDeviation="1"/>
<feComposite in2="hardAlpha" operator="arithmetic" k2="-1" k3="1"/>
<feColorMatrix type="matrix" values="0 0 0 0 0.66 0 0 0 0 0.450353 0 0 0 0 0 0 0 0 0.33 0"/>
<feBlend mode="normal" in2="effect2_innerShadow_68_268" result="effect3_innerShadow_68_268"/>
</filter>
<filter id="filter5_dii_68_268" x="369" y="359" width="207" height="110" filterUnits="userSpaceOnUse" color-interpolation-filters="sRGB">
<feFlood flood-opacity="0" result="BackgroundImageFix"/>
<feColorMatrix in="SourceAlpha" type="matrix" values="0 0 0 0 0 0 0 0 0 0 0 0 0 0 0 0 0 0 127 0" result="hardAlpha"/>
<feOffset dx="-3" dy="6"/>
<feGaussianBlur stdDeviation="1"/>
<feComposite in2="hardAlpha" operator="out"/>
<feColorMatrix type="matrix" values="0 0 0 0 0.0175183 0 0 0 0 0.182482 0 0 0 0 0.169343 0 0 0 0.22 0"/>
<feBlend mode="normal" in2="BackgroundImageFix" result="effect1_dropShadow_68_268"/>
<feBlend mode="normal" in="SourceGraphic" in2="effect1_dropShadow_68_268" result="shape"/>
<feColorMatrix in="SourceAlpha" type="matrix" values="0 0 0 0 0 0 0 0 0 0 0 0 0 0 0 0 0 0 127 0" result="hardAlpha"/>
<feOffset dx="-3" dy="3"/>
<feGaussianBlur stdDeviation="0.5"/>
<feComposite in2="hardAlpha" operator="arithmetic" k2="-1" k3="1"/>
<feColorMatrix type="matrix" values="0 0 0 0 1 0 0 0 0 0.784 0 0 0 0 0.32 0 0 0 1 0"/>
<feBlend mode="normal" in2="shape" result="effect2_innerShadow_68_268"/>
<feColorMatrix in="SourceAlpha" type="matrix" values="0 0 0 0 0 0 0 0 0 0 0 0 0 0 0 0 0 0 127 0" result="hardAlpha"/>
<feOffset dx="3" dy="-3"/>
<feGaussianBlur stdDeviation="1"/>
<feComposite in2="hardAlpha" operator="arithmetic" k2="-1" k3="1"/>
<feColorMatrix type="matrix" values="0 0 0 0 0.66 0 0 0 0 0.450353 0 0 0 0 0 0 0 0 0.33 0"/>
<feBlend mode="normal" in2="effect2_innerShadow_68_268" result="effect3_innerShadow_68_268"/>
</filter>
<filter id="filter6_dii_68_268" x="589" y="359" width="207" height="110" filterUnits="userSpaceOnUse" color-interpolation-filters="sRGB">
<feFlood flood-opacity="0" result="BackgroundImageFix"/>
<feColorMatrix in="SourceAlpha" type="matrix" values="0 0 0 0 0 0 0 0 0 0 0 0 0 0 0 0 0 0 127 0" result="hardAlpha"/>
<feOffset dx="-3" dy="6"/>
<feGaussianBlur stdDeviation="1"/>
<feComposite in2="hardAlpha" operator="out"/>
<feColorMatrix type="matrix" values="0 0 0 0 0.0175183 0 0 0 0 0.182482 0 0 0 0 0.169343 0 0 0 0.22 0"/>
<feBlend mode="normal" in2="BackgroundImageFix" result="effect1_dropShadow_68_268"/>
<feBlend mode="normal" in="SourceGraphic" in2="effect1_dropShadow_68_268" result="shape"/>
<feColorMatrix in="SourceAlpha" type="matrix" values="0 0 0 0 0 0 0 0 0 0 0 0 0 0 0 0 0 0 127 0" result="hardAlpha"/>
<feOffset dx="-3" dy="3"/>
<feGaussianBlur stdDeviation="0.5"/>
<feComposite in2="hardAlpha" operator="arithmetic" k2="-1" k3="1"/>
<feColorMatrix type="matrix" values="0 0 0 0 1 0 0 0 0 0.784 0 0 0 0 0.32 0 0 0 1 0"/>
<feBlend mode="normal" in2="shape" result="effect2_innerShadow_68_268"/>
<feColorMatrix in="SourceAlpha" type="matrix" values="0 0 0 0 0 0 0 0 0 0 0 0 0 0 0 0 0 0 127 0" result="hardAlpha"/>
<feOffset dx="3" dy="-3"/>
<feGaussianBlur stdDeviation="1"/>
<feComposite in2="hardAlpha" operator="arithmetic" k2="-1" k3="1"/>
<feColorMatrix type="matrix" values="0 0 0 0 0.66 0 0 0 0 0.450353 0 0 0 0 0 0 0 0 0.33 0"/>
<feBlend mode="normal" in2="effect2_innerShadow_68_268" result="effect3_innerShadow_68_268"/>
</filter>
<filter id="filter7_d_68_268" x="43.6468" y="70" width="741.535" height="357.151" filterUnits="userSpaceOnUse" color-interpolation-filters="sRGB">
<feFlood flood-opacity="0" result="BackgroundImageFix"/>
<feColorMatrix in="SourceAlpha" type="matrix" values="0 0 0 0 0 0 0 0 0 0 0 0 0 0 0 0 0 0 127 0" result="hardAlpha"/>
<feOffset dy="4"/>
<feGaussianBlur stdDeviation="2"/>
<feComposite in2="hardAlpha" operator="out"/>
<feColorMatrix type="matrix" values="0 0 0 0 0 0 0 0 0 0 0 0 0 0 0 0 0 0 0.25 0"/>
<feBlend mode="normal" in2="BackgroundImageFix" result="effect1_dropShadow_68_268"/>
<feBlend mode="normal" in="SourceGraphic" in2="effect1_dropShadow_68_268" result="shape"/>
</filter>
</defs>
</svg>
